Kreon-Light.ufo
<glyph name="exclam" format="1">
  <advance width="253"/>
  <unicode hex="0021"/>
  <outline>
    <contour>
      <point x="95" y="228" type="line" name="hr00"/>
      <point x="77" y="679" type="line"/>
      <point x="159" y="691" type="line"/>
      <point x="180" y="653" type="line"/>
      <point x="153" y="228" type="line"/>
    </contour>
    <contour>
      <point x="72" y="49" type="qcurve"/>
      <point x="72" y="70"/>
      <point x="102" y="101"/>
      <point x="124" y="101" type="qcurve"/>
      <point x="145" y="101"/>
      <point x="176" y="70"/>
      <point x="176" y="49" type="qcurve"/>
      <point x="176" y="27"/>
      <point x="145" y="-3"/>
      <point x="124" y="-3" type="qcurve"/>
      <point x="102" y="-3"/>
      <point x="72" y="27"/>
    </contour>
  </outline>
</glyph>
<glyph name="quotedbl" format="1">
  <advance width="284"/>
  <unicode hex="0022"/>
  <outline>
    <contour>
      <point x="60" y="500" type="line" name="hr00"/>
      <point x="43" y="689" type="line"/>
      <point x="118" y="694" type="line" name="hr01"/>
      <point x="127" y="672" type="line"/>
      <point x="105" y="501" type="line" name="hr02"/>
    </contour>
    <contour>
      <point x="175" y="501" type="line"/>
      <point x="158" y="689" type="line"/>
      <point x="233" y="694" type="line" name="hr03"/>
      <point x="243" y="672" type="line" name="hr04"/>
      <point x="221" y="501" type="line"/>
    </contour>
  </outline>
</glyph>
<glyph name="numbersign" format="1">
  <advance width="593"/>
  <unicode hex="0023"/>
  <outline>
    <contour>
      <point x="37" y="251" type="line" name="hr00"/>
      <point x="30" y="291" type="line"/>
      <point x="37" y="303" type="line"/>
      <point x="173" y="303" type="line"/>
      <point x="210" y="423" type="line"/>
      <point x="92" y="423" type="line"/>
      <point x="85" y="463" type="line"/>
      <point x="92" y="476" type="line"/>
      <point x="227" y="476" type="line"/>
      <point x="288" y="670" type="line"/>
      <point x="339" y="670" type="line"/>
      <point x="347" y="656" type="line"/>
      <point x="290" y="476" type="line"/>
      <point x="379" y="476" type="line"/>
      <point x="440" y="670" type="line"/>
      <point x="489" y="670" type="line"/>
      <point x="497" y="656" type="line"/>
      <point x="441" y="476" type="line"/>
      <point x="554" y="476" type="line"/>
      <point x="560" y="476"/>
      <point x="560" y="469" type="qcurve"/>
      <point x="560" y="423" type="line"/>
      <point x="424" y="423" type="line"/>
      <point x="387" y="303" type="line"/>
      <point x="509" y="303" type="line"/>
      <point x="515" y="303"/>
      <point x="515" y="296" type="qcurve" name="hr01"/>
      <point x="515" y="251" type="line"/>
      <point x="371" y="251" type="line" name="hr02"/>
      <point x="308" y="48" type="line"/>
      <point x="259" y="48" type="line"/>
      <point x="250" y="61" type="line" name="hr03"/>
      <point x="309" y="251" type="line"/>
      <point x="219" y="251" type="line" name="hr04"/>
      <point x="155" y="48" type="line"/>
      <point x="106" y="48" type="line"/>
      <point x="97" y="61" type="line"/>
      <point x="156" y="251" type="line"/>
    </contour>
    <contour>
      <point x="235" y="303" type="line"/>
      <point x="325" y="303" type="line"/>
      <point x="363" y="423" type="line"/>
      <point x="273" y="423" type="line"/>
    </contour>
  </outline>
</glyph>
<glyph name="dollar" format="1">
  <advance width="474"/>
  <unicode hex="0024"/>
  <outline>
    <contour>
      <point x="214" y="-108" type="line" name="hr00"/>
      <point x="214" y="-4" type="line"/>
      <point x="160" y="-3"/>
      <point x="104" y="6"/>
      <point x="56" y="29" type="curve"/>
      <point x="45" y="183" type="line"/>
      <point x="103" y="183" type="line"/>
      <point x="130" y="84" type="line"/>
      <point x="152" y="73"/>
      <point x="186" y="65"/>
      <point x="214" y="64" type="curve"/>
      <point x="214" y="334" type="line"/>
      <point x="127" y="373"/>
      <point x="45" y="414"/>
      <point x="45" y="520" type="curve" smooth="yes"/>
      <point x="45" y="614"/>
      <point x="121" y="676"/>
      <point x="214" y="688" type="curve"/>
      <point x="214" y="770" type="line"/>
      <point x="272" y="770" type="line"/>
      <point x="272" y="690" type="line"/>
      <point x="318" y="687"/>
      <point x="360" y="675"/>
      <point x="402" y="659" type="curve"/>
      <point x="415" y="505" type="line"/>
      <point x="360" y="505" type="line"/>
      <point x="318" y="611" type="line"/>
      <point x="303" y="617"/>
      <point x="288" y="621"/>
      <point x="272" y="623" type="curve"/>
      <point x="272" y="386" type="line"/>
      <point x="287" y="380" type="line"/>
      <point x="408" y="324"/>
      <point x="437" y="258"/>
      <point x="437" y="189" type="curve" smooth="yes"/>
      <point x="437" y="84"/>
      <point x="364" y="18"/>
      <point x="272" y="0" type="curve"/>
      <point x="272" y="-108" type="line"/>
    </contour>
    <contour>
      <point x="366" y="181" type="curve" smooth="yes"/>
      <point x="366" y="232"/>
      <point x="348" y="270"/>
      <point x="280" y="304" type="curve" smooth="yes"/>
      <point x="277" y="305"/>
      <point x="274" y="306"/>
      <point x="272" y="308" type="curve"/>
      <point x="272" y="70" type="line"/>
      <point x="323" y="83"/>
      <point x="366" y="119"/>
    </contour>
    <contour>
      <point x="116" y="528" type="curve" smooth="yes"/>
      <point x="116" y="466"/>
      <point x="161" y="436"/>
      <point x="214" y="411" type="curve"/>
      <point x="214" y="622" type="line"/>
      <point x="163" y="614"/>
      <point x="116" y="583"/>
    </contour>
  </outline>
</glyph>
<glyph name="percent" format="1">
  <advance width="636"/>
  <unicode hex="0025"/>
  <outline>
    <contour>
      <point x="124" y="0" type="line" name="hr00"/>
      <point x="77" y="0" type="line"/>
      <point x="74" y="13" type="line"/>
      <point x="516" y="692" type="line"/>
      <point x="559" y="692" type="line"/>
      <point x="558" y="677" type="line"/>
    </contour>
    <contour>
      <point x="406" y="171" type="curve"/>
      <point x="406" y="167" type="line" smooth="yes"/>
      <point x="406" y="121"/>
      <point x="420" y="48"/>
      <point x="473" y="48" type="curve" smooth="yes"/>
      <point x="529" y="48"/>
      <point x="542" y="124"/>
      <point x="542" y="171" type="curve" smooth="yes"/>
      <point x="542" y="218"/>
      <point x="529" y="292"/>
      <point x="473" y="292" type="curve" smooth="yes"/>
      <point x="416" y="292"/>
      <point x="409" y="216"/>
    </contour>
    <contour>
      <point x="348" y="171" type="curve"/>
      <point x="348" y="177" type="line" smooth="yes"/>
      <point x="348" y="253"/>
      <point x="383" y="344"/>
      <point x="473" y="344" type="curve" smooth="yes"/>
      <point x="568" y="344"/>
      <point x="599" y="250"/>
      <point x="599" y="171" type="curve" smooth="yes" name="hr01"/>
      <point x="599" y="94"/>
      <point x="566" y="-4"/>
      <point x="473" y="-4" type="curve" smooth="yes"/>
      <point x="375" y="-4"/>
      <point x="351" y="95"/>
    </contour>
    <contour>
      <point x="96" y="518" type="curve"/>
      <point x="96" y="514" type="line" smooth="yes"/>
      <point x="96" y="468"/>
      <point x="110" y="395"/>
      <point x="163" y="395" type="curve" smooth="yes"/>
      <point x="219" y="395"/>
      <point x="232" y="470"/>
      <point x="232" y="518" type="curve" smooth="yes"/>
      <point x="232" y="566"/>
      <point x="219" y="638"/>
      <point x="163" y="638" type="curve" smooth="yes"/>
      <point x="106" y="638"/>
      <point x="99" y="563"/>
    </contour>
    <contour>
      <point x="38" y="518" type="curve"/>
      <point x="38" y="524" type="line" smooth="yes"/>
      <point x="38" y="599"/>
      <point x="74" y="691"/>
      <point x="163" y="691" type="curve" smooth="yes"/>
      <point x="256" y="691"/>
      <point x="289" y="596"/>
      <point x="289" y="518" type="curve" smooth="yes"/>
      <point x="289" y="440"/>
      <point x="258" y="342"/>
      <point x="163" y="342" type="curve" smooth="yes" name="hr02"/>
      <point x="65" y="342"/>
      <point x="41" y="442"/>
    </contour>
  </outline>
</glyph>
<glyph name="ampersand" format="1">
  <advance width="602"/>
  <unicode hex="0026"/>
  <outline>
    <contour>
      <point x="540" y="386" type="line" name="hr00"/>
      <point x="534" y="344"/>
      <point x="508" y="230"/>
      <point x="468" y="155" type="curve" smooth="yes"/>
      <point x="455" y="131" type="line"/>
      <point x="490" y="93"/>
      <point x="521" y="65"/>
      <point x="536" y="65" type="curve" smooth="yes"/>
      <point x="544" y="65"/>
      <point x="560" y="72"/>
      <point x="571" y="77" type="curve"/>
      <point x="574" y="58"/>
      <point x="583" y="22"/>
      <point x="588" y="6" type="curve"/>
      <point x="569" y="-1"/>
      <point x="564" y="-1"/>
      <point x="548" y="-1" type="curve" smooth="yes"/>
      <point x="508" y="-1"/>
      <point x="464" y="31"/>
      <point x="419" y="77" type="curve"/>
      <point x="383" y="35"/>
      <point x="329" y="-4"/>
      <point x="243" y="-4" type="curve" smooth="yes"/>
      <point x="110" y="-4"/>
      <point x="35" y="84"/>
      <point x="35" y="178" type="curve" smooth="yes"/>
      <point x="35" y="272"/>
      <point x="111" y="345"/>
      <point x="179" y="388" type="curve"/>
      <point x="172" y="401" type="line" smooth="yes"/>
      <point x="147" y="444"/>
      <point x="115" y="484"/>
      <point x="115" y="545" type="curve" smooth="yes"/>
      <point x="115" y="596"/>
      <point x="157" y="690"/>
      <point x="266" y="690" type="curve" smooth="yes"/>
      <point x="333" y="690"/>
      <point x="400" y="639"/>
      <point x="400" y="558" type="curve" smooth="yes"/>
      <point x="400" y="490"/>
      <point x="359" y="428"/>
      <point x="274" y="364" type="curve"/>
      <point x="313" y="312" type="line"/>
      <point x="329" y="286"/>
      <point x="368" y="233"/>
      <point x="410" y="183" type="curve"/>
      <point x="436" y="230"/>
      <point x="454" y="285"/>
      <point x="465" y="341" type="curve"/>
      <point x="424" y="341" type="line"/>
      <point x="411" y="398" type="line"/>
      <point x="533" y="398" type="line"/>
    </contour>
    <contour>
      <point x="238" y="309" type="curve"/>
      <point x="229" y="320"/>
      <point x="221" y="330"/>
      <point x="214" y="340" type="curve"/>
      <point x="161" y="301"/>
      <point x="108" y="251"/>
      <point x="108" y="173" type="curve" smooth="yes"/>
      <point x="108" y="99"/>
      <point x="177" y="59"/>
      <point x="243" y="59" type="curve" smooth="yes"/>
      <point x="294" y="59"/>
      <point x="338" y="86"/>
      <point x="373" y="128" type="curve" name="hr01"/>
      <point x="324" y="187"/>
      <point x="277" y="255"/>
    </contour>
    <contour>
      <point x="336" y="551" type="curve" smooth="yes"/>
      <point x="336" y="587"/>
      <point x="313" y="632"/>
      <point x="262" y="632" type="curve" smooth="yes"/>
      <point x="199" y="632"/>
      <point x="180" y="588"/>
      <point x="180" y="544" type="curve" smooth="yes"/>
      <point x="180" y="503"/>
      <point x="207" y="456"/>
      <point x="242" y="407" type="curve"/>
      <point x="300" y="453"/>
      <point x="336" y="502"/>
    </contour>
  </outline>
</glyph>
<glyph name="quotesingle" format="1">
  <advance width="170"/>
  <unicode hex="0027"/>
  <outline>
    <contour>
      <point x="61" y="501" type="line" name="hr00"/>
      <point x="44" y="689" type="line"/>
      <point x="119" y="694" type="line"/>
      <point x="128" y="672" type="line"/>
      <point x="106" y="501" type="line"/>
    </contour>
  </outline>
</glyph>
<glyph name="parenleft" format="1">
  <advance width="258"/>
  <unicode hex="0028"/>
  <outline>
    <contour>
      <point x="164" y="-162" type="line" name="hr00"/>
      <point x="135" y="-101"/>
      <point x="54" y="70"/>
      <point x="54" y="290" type="curve" smooth="yes"/>
      <point x="54" y="510"/>
      <point x="121" y="670"/>
      <point x="164" y="742" type="curve"/>
      <point x="224" y="742" type="line"/>
      <point x="181" y="662"/>
      <point x="125" y="500"/>
      <point x="125" y="291" type="curve" smooth="yes"/>
      <point x="125" y="79"/>
      <point x="192" y="-83"/>
      <point x="224" y="-162" type="curve"/>
    </contour>
  </outline>
</glyph>
<glyph name="parenright" format="1">
  <advance width="259"/>
  <unicode hex="0029"/>
  <outline>
    <contour>
      <point x="35" y="-162" type="line" name="hr00"/>
      <point x="67" y="-83"/>
      <point x="134" y="79"/>
      <point x="134" y="291" type="curve" smooth="yes"/>
      <point x="134" y="500"/>
      <point x="78" y="662"/>
      <point x="35" y="742" type="curve"/>
      <point x="95" y="742" type="line"/>
      <point x="138" y="670"/>
      <point x="205" y="510"/>
      <point x="205" y="290" type="curve" smooth="yes"/>
      <point x="205" y="70"/>
      <point x="124" y="-101"/>
      <point x="95" y="-162" type="curve"/>
    </contour>
  </outline>
</glyph>
<glyph name="asterisk" format="1">
  <advance width="332"/>
  <unicode hex="002A"/>
  <outline>
    <contour>
      <point x="188" y="691" type="line" name="hr00"/>
      <point x="196" y="681" type="line"/>
      <point x="176" y="576" type="line"/>
      <point x="260" y="649" type="line"/>
      <point x="290" y="611" type="line"/>
      <point x="286" y="600" type="line"/>
      <point x="187" y="558" type="line"/>
      <point x="291" y="519" type="line"/>
      <point x="272" y="476" type="line"/>
      <point x="259" y="472" type="line"/>
      <point x="175" y="541" type="line"/>
      <point x="192" y="429" type="line"/>
      <point x="145" y="425" type="line"/>
      <point x="136" y="435" type="line"/>
      <point x="155" y="539" type="line"/>
      <point x="72" y="467" type="line"/>
      <point x="44" y="505" type="line"/>
      <point x="46" y="517" type="line"/>
      <point x="146" y="558" type="line"/>
      <point x="41" y="597" type="line"/>
      <point x="61" y="640" type="line"/>
      <point x="72" y="644" type="line"/>
      <point x="156" y="575" type="line"/>
      <point x="140" y="687" type="line"/>
    </contour>
    <contour>
      <point x="159" y="558" type="line"/>
      <point x="163" y="552" type="line"/>
      <point x="170" y="552" type="line"/>
      <point x="173" y="558" type="line"/>
      <point x="169" y="564" type="line"/>
      <point x="163" y="564" type="line"/>
    </contour>
  </outline>
</glyph>
<glyph name="plus" format="1">
  <advance width="438"/>
  <unicode hex="002B"/>
  <outline>
    <contour>
      <point x="244" y="547" type="line" name="hr00"/>
      <point x="244" y="378" type="line"/>
      <point x="404" y="378" type="line"/>
      <point x="404" y="315" type="line"/>
      <point x="244" y="315" type="line"/>
      <point x="244" y="134" type="line"/>
      <point x="193" y="134" type="line"/>
      <point x="181" y="142" type="line"/>
      <point x="181" y="315" type="line"/>
      <point x="32" y="315" type="line"/>
      <point x="32" y="365" type="line"/>
      <point x="40" y="378" type="line"/>
      <point x="181" y="378" type="line"/>
      <point x="181" y="547" type="line"/>
    </contour>
  </outline>
</glyph>
<glyph name="comma" format="1">
  <advance width="199"/>
  <unicode hex="002C"/>
  <outline>
    <contour>
      <point x="33" y="-95" type="line" name="hr00"/>
      <point x="69" y="-113" type="line"/>
      <point x="108" y="-76"/>
      <point x="140" y="0"/>
      <point x="140" y="61" type="curve" smooth="yes"/>
      <point x="140" y="90"/>
      <point x="133" y="118"/>
      <point x="131" y="128" type="curve"/>
      <point x="53" y="115" type="line"/>
      <point x="76" y="-1" type="line"/>
      <point x="33" y="-81" type="line"/>
    </contour>
  </outline>
</glyph>
<glyph name="hyphen" format="1">
  <advance width="377"/>
  <unicode hex="002D"/>
  <outline>
    <contour>
      <point x="63" y="251" type="line" name="hr00"/>
      <point x="63" y="306" type="line"/>
      <point x="71" y="314" type="line"/>
      <point x="308" y="314" type="line"/>
      <point x="314" y="314"/>
      <point x="314" y="307" type="qcurve"/>
      <point x="314" y="251" type="line"/>
    </contour>
  </outline>
</glyph>
<glyph name="period" format="1">
  <advance width="206"/>
  <unicode hex="002E"/>
  <outline>
    <contour>
      <point x="51" y="49" type="curve" smooth="yes" name="hr00"/>
      <point x="51" y="77"/>
      <point x="74" y="101"/>
      <point x="103" y="101" type="curve" smooth="yes"/>
      <point x="131" y="101"/>
      <point x="155" y="77"/>
      <point x="155" y="49" type="curve" smooth="yes"/>
      <point x="155" y="20"/>
      <point x="131" y="-3"/>
      <point x="103" y="-3" type="curve" smooth="yes"/>
      <point x="74" y="-3"/>
      <point x="51" y="20"/>
    </contour>
  </outline>
</glyph>
<glyph name="slash" format="1">
  <advance width="437"/>
  <unicode hex="002F"/>
  <outline>
    <contour>
      <point x="75" y="0" type="line" name="hr00"/>
      <point x="27" y="0" type="line"/>
      <point x="24" y="13" type="line"/>
      <point x="363" y="692" type="line"/>
      <point x="414" y="692" type="line"/>
      <point x="413" y="677" type="line"/>
    </contour>
  </outline>
</glyph>
<glyph name="zero" format="1">
  <advance width="567"/>
  <unicode hex="0030"/>
  <outline>
    <contour>
      <point x="53" y="344" type="curve" smooth="yes" name="hr00"/>
      <point x="53" y="517"/>
      <point x="120" y="692"/>
      <point x="284" y="692" type="curve" smooth="yes"/>
      <point x="446" y="692"/>
      <point x="514" y="517"/>
      <point x="514" y="344" type="curve" smooth="yes"/>
      <point x="514" y="171"/>
      <point x="446" y="-4"/>
      <point x="284" y="-4" type="curve" smooth="yes"/>
      <point x="120" y="-4"/>
      <point x="53" y="171"/>
    </contour>
    <contour>
      <point x="122" y="344" type="curve" smooth="yes"/>
      <point x="122" y="213"/>
      <point x="162" y="63"/>
      <point x="284" y="63" type="curve" smooth="yes"/>
      <point x="406" y="63"/>
      <point x="445" y="213"/>
      <point x="445" y="344" type="curve" smooth="yes"/>
      <point x="445" y="476"/>
      <point x="406" y="625"/>
      <point x="284" y="625" type="curve" smooth="yes"/>
      <point x="162" y="625"/>
      <point x="122" y="476"/>
    </contour>
  </outline>
</glyph>
<glyph name="one" format="1">
  <advance width="327"/>
  <unicode hex="0031"/>
  <outline>
    <contour>
      <point x="41" y="49" type="line" name="hr00"/>
      <point x="146" y="68" type="line"/>
      <point x="146" y="601" type="line"/>
      <point x="43" y="581" type="line"/>
      <point x="34" y="638" type="line"/>
      <point x="192" y="692" type="line"/>
      <point x="214" y="682" type="line"/>
      <point x="214" y="68" type="line"/>
      <point x="308" y="55" type="line"/>
      <point x="308" y="0" type="line"/>
      <point x="48" y="0" type="line"/>
    </contour>
  </outline>
</glyph>
<glyph name="two" format="1">
  <advance width="504"/>
  <unicode hex="0032"/>
  <outline>
    <contour>
      <point x="48" y="0" type="line" name="hr00"/>
      <point x="38" y="58" type="line"/>
      <point x="128" y="157"/>
      <point x="368" y="336"/>
      <point x="368" y="513" type="curve" smooth="yes"/>
      <point x="368" y="604"/>
      <point x="291" y="628"/>
      <point x="241" y="628" type="curve" smooth="yes"/>
      <point x="196" y="628"/>
      <point x="167" y="615"/>
      <point x="155" y="609" type="curve"/>
      <point x="154" y="609"/>
      <point x="154" y="608"/>
      <point x="107" y="521" type="curve"/>
      <point x="34" y="566" type="line"/>
      <point x="85" y="650"/>
      <point x="151" y="692"/>
      <point x="247" y="692" type="curve" smooth="yes"/>
      <point x="371" y="692"/>
      <point x="438" y="611"/>
      <point x="438" y="508" type="curve" smooth="yes"/>
      <point x="438" y="351"/>
      <point x="211" y="139"/>
      <point x="143" y="75" type="curve" smooth="yes"/>
      <point x="131" y="63" type="line"/>
      <point x="374" y="63" type="line"/>
      <point x="408" y="171" type="line"/>
      <point x="457" y="171" type="line"/>
      <point x="437" y="0" type="line"/>
    </contour>
  </outline>
</glyph>
<glyph name="three" format="1">
  <advance width="515"/>
  <unicode hex="0033"/>
  <outline>
    <contour>
      <point x="71" y="112" type="line" name="hr00"/>
      <point x="118" y="77"/>
      <point x="175" y="59"/>
      <point x="235" y="59" type="curve" smooth="yes"/>
      <point x="316" y="59"/>
      <point x="389" y="104"/>
      <point x="389" y="188" type="curve" smooth="yes"/>
      <point x="389" y="306"/>
      <point x="257" y="319"/>
      <point x="162" y="319" type="curve" smooth="yes"/>
      <point x="147" y="319" type="line" name="hr01"/>
      <point x="147" y="382" type="line"/>
      <point x="239" y="382"/>
      <point x="372" y="389"/>
      <point x="372" y="518" type="curve" smooth="yes"/>
      <point x="372" y="585"/>
      <point x="308" y="628"/>
      <point x="242" y="628" type="curve" smooth="yes"/>
      <point x="210" y="628"/>
      <point x="180" y="623"/>
      <point x="157" y="607" type="curve"/>
      <point x="111" y="521" type="line"/>
      <point x="37" y="566" type="line"/>
      <point x="84" y="650"/>
      <point x="151" y="692"/>
      <point x="250" y="692" type="curve" smooth="yes"/>
      <point x="342" y="692"/>
      <point x="445" y="630"/>
      <point x="445" y="520" type="curve" smooth="yes"/>
      <point x="445" y="445"/>
      <point x="399" y="376"/>
      <point x="328" y="353" type="curve"/>
      <point x="397" y="339"/>
      <point x="464" y="283"/>
      <point x="464" y="191" type="curve" smooth="yes" name="hr02"/>
      <point x="464" y="50"/>
      <point x="349" y="-4"/>
      <point x="232" y="-4" type="curve" smooth="yes"/>
      <point x="163" y="-4"/>
      <point x="93" y="16"/>
      <point x="36" y="55" type="curve"/>
    </contour>
  </outline>
</glyph>
<glyph name="four" format="1">
  <advance width="508"/>
  <unicode hex="0034"/>
  <outline>
    <contour>
      <point x="162" y="56" type="line" name="hr00"/>
      <point x="314" y="72" type="line"/>
      <point x="314" y="200" type="line"/>
      <point x="39" y="200" type="line"/>
      <point x="8" y="264" type="line"/>
      <point x="314" y="691" type="line"/>
      <point x="382" y="691" type="line"/>
      <point x="382" y="268" type="line"/>
      <point x="467" y="268" type="line"/>
      <point x="467" y="200" type="line"/>
      <point x="382" y="200" type="line"/>
      <point x="382" y="73" type="line"/>
      <point x="423" y="64"/>
      <point x="459" y="59"/>
      <point x="462" y="59" type="curve"/>
      <point x="462" y="2" type="line"/>
      <point x="162" y="2" type="line"/>
    </contour>
    <contour>
      <point x="314" y="268" type="line"/>
      <point x="314" y="592" type="line"/>
      <point x="85" y="268" type="line"/>
    </contour>
  </outline>
</glyph>
<glyph name="five" format="1">
  <advance width="502"/>
  <unicode hex="0035"/>
  <outline>
    <contour>
      <point x="111" y="690" type="line" name="hr00"/>
      <point x="442" y="690" type="line"/>
      <point x="442" y="623" type="line"/>
      <point x="143" y="623" type="line"/>
      <point x="143" y="451" type="line"/>
      <point x="164" y="453"/>
      <point x="184" y="453"/>
      <point x="203" y="453" type="curve" smooth="yes"/>
      <point x="354" y="453"/>
      <point x="456" y="367"/>
      <point x="456" y="231" type="curve" smooth="yes"/>
      <point x="456" y="90"/>
      <point x="353" y="-4"/>
      <point x="214" y="-4" type="curve" smooth="yes"/>
      <point x="146" y="-4"/>
      <point x="82" y="12"/>
      <point x="29" y="55" type="curve"/>
      <point x="65" y="112" type="line"/>
      <point x="104" y="77"/>
      <point x="162" y="59"/>
      <point x="215" y="59" type="curve" smooth="yes"/>
      <point x="311" y="59"/>
      <point x="384" y="130"/>
      <point x="384" y="226" type="curve" smooth="yes"/>
      <point x="384" y="360"/>
      <point x="275" y="390"/>
      <point x="173" y="390" type="curve" smooth="yes"/>
      <point x="138" y="390"/>
      <point x="106" y="386"/>
      <point x="80" y="382" type="curve"/>
      <point x="80" y="657" type="line"/>
    </contour>
  </outline>
</glyph>
<glyph name="six" format="1">
  <advance width="563"/>
  <unicode hex="0036"/>
  <outline>
    <contour>
      <point x="303" y="430" type="curve" smooth="yes" name="hr00"/>
      <point x="427" y="430"/>
      <point x="515" y="342"/>
      <point x="515" y="219" type="curve" smooth="yes"/>
      <point x="515" y="92"/>
      <point x="428" y="-4"/>
      <point x="298" y="-4" type="curve" smooth="yes"/>
      <point x="118" y="-4"/>
      <point x="51" y="185"/>
      <point x="51" y="329" type="curve" smooth="yes"/>
      <point x="51" y="483"/>
      <point x="122" y="692"/>
      <point x="314" y="692" type="curve" smooth="yes"/>
      <point x="430" y="692"/>
      <point x="497" y="627"/>
      <point x="511" y="612" type="curve"/>
      <point x="438" y="541" type="line" name="hr01"/>
      <point x="386" y="613" type="line"/>
      <point x="373" y="620"/>
      <point x="346" y="629"/>
      <point x="315" y="629" type="curve" smooth="yes"/>
      <point x="174" y="629"/>
      <point x="124" y="448"/>
      <point x="124" y="336" type="curve"/>
      <point x="162" y="391"/>
      <point x="228" y="430"/>
    </contour>
    <contour>
      <point x="299" y="59" type="curve" smooth="yes"/>
      <point x="399" y="59"/>
      <point x="443" y="143"/>
      <point x="443" y="218" type="curve" smooth="yes"/>
      <point x="443" y="304"/>
      <point x="387" y="367"/>
      <point x="296" y="367" type="curve" smooth="yes"/>
      <point x="211" y="367"/>
      <point x="141" y="297"/>
      <point x="140" y="211" type="curve"/>
      <point x="153" y="129"/>
      <point x="210" y="59"/>
    </contour>
  </outline>
</glyph>
<glyph name="seven" format="1">
  <advance width="427"/>
  <unicode hex="0037"/>
  <outline>
    <contour>
      <point x="102" y="625" type="line" name="hr00"/>
      <point x="72" y="513" type="line"/>
      <point x="30" y="513" type="line"/>
      <point x="30" y="690" type="line"/>
      <point x="399" y="690" type="line"/>
      <point x="417" y="665" type="line"/>
      <point x="196" y="0" type="line"/>
      <point x="126" y="0" type="line"/>
      <point x="121" y="14" type="line"/>
      <point x="345" y="625" type="line"/>
    </contour>
  </outline>
</glyph>
<glyph name="eight" format="1">
  <advance width="513"/>
  <unicode hex="0038"/>
  <outline>
    <contour>
      <point x="80" y="533" type="curve" smooth="yes" name="hr00"/>
      <point x="80" y="624"/>
      <point x="146" y="692"/>
      <point x="254" y="692" type="curve" smooth="yes"/>
      <point x="363" y="692"/>
      <point x="430" y="634"/>
      <point x="430" y="533" type="curve" smooth="yes"/>
      <point x="430" y="471"/>
      <point x="389" y="426"/>
      <point x="321" y="373" type="curve"/>
      <point x="432" y="306"/>
      <point x="466" y="251"/>
      <point x="466" y="172" type="curve" smooth="yes"/>
      <point x="466" y="88"/>
      <point x="397" y="-4"/>
      <point x="254" y="-4" type="curve" smooth="yes" name="hr01"/>
      <point x="111" y="-4"/>
      <point x="47" y="88"/>
      <point x="47" y="172" type="curve" smooth="yes"/>
      <point x="47" y="269"/>
      <point x="122" y="327"/>
      <point x="188" y="369" type="curve"/>
      <point x="128" y="410"/>
      <point x="80" y="459"/>
    </contour>
    <contour>
      <point x="115" y="173" type="curve" smooth="yes"/>
      <point x="115" y="99"/>
      <point x="180" y="59"/>
      <point x="254" y="59" type="curve" smooth="yes"/>
      <point x="329" y="59"/>
      <point x="397" y="99"/>
      <point x="397" y="173" type="curve" smooth="yes" name="hr02"/>
      <point x="397" y="258"/>
      <point x="314" y="291"/>
      <point x="246" y="333" type="curve"/>
      <point x="245" y="333"/>
      <point x="244" y="334"/>
      <point x="243" y="335" type="curve" name="hr03"/>
      <point x="187" y="295"/>
      <point x="115" y="254"/>
    </contour>
    <contour>
      <point x="362" y="539" type="curve" smooth="yes"/>
      <point x="362" y="605"/>
      <point x="302" y="629"/>
      <point x="254" y="629" type="curve" smooth="yes"/>
      <point x="219" y="629"/>
      <point x="148" y="608"/>
      <point x="148" y="542" type="curve" smooth="yes" name="hr04"/>
      <point x="148" y="478"/>
      <point x="192" y="447"/>
      <point x="265" y="405" type="curve"/>
      <point x="316" y="447"/>
      <point x="362" y="489"/>
    </contour>
  </outline>
</glyph>
<glyph name="nine" format="1">
  <advance width="535"/>
  <unicode hex="0039"/>
  <outline>
    <contour>
      <point x="252" y="257" type="curve" smooth="yes" name="hr00"/>
      <point x="124" y="257"/>
      <point x="51" y="361"/>
      <point x="51" y="473" type="curve" smooth="yes"/>
      <point x="51" y="568"/>
      <point x="108" y="691"/>
      <point x="256" y="691" type="curve" smooth="yes"/>
      <point x="461" y="691"/>
      <point x="480" y="476"/>
      <point x="480" y="328" type="curve" smooth="yes"/>
      <point x="480" y="123"/>
      <point x="381" y="-4"/>
      <point x="240" y="-4" type="curve" smooth="yes"/>
      <point x="146" y="-4"/>
      <point x="80" y="35"/>
      <point x="46" y="64" type="curve"/>
      <point x="89" y="124" type="line"/>
      <point x="121" y="93"/>
      <point x="178" y="59"/>
      <point x="233" y="59" type="curve" smooth="yes"/>
      <point x="315" y="59"/>
      <point x="403" y="119"/>
      <point x="407" y="329" type="curve"/>
      <point x="371" y="283"/>
      <point x="312" y="257"/>
    </contour>
    <contour>
      <point x="259" y="628" type="curve" smooth="yes"/>
      <point x="184" y="628"/>
      <point x="124" y="570"/>
      <point x="124" y="478" type="curve" smooth="yes"/>
      <point x="124" y="394"/>
      <point x="168" y="321"/>
      <point x="259" y="321" type="curve" smooth="yes"/>
      <point x="323" y="321"/>
      <point x="387" y="370"/>
      <point x="401" y="444" type="curve"/>
      <point x="387" y="553"/>
      <point x="345" y="628"/>
    </contour>
  </outline>
</glyph>
<glyph name="colon" format="1">
  <advance width="230"/>
  <unicode hex="003A"/>
  <outline>
    <contour>
      <point x="63" y="229" type="qcurve" name="hr00"/>
      <point x="63" y="250"/>
      <point x="94" y="281"/>
      <point x="116" y="281" type="qcurve"/>
      <point x="137" y="281"/>
      <point x="167" y="250"/>
      <point x="167" y="229" type="qcurve"/>
      <point x="167" y="207"/>
      <point x="137" y="177"/>
      <point x="116" y="177" type="qcurve"/>
      <point x="94" y="177"/>
      <point x="63" y="207"/>
    </contour>
    <contour>
      <point x="63" y="439" type="qcurve"/>
      <point x="63" y="460"/>
      <point x="94" y="491"/>
      <point x="116" y="491" type="qcurve"/>
      <point x="137" y="491"/>
      <point x="167" y="460"/>
      <point x="167" y="439" type="qcurve"/>
      <point x="167" y="417"/>
      <point x="137" y="387"/>
      <point x="116" y="387" type="qcurve"/>
      <point x="94" y="387"/>
      <point x="63" y="417"/>
    </contour>
  </outline>
</glyph>
<glyph name="semicolon" format="1">
  <advance width="228"/>
  <unicode hex="003B"/>
  <outline>
    <contour>
      <point x="56" y="-95" type="line" name="hr00"/>
      <point x="92" y="-113" type="line"/>
      <point x="107" y="-99"/>
      <point x="132" y="-58"/>
      <point x="152" y="-12"/>
      <point x="163" y="38"/>
      <point x="163" y="61" type="qcurve"/>
      <point x="163" y="83"/>
      <point x="156" y="120"/>
      <point x="154" y="128" type="qcurve"/>
      <point x="76" y="115" type="line"/>
      <point x="99" y="-1" type="line"/>
      <point x="56" y="-81" type="line"/>
    </contour>
    <contour>
      <point x="56" y="259" type="qcurve"/>
      <point x="56" y="280"/>
      <point x="87" y="311"/>
      <point x="109" y="311" type="qcurve"/>
      <point x="130" y="311"/>
      <point x="160" y="280"/>
      <point x="160" y="259" type="qcurve"/>
      <point x="160" y="237"/>
      <point x="130" y="207"/>
      <point x="109" y="207" type="qcurve"/>
      <point x="87" y="207"/>
      <point x="56" y="237"/>
    </contour>
  </outline>
</glyph>
<glyph name="less" format="1">
  <advance width="401"/>
  <unicode hex="003C"/>
  <outline>
    <contour>
      <point x="326" y="484" type="line" name="hr00"/>
      <point x="120" y="339" type="line"/>
      <point x="326" y="195" type="line"/>
      <point x="326" y="124" type="line"/>
      <point x="29" y="332" type="line"/>
      <point x="29" y="348" type="line"/>
      <point x="326" y="553" type="line"/>
    </contour>
  </outline>
</glyph>
<glyph name="greater" format="1">
  <advance width="401"/>
  <unicode hex="003E"/>
  <outline>
    <contour>
      <point x="75" y="553" type="line" name="hr00"/>
      <point x="372" y="348" type="line"/>
      <point x="372" y="332" type="line"/>
      <point x="75" y="124" type="line"/>
      <point x="75" y="195" type="line"/>
      <point x="281" y="339" type="line"/>
      <point x="75" y="484" type="line"/>
    </contour>
  </outline>
</glyph>
<glyph name="question" format="1">
  <advance width="397"/>
  <unicode hex="003F"/>
  <outline>
    <contour>
      <point x="104" y="237" type="line" name="hr00"/>
      <point x="103" y="244"/>
      <point x="102" y="254"/>
      <point x="102" y="266" type="curve" smooth="yes"/>
      <point x="102" y="412"/>
      <point x="291" y="399"/>
      <point x="291" y="543" type="curve" smooth="yes"/>
      <point x="291" y="580"/>
      <point x="269" y="627"/>
      <point x="192" y="627" type="curve" smooth="yes"/>
      <point x="172" y="627"/>
      <point x="144" y="623"/>
      <point x="125" y="618" type="curve"/>
      <point x="98" y="522" type="line"/>
      <point x="47" y="522" type="line" name="hr01"/>
      <point x="66" y="665" type="line"/>
      <point x="107" y="678"/>
      <point x="151" y="690"/>
      <point x="199" y="690" type="curve" smooth="yes"/>
      <point x="316" y="690"/>
      <point x="365" y="626"/>
      <point x="365" y="547" type="curve" smooth="yes"/>
      <point x="365" y="446"/>
      <point x="290" y="396"/>
      <point x="213" y="345" type="curve" smooth="yes"/>
      <point x="168" y="315"/>
      <point x="161" y="275"/>
      <point x="161" y="251" type="curve" smooth="yes"/>
      <point x="161" y="246"/>
      <point x="162" y="241"/>
      <point x="162" y="238" type="curve"/>
    </contour>
    <contour>
      <point x="87" y="49" type="curve" smooth="yes"/>
      <point x="87" y="77"/>
      <point x="111" y="101"/>
      <point x="140" y="101" type="curve" smooth="yes"/>
      <point x="168" y="101"/>
      <point x="191" y="77"/>
      <point x="191" y="49" type="curve" smooth="yes"/>
      <point x="191" y="20"/>
      <point x="168" y="-3"/>
      <point x="140" y="-3" type="curve" smooth="yes"/>
      <point x="111" y="-3"/>
      <point x="87" y="20"/>
    </contour>
  </outline>
</glyph>
<glyph name="at" format="1">
  <advance width="807"/>
  <unicode hex="0040"/>
  <outline>
    <contour>
      <point x="397" y="-4" type="curve" smooth="yes" name="hr00"/>
      <point x="295" y="-4"/>
      <point x="214" y="70"/>
      <point x="214" y="202" type="curve" smooth="yes"/>
      <point x="214" y="371"/>
      <point x="333" y="408"/>
      <point x="400" y="408" type="curve" smooth="yes"/>
      <point x="431" y="408"/>
      <point x="460" y="401"/>
      <point x="485" y="389" type="curve"/>
      <point x="528" y="409" type="line"/>
      <point x="550" y="403" type="line"/>
      <point x="550" y="85" type="line" smooth="yes"/>
      <point x="550" y="59"/>
      <point x="571" y="59"/>
      <point x="582" y="59" type="curve" smooth="yes"/>
      <point x="637" y="59"/>
      <point x="687" y="151"/>
      <point x="687" y="232" type="curve" smooth="yes"/>
      <point x="687" y="397"/>
      <point x="582" y="512"/>
      <point x="417" y="512" type="curve" smooth="yes"/>
      <point x="240" y="512"/>
      <point x="110" y="380"/>
      <point x="110" y="215" type="curve" smooth="yes"/>
      <point x="110" y="52"/>
      <point x="238" y="-97"/>
      <point x="402" y="-97" type="curve" smooth="yes"/>
      <point x="445" y="-97"/>
      <point x="489" y="-90"/>
      <point x="525" y="-75" type="curve"/>
      <point x="538" y="-79" type="line"/>
      <point x="521" y="-143" type="line"/>
      <point x="483" y="-154"/>
      <point x="443" y="-160"/>
      <point x="400" y="-160" type="curve" smooth="yes"/>
      <point x="194" y="-160"/>
      <point x="42" y="19"/>
      <point x="42" y="217" type="curve" smooth="yes"/>
      <point x="42" y="420"/>
      <point x="218" y="575"/>
      <point x="419" y="575" type="curve" smooth="yes"/>
      <point x="620" y="575"/>
      <point x="755" y="433"/>
      <point x="755" y="230" type="curve" smooth="yes"/>
      <point x="755" y="122"/>
      <point x="694" y="-4"/>
      <point x="579" y="-4" type="curve" smooth="yes"/>
      <point x="540" y="-4"/>
      <point x="513" y="8"/>
      <point x="498" y="28" type="curve"/>
      <point x="481" y="13"/>
      <point x="446" y="-4"/>
    </contour>
    <contour>
      <point x="405" y="345" type="curve" smooth="yes"/>
      <point x="366" y="345"/>
      <point x="281" y="327"/>
      <point x="281" y="206" type="curve" smooth="yes"/>
      <point x="281" y="84"/>
      <point x="354" y="59"/>
      <point x="404" y="59" type="curve" smooth="yes"/>
      <point x="435" y="59"/>
      <point x="464" y="71"/>
      <point x="482" y="84" type="curve"/>
      <point x="482" y="325" type="line"/>
      <point x="464" y="335"/>
      <point x="435" y="345"/>
    </contour>
  </outline>
</glyph>
<glyph name="B" format="1">
  <advance width="557"/>
  <unicode hex="0042"/>
  <outline>
    <contour>
      <point x="181" y="314" type="line" name="hr00"/>
      <point x="181" y="68" type="line"/>
      <point x="309" y="68" type="line" smooth="yes"/>
      <point x="409" y="68"/>
      <point x="439" y="132"/>
      <point x="439" y="195" type="curve" smooth="yes" name="hr01"/>
      <point x="439" y="263"/>
      <point x="378" y="314"/>
      <point x="293" y="314" type="curve" smooth="yes"/>
    </contour>
    <contour>
      <point x="409" y="505" type="curve" smooth="yes"/>
      <point x="409" y="569"/>
      <point x="369" y="623"/>
      <point x="261" y="623" type="curve" smooth="yes"/>
      <point x="181" y="623" type="line"/>
      <point x="181" y="377" type="line"/>
      <point x="276" y="377" type="line" smooth="yes"/>
      <point x="369" y="377"/>
      <point x="409" y="441"/>
    </contour>
    <contour>
      <point x="62" y="0" type="line"/>
      <point x="55" y="56" type="line"/>
      <point x="112" y="68" type="line"/>
      <point x="112" y="627" type="line"/>
      <point x="55" y="632" type="line"/>
      <point x="55" y="691" type="line"/>
      <point x="263" y="691" type="line" smooth="yes"/>
      <point x="405" y="691"/>
      <point x="480" y="612"/>
      <point x="480" y="510" type="curve" smooth="yes" name="hr02"/>
      <point x="480" y="418"/>
      <point x="432" y="375"/>
      <point x="392" y="354" type="curve"/>
      <point x="446" y="330"/>
      <point x="510" y="292"/>
      <point x="510" y="187" type="curve" smooth="yes"/>
      <point x="510" y="61"/>
      <point x="421" y="0"/>
      <point x="289" y="0" type="curve" smooth="yes"/>
    </contour>
  </outline>
</glyph>
<glyph name="C" format="1">
  <advance width="556"/>
  <unicode hex="0043"/>
  <outline>
    <contour>
      <point x="111" y="348" type="curve" name="hr00"/>
      <point x="113" y="192"/>
      <point x="207" y="64"/>
      <point x="372" y="64" type="curve" smooth="yes"/>
      <point x="417" y="64"/>
      <point x="467" y="78"/>
      <point x="500" y="99" type="curve"/>
      <point x="525" y="38" type="line"/>
      <point x="491" y="14"/>
      <point x="428" y="-4"/>
      <point x="373" y="-4" type="curve" smooth="yes"/>
      <point x="171" y="-4"/>
      <point x="40" y="145"/>
      <point x="40" y="346" type="curve" smooth="yes"/>
      <point x="40" y="534"/>
      <point x="176" y="691"/>
      <point x="375" y="691" type="curve" smooth="yes"/>
      <point x="417" y="691"/>
      <point x="454" y="686"/>
      <point x="492" y="678" type="curve"/>
      <point x="510" y="520" type="line"/>
      <point x="453" y="520" type="line"/>
      <point x="429" y="618" type="line"/>
      <point x="419" y="619"/>
      <point x="410" y="623"/>
      <point x="377" y="623" type="curve" smooth="yes"/>
      <point x="210" y="623"/>
      <point x="115" y="491"/>
    </contour>
  </outline>
</glyph>
<glyph name="D" format="1">
  <advance width="605"/>
  <unicode hex="0044"/>
  <outline>
    <contour>
      <point x="55" y="56" type="line" name="hr00"/>
      <point x="112" y="69" type="line"/>
      <point x="112" y="627" type="line"/>
      <point x="55" y="632" type="line"/>
      <point x="55" y="691" type="line"/>
      <point x="198" y="691" type="line" smooth="yes"/>
      <point x="404" y="691"/>
      <point x="561" y="582"/>
      <point x="561" y="349" type="curve" smooth="yes"/>
      <point x="561" y="112"/>
      <point x="424" y="0"/>
      <point x="211" y="0" type="curve" smooth="yes"/>
      <point x="62" y="0" type="line"/>
    </contour>
    <contour>
      <point x="490" y="348" type="curve" smooth="yes"/>
      <point x="490" y="511"/>
      <point x="387" y="623"/>
      <point x="208" y="623" type="curve" smooth="yes"/>
      <point x="181" y="623" type="line"/>
      <point x="181" y="68" type="line"/>
      <point x="225" y="68" type="line"/>
      <point x="435" y="68"/>
      <point x="490" y="211"/>
    </contour>
  </outline>
</glyph>
<glyph name="E" format="1">
  <advance width="523"/>
  <unicode hex="0045"/>
  <outline>
    <contour>
      <point x="55" y="632" type="line" name="hr00"/>
      <point x="55" y="691" type="line"/>
      <point x="453" y="691" type="line"/>
      <point x="473" y="520" type="line"/>
      <point x="425" y="520" type="line"/>
      <point x="391" y="623" type="line"/>
      <point x="181" y="623" type="line"/>
      <point x="181" y="377" type="line"/>
      <point x="343" y="377" type="line"/>
      <point x="343" y="314" type="line"/>
      <point x="181" y="314" type="line" name="hr01"/>
      <point x="181" y="68" type="line"/>
      <point x="401" y="68" type="line" name="hr02"/>
      <point x="436" y="171" type="line"/>
      <point x="483" y="171" type="line"/>
      <point x="464" y="0" type="line"/>
      <point x="62" y="0" type="line"/>
      <point x="55" y="56" type="line"/>
      <point x="112" y="68" type="line"/>
      <point x="112" y="627" type="line"/>
    </contour>
  </outline>
</glyph>
<glyph name="F" format="1">
  <advance width="492"/>
  <unicode hex="0046"/>
  <outline>
    <contour>
      <point x="328" y="0" type="line" name="hr00"/>
      <point x="61" y="0" type="line"/>
      <point x="55" y="56" type="line"/>
      <point x="112" y="68" type="line" name="hr01"/>
      <point x="112" y="627" type="line"/>
      <point x="55" y="632" type="line" name="hr02"/>
      <point x="55" y="691" type="line"/>
      <point x="453" y="691" type="line"/>
      <point x="474" y="520" type="line"/>
      <point x="426" y="520" type="line"/>
      <point x="391" y="624" type="line"/>
      <point x="181" y="624" type="line"/>
      <point x="181" y="377" type="line"/>
      <point x="343" y="377" type="line"/>
      <point x="343" y="314" type="line"/>
      <point x="181" y="314" type="line"/>
      <point x="181" y="72" type="line"/>
      <point x="333" y="51" type="line"/>
    </contour>
  </outline>
</glyph>
<glyph name="G" format="1">
  <advance width="607"/>
  <unicode hex="0047"/>
  <outline>
    <contour>
      <point x="544" y="313" type="line" name="hr00"/>
      <point x="544" y="17" type="line"/>
      <point x="495" y="2"/>
      <point x="440" y="-4"/>
      <point x="386" y="-4" type="curve" smooth="yes"/>
      <point x="185" y="-4"/>
      <point x="40" y="138"/>
      <point x="40" y="340" type="curve" smooth="yes"/>
      <point x="40" y="546"/>
      <point x="177" y="691"/>
      <point x="386" y="691" type="curve" smooth="yes"/>
      <point x="435" y="691"/>
      <point x="482" y="684"/>
      <point x="525" y="673" type="curve"/>
      <point x="536" y="519" type="line"/>
      <point x="473" y="519" type="line"/>
      <point x="450" y="618" type="line" name="hr01"/>
      <point x="430" y="621"/>
      <point x="400" y="623"/>
      <point x="381" y="623" type="curve"/>
      <point x="207" y="622"/>
      <point x="111" y="498"/>
      <point x="111" y="343" type="curve" smooth="yes"/>
      <point x="111" y="176"/>
      <point x="225" y="64"/>
      <point x="392" y="64" type="curve" smooth="yes"/>
      <point x="417" y="64"/>
      <point x="451" y="66"/>
      <point x="475" y="71" type="curve"/>
      <point x="475" y="238" type="line"/>
      <point x="352" y="252" type="line"/>
      <point x="370" y="313" type="line"/>
    </contour>
  </outline>
</glyph>
<glyph name="H" format="1">
  <advance width="656"/>
  <unicode hex="0048"/>
  <outline>
    <contour>
      <point x="476" y="64" type="line" name="hr00"/>
      <point x="476" y="324" type="line"/>
      <point x="180" y="324" type="line"/>
      <point x="180" y="64" type="line"/>
      <point x="238" y="60" type="line" name="hr01"/>
      <point x="238" y="0" type="line"/>
      <point x="62" y="0" type="line"/>
      <point x="57" y="56" type="line"/>
      <point x="112" y="64" type="line" name="hr02"/>
      <point x="112" y="627" type="line"/>
      <point x="54" y="631" type="line" name="hr03"/>
      <point x="54" y="691" type="line"/>
      <point x="231" y="691" type="line"/>
      <point x="235" y="635" type="line"/>
      <point x="180" y="627" type="line"/>
      <point x="180" y="387" type="line"/>
      <point x="476" y="387" type="line" name="hr04"/>
      <point x="476" y="627" type="line"/>
      <point x="418" y="631" type="line" name="hr05"/>
      <point x="418" y="691" type="line"/>
      <point x="594" y="691" type="line"/>
      <point x="599" y="635" type="line"/>
      <point x="544" y="627" type="line" name="hr06"/>
      <point x="544" y="64" type="line"/>
      <point x="602" y="60" type="line" name="hr07"/>
      <point x="602" y="0" type="line"/>
      <point x="425" y="0" type="line"/>
      <point x="421" y="56" type="line"/>
    </contour>
  </outline>
</glyph>
<glyph name="I" format="1">
  <advance width="293"/>
  <unicode hex="0049"/>
  <outline>
    <contour>
      <point x="112" y="64" type="line" name="hr00"/>
      <point x="112" y="627" type="line"/>
      <point x="55" y="631" type="line"/>
      <point x="55" y="691" type="line"/>
      <point x="231" y="691" type="line" name="hr01"/>
      <point x="235" y="635" type="line"/>
      <point x="181" y="627" type="line"/>
      <point x="181" y="64" type="line"/>
      <point x="238" y="60" type="line" name="hr02"/>
      <point x="238" y="0" type="line"/>
      <point x="62" y="0" type="line" name="hr03"/>
      <point x="58" y="56" type="line"/>
    </contour>
  </outline>
</glyph>
<glyph name="J" format="1">
  <advance width="358"/>
  <unicode hex="004A"/>
  <outline>
    <contour>
      <point x="116" y="635" type="line" name="hr00"/>
      <point x="122" y="691" type="line"/>
      <point x="315" y="691" type="line"/>
      <point x="315" y="631" type="line"/>
      <point x="257" y="627" type="line"/>
      <point x="257" y="144" type="line" smooth="yes"/>
      <point x="257" y="0"/>
      <point x="165" y="-4"/>
      <point x="133" y="-4" type="curve" smooth="yes"/>
      <point x="88" y="-4"/>
      <point x="43" y="16"/>
      <point x="11" y="44" type="curve"/>
      <point x="50" y="102" type="line"/>
      <point x="63" y="89"/>
      <point x="94" y="62"/>
      <point x="138" y="62" type="curve" smooth="yes"/>
      <point x="166" y="62"/>
      <point x="189" y="78"/>
      <point x="189" y="123" type="curve" smooth="yes"/>
      <point x="189" y="627" type="line"/>
    </contour>
  </outline>
</glyph>
<glyph name="K" format="1">
  <advance width="594"/>
  <unicode hex="004B"/>
  <outline>
    <contour>
      <point x="112" y="64" type="line" name="hr00"/>
      <point x="112" y="627" type="line"/>
      <point x="55" y="631" type="line"/>
      <point x="55" y="691" type="line"/>
      <point x="231" y="691" type="line" name="hr01"/>
      <point x="235" y="635" type="line"/>
      <point x="181" y="627" type="line"/>
      <point x="181" y="286" type="line"/>
      <point x="461" y="631" type="line"/>
      <point x="382" y="637" type="line"/>
      <point x="382" y="691" type="line"/>
      <point x="572" y="691" type="line"/>
      <point x="572" y="635" type="line"/>
      <point x="538" y="628" type="line"/>
      <point x="338" y="381" type="line"/>
      <point x="517" y="66" type="line"/>
      <point x="577" y="57" type="line"/>
      <point x="577" y="0" type="line"/>
      <point x="471" y="0" type="line"/>
      <point x="291" y="323" type="line"/>
      <point x="181" y="187" type="line"/>
      <point x="181" y="64" type="line"/>
      <point x="238" y="60" type="line" name="hr02"/>
      <point x="238" y="0" type="line"/>
      <point x="62" y="0" type="line" name="hr03"/>
      <point x="58" y="56" type="line"/>
    </contour>
  </outline>
</glyph>
<glyph name="L" format="1">
  <advance width="496"/>
  <unicode hex="004C"/>
  <outline>
    <contour>
      <point x="54" y="631" type="line" name="hr00"/>
      <point x="54" y="691" type="line"/>
      <point x="240" y="691" type="line"/>
      <point x="244" y="635" type="line"/>
      <point x="180" y="627" type="line"/>
      <point x="180" y="68" type="line"/>
      <point x="400" y="68" type="line"/>
      <point x="435" y="171" type="line"/>
      <point x="482" y="171" type="line"/>
      <point x="463" y="0" type="line"/>
      <point x="61" y="0" type="line"/>
      <point x="54" y="56" type="line"/>
      <point x="111" y="64" type="line"/>
      <point x="111" y="627" type="line"/>
    </contour>
  </outline>
</glyph>
<glyph name="M" format="1">
  <advance width="831"/>
  <unicode hex="004D"/>
  <outline>
    <contour>
      <point x="226" y="691" type="line" name="hr00"/>
      <point x="421" y="87" type="line"/>
      <point x="608" y="691" type="line"/>
      <point x="766" y="691" type="line"/>
      <point x="772" y="631" type="line"/>
      <point x="720" y="626" type="line"/>
      <point x="720" y="67" type="line"/>
      <point x="780" y="55" type="line"/>
      <point x="780" y="0" type="line"/>
      <point x="600" y="0" type="line"/>
      <point x="595" y="55" type="line"/>
      <point x="651" y="68" type="line"/>
      <point x="651" y="636" type="line"/>
      <point x="458" y="15" type="line"/>
      <point x="371" y="15" type="line"/>
      <point x="175" y="623" type="line"/>
      <point x="175" y="66" type="line"/>
      <point x="238" y="56" type="line"/>
      <point x="238" y="0" type="line"/>
      <point x="62" y="0" type="line"/>
      <point x="54" y="56" type="line"/>
      <point x="112" y="68" type="line"/>
      <point x="112" y="627" type="line"/>
      <point x="55" y="632" type="line"/>
      <point x="55" y="691" type="line"/>
    </contour>
  </outline>
</glyph>
<glyph name="N" format="1">
  <advance width="659"/>
  <unicode hex="004E"/>
  <outline>
    <contour>
      <point x="174" y="629" type="line" name="hr00"/>
      <point x="174" y="66" type="line"/>
      <point x="241" y="56" type="line"/>
      <point x="241" y="0" type="line"/>
      <point x="62" y="0" type="line"/>
      <point x="54" y="56" type="line"/>
      <point x="112" y="68" type="line"/>
      <point x="112" y="627" type="line"/>
      <point x="54" y="632" type="line"/>
      <point x="54" y="691" type="line"/>
      <point x="221" y="691" type="line"/>
      <point x="491" y="75" type="line"/>
      <point x="491" y="625" type="line"/>
      <point x="427" y="635" type="line"/>
      <point x="427" y="691" type="line"/>
      <point x="605" y="691" type="line"/>
      <point x="615" y="635" type="line"/>
      <point x="554" y="623" type="line"/>
      <point x="554" y="0" type="line"/>
      <point x="449" y="0" type="line"/>
    </contour>
  </outline>
</glyph>
<glyph name="O" format="1">
  <advance width="645"/>
  <unicode hex="004F"/>
  <outline>
    <contour>
      <point x="323" y="-4" type="curve" smooth="yes" name="hr00"/>
      <point x="133" y="-4"/>
      <point x="50" y="175"/>
      <point x="50" y="343" type="curve" smooth="yes"/>
      <point x="50" y="511"/>
      <point x="133" y="691"/>
      <point x="323" y="691" type="curve" smooth="yes"/>
      <point x="513" y="691"/>
      <point x="595" y="511"/>
      <point x="595" y="343" type="curve" smooth="yes"/>
      <point x="595" y="175"/>
      <point x="513" y="-4"/>
    </contour>
    <contour>
      <point x="121" y="341" type="curve" smooth="yes"/>
      <point x="121" y="205"/>
      <point x="177" y="64"/>
      <point x="323" y="64" type="curve" smooth="yes"/>
      <point x="469" y="64"/>
      <point x="524" y="205"/>
      <point x="524" y="341" type="curve" smooth="yes"/>
      <point x="524" y="477"/>
      <point x="469" y="623"/>
      <point x="323" y="623" type="curve" smooth="yes"/>
      <point x="177" y="623"/>
      <point x="121" y="477"/>
    </contour>
  </outline>
</glyph>
<glyph name="P" format="1">
  <advance width="520"/>
  <unicode hex="0050"/>
  <outline>
    <contour>
      <point x="235" y="332" type="line" smooth="yes" name="hr00"/>
      <point x="393" y="332"/>
      <point x="423" y="405"/>
      <point x="423" y="480" type="curve" smooth="yes"/>
      <point x="423" y="579"/>
      <point x="347" y="623"/>
      <point x="245" y="623" type="curve" smooth="yes"/>
      <point x="181" y="623" type="line"/>
      <point x="181" y="332" type="line"/>
    </contour>
    <contour>
      <point x="55" y="55" type="line"/>
      <point x="112" y="68" type="line"/>
      <point x="112" y="627" type="line"/>
      <point x="55" y="632" type="line"/>
      <point x="55" y="691" type="line"/>
      <point x="219" y="691" type="line" smooth="yes"/>
      <point x="436" y="691"/>
      <point x="494" y="580"/>
      <point x="494" y="481" type="curve" smooth="yes"/>
      <point x="494" y="328"/>
      <point x="370" y="264"/>
      <point x="238" y="264" type="curve" smooth="yes"/>
      <point x="181" y="264" type="line"/>
      <point x="181" y="70" type="line"/>
      <point x="321" y="51" type="line"/>
      <point x="321" y="0" type="line"/>
      <point x="62" y="0" type="line"/>
    </contour>
  </outline>
</glyph>
<glyph name="Q" format="1">
  <advance width="649"/>
  <unicode hex="0051"/>
  <outline>
    <contour>
      <point x="283" y="-29" type="line" name="hr00"/>
      <point x="496" y="-102" type="line"/>
      <point x="501" y="-130" type="line"/>
      <point x="417" y="-191" type="line"/>
      <point x="363" y="-147"/>
      <point x="311" y="-103"/>
      <point x="260" y="-56" type="curve"/>
    </contour>
    <contour>
      <point x="325" y="-4" type="curve" smooth="yes"/>
      <point x="135" y="-4"/>
      <point x="50" y="175"/>
      <point x="50" y="343" type="curve" smooth="yes"/>
      <point x="50" y="511"/>
      <point x="135" y="691"/>
      <point x="325" y="691" type="curve" smooth="yes"/>
      <point x="515" y="691"/>
      <point x="600" y="511"/>
      <point x="600" y="343" type="curve" smooth="yes"/>
      <point x="600" y="175"/>
      <point x="515" y="-4"/>
    </contour>
    <contour>
      <point x="123" y="341" type="curve" smooth="yes"/>
      <point x="123" y="205"/>
      <point x="179" y="64"/>
      <point x="325" y="64" type="curve" smooth="yes"/>
      <point x="471" y="64"/>
      <point x="526" y="205"/>
      <point x="526" y="341" type="curve" smooth="yes"/>
      <point x="526" y="477"/>
      <point x="471" y="624"/>
      <point x="325" y="624" type="curve" smooth="yes"/>
      <point x="179" y="624"/>
      <point x="123" y="477"/>
    </contour>
  </outline>
</glyph>
<glyph name="R" format="1">
  <advance width="544"/>
  <unicode hex="0052"/>
  <outline>
    <contour>
      <point x="55" y="55" type="line" name="hr00"/>
      <point x="112" y="68" type="line"/>
      <point x="112" y="627" type="line"/>
      <point x="55" y="632" type="line"/>
      <point x="55" y="691" type="line"/>
      <point x="229" y="691" type="line" smooth="yes"/>
      <point x="383" y="691"/>
      <point x="494" y="627"/>
      <point x="494" y="481" type="curve" smooth="yes"/>
      <point x="494" y="373"/>
      <point x="428" y="310"/>
      <point x="343" y="282" type="curve"/>
      <point x="445" y="65" type="line"/>
      <point x="510" y="51" type="line"/>
      <point x="510" y="0" type="line"/>
      <point x="392" y="0" type="line"/>
      <point x="272" y="266" type="line"/>
      <point x="257" y="265"/>
      <point x="242" y="264"/>
      <point x="228" y="264" type="curve" smooth="yes"/>
      <point x="181" y="264" type="line"/>
      <point x="181" y="70" type="line"/>
      <point x="259" y="51" type="line"/>
      <point x="259" y="0" type="line"/>
      <point x="62" y="0" type="line"/>
    </contour>
    <contour>
      <point x="235" y="332" type="line" smooth="yes"/>
      <point x="334" y="332"/>
      <point x="423" y="363"/>
      <point x="423" y="480" type="curve" smooth="yes"/>
      <point x="423" y="582"/>
      <point x="350" y="623"/>
      <point x="255" y="623" type="curve" smooth="yes"/>
      <point x="181" y="623" type="line"/>
      <point x="181" y="332" type="line"/>
    </contour>
  </outline>
</glyph>
<glyph name="S" format="1">
  <advance width="491"/>
  <unicode hex="0053"/>
  <outline>
    <contour>
      <point x="112" y="183" type="line" name="hr00"/>
      <point x="139" y="84" type="line"/>
      <point x="164" y="72"/>
      <point x="204" y="64"/>
      <point x="233" y="64" type="curve" smooth="yes"/>
      <point x="302" y="64"/>
      <point x="375" y="101"/>
      <point x="375" y="181" type="curve" smooth="yes"/>
      <point x="375" y="232"/>
      <point x="357" y="270"/>
      <point x="289" y="304" type="curve" smooth="yes"/>
      <point x="183" y="356"/>
      <point x="54" y="388"/>
      <point x="54" y="520" type="curve" smooth="yes"/>
      <point x="54" y="626"/>
      <point x="149" y="691"/>
      <point x="257" y="691" type="curve" smooth="yes"/>
      <point x="313" y="691"/>
      <point x="362" y="678"/>
      <point x="411" y="659" type="curve"/>
      <point x="424" y="505" type="line"/>
      <point x="369" y="505" type="line"/>
      <point x="327" y="611" type="line"/>
      <point x="302" y="622"/>
      <point x="277" y="624"/>
      <point x="249" y="624" type="curve" smooth="yes"/>
      <point x="189" y="624"/>
      <point x="125" y="592"/>
      <point x="125" y="528" type="curve" smooth="yes"/>
      <point x="125" y="439"/>
      <point x="219" y="415"/>
      <point x="296" y="380" type="curve" smooth="yes"/>
      <point x="417" y="324"/>
      <point x="446" y="258"/>
      <point x="446" y="189" type="curve" smooth="yes"/>
      <point x="446" y="67"/>
      <point x="346" y="-4"/>
      <point x="233" y="-4" type="curve" smooth="yes"/>
      <point x="176" y="-4"/>
      <point x="116" y="5"/>
      <point x="65" y="29" type="curve"/>
      <point x="54" y="183" type="line"/>
    </contour>
  </outline>
</glyph>
<glyph name="T" format="1">
  <advance width="547"/>
  <unicode hex="0054"/>
  <outline>
    <contour>
      <point x="127" y="0" type="line" name="hr00"/>
      <point x="127" y="52" type="line"/>
      <point x="240" y="70" type="line"/>
      <point x="240" y="623" type="line"/>
      <point x="103" y="623" type="line"/>
      <point x="64" y="526" type="line" name="hr01"/>
      <point x="18" y="526" type="line"/>
      <point x="41" y="691" type="line"/>
      <point x="506" y="691" type="line"/>
      <point x="529" y="526" type="line"/>
      <point x="483" y="526" type="line"/>
      <point x="444" y="623" type="line" name="hr02"/>
      <point x="308" y="623" type="line"/>
      <point x="308" y="70" type="line"/>
      <point x="423" y="52" type="line"/>
      <point x="423" y="0" type="line"/>
    </contour>
  </outline>
</glyph>
<glyph name="V" format="1">
  <advance width="562"/>
  <unicode hex="0056"/>
  <outline>
    <contour>
      <point x="205" y="691" type="line" name="hr00"/>
      <point x="205" y="647" type="line"/>
      <point x="117" y="626" type="line"/>
      <point x="284" y="111" type="line"/>
      <point x="455" y="629" type="line"/>
      <point x="364" y="646" type="line"/>
      <point x="364" y="691" type="line"/>
      <point x="560" y="691" type="line"/>
      <point x="560" y="644" type="line"/>
      <point x="520" y="626" type="line"/>
      <point x="312" y="0" type="line"/>
      <point x="247" y="0" type="line"/>
      <point x="44" y="626" type="line"/>
      <point x="8" y="644" type="line"/>
      <point x="8" y="691" type="line"/>
    </contour>
  </outline>
</glyph>
<glyph name="W" format="1">
  <advance width="856"/>
  <unicode hex="0057"/>
  <outline>
    <contour>
      <point x="201" y="691" type="line" name="hr00"/>
      <point x="201" y="647" type="line"/>
      <point x="123" y="626" type="line"/>
      <point x="236" y="88" type="line"/>
      <point x="391" y="668" type="line"/>
      <point x="476" y="668" type="line"/>
      <point x="628" y="82" type="line"/>
      <point x="742" y="629" type="line"/>
      <point x="664" y="646" type="line"/>
      <point x="664" y="691" type="line"/>
      <point x="846" y="691" type="line"/>
      <point x="846" y="644" type="line"/>
      <point x="806" y="626" type="line"/>
      <point x="673" y="0" type="line"/>
      <point x="582" y="0" type="line"/>
      <point x="431" y="576" type="line"/>
      <point x="281" y="0" type="line"/>
      <point x="181" y="0" type="line"/>
      <point x="52" y="626" type="line"/>
      <point x="13" y="644" type="line"/>
      <point x="13" y="691" type="line"/>
    </contour>
  </outline>
</glyph>
<glyph name="X" format="1">
  <advance width="566"/>
  <unicode hex="0058"/>
  <outline>
    <contour>
      <point x="20" y="0" type="line" name="hr00"/>
      <point x="20" y="54" type="line"/>
      <point x="65" y="61" type="line"/>
      <point x="240" y="347" type="line"/>
      <point x="69" y="627" type="line"/>
      <point x="22" y="638" type="line"/>
      <point x="22" y="691" type="line"/>
      <point x="217" y="691" type="line"/>
      <point x="217" y="648" type="line"/>
      <point x="146" y="633" type="line"/>
      <point x="288" y="401" type="line"/>
      <point x="417" y="633" type="line"/>
      <point x="358" y="643" type="line"/>
      <point x="358" y="691" type="line"/>
      <point x="537" y="691" type="line"/>
      <point x="537" y="637" type="line"/>
      <point x="492" y="630" type="line"/>
      <point x="325" y="341" type="line"/>
      <point x="490" y="75" type="line"/>
      <point x="554" y="52" type="line"/>
      <point x="554" y="0" type="line"/>
      <point x="356" y="0" type="line"/>
      <point x="356" y="52" type="line"/>
      <point x="418" y="58" type="line"/>
      <point x="276" y="289" type="line"/>
      <point x="139" y="58" type="line"/>
      <point x="197" y="48" type="line"/>
      <point x="197" y="0" type="line"/>
    </contour>
  </outline>
</glyph>
<glyph name="Y" format="1">
  <advance width="539"/>
  <unicode hex="0059"/>
  <outline>
    <contour>
      <point x="189" y="691" type="line" name="hr00"/>
      <point x="189" y="638" type="line"/>
      <point x="126" y="628" type="line"/>
      <point x="278" y="330" type="line"/>
      <point x="418" y="629" type="line"/>
      <point x="357" y="637" type="line"/>
      <point x="357" y="691" type="line"/>
      <point x="529" y="691" type="line"/>
      <point x="529" y="631" type="line"/>
      <point x="486" y="621" type="line"/>
      <point x="305" y="243" type="line"/>
      <point x="305" y="70" type="line"/>
      <point x="420" y="52" type="line"/>
      <point x="411" y="0" type="line"/>
      <point x="131" y="0" type="line"/>
      <point x="121" y="52" type="line"/>
      <point x="237" y="70" type="line"/>
      <point x="237" y="257" type="line"/>
      <point x="50" y="622" type="line"/>
      <point x="7" y="631" type="line"/>
      <point x="7" y="691" type="line"/>
    </contour>
  </outline>
</glyph>
<glyph name="Z" format="1">
  <advance width="542"/>
  <unicode hex="005A"/>
  <outline>
    <contour>
      <point x="487" y="604" type="line" name="hr00"/>
      <point x="127" y="68" type="line"/>
      <point x="426" y="68" type="line"/>
      <point x="446" y="170" type="line"/>
      <point x="493" y="170" type="line"/>
      <point x="493" y="0" type="line"/>
      <point x="56" y="0" type="line"/>
      <point x="47" y="75" type="line"/>
      <point x="415" y="623" type="line"/>
      <point x="119" y="623" type="line"/>
      <point x="99" y="521" type="line"/>
      <point x="52" y="521" type="line"/>
      <point x="52" y="691" type="line"/>
      <point x="477" y="691" type="line"/>
    </contour>
  </outline>
</glyph>
<glyph name="bracketleft" format="1">
  <advance width="306"/>
  <unicode hex="005B"/>
  <outline>
    <contour>
      <point x="88" y="669" type="line" name="hr00"/>
      <point x="294" y="669" type="line" smooth="yes"/>
      <point x="298" y="669"/>
      <point x="300" y="666"/>
      <point x="300" y="661" type="curve" smooth="yes"/>
      <point x="300" y="607" type="line"/>
      <point x="149" y="607" type="line"/>
      <point x="149" y="-117" type="line"/>
      <point x="300" y="-117" type="line" name="hr01"/>
      <point x="300" y="-171" type="line" smooth="yes"/>
      <point x="300" y="-176"/>
      <point x="298" y="-179"/>
      <point x="294" y="-179" type="curve" smooth="yes" name="hr02"/>
      <point x="94" y="-179" type="line"/>
      <point x="81" y="-163" type="line"/>
      <point x="81" y="655" type="line"/>
    </contour>
  </outline>
</glyph>
<glyph name="backslash" format="1">
  <advance width="453"/>
  <unicode hex="005C"/>
  <outline>
    <contour>
      <point x="23" y="681" type="line" name="hr00"/>
      <point x="24" y="691" type="line"/>
      <point x="90" y="691" type="line"/>
      <point x="429" y="13" type="line"/>
      <point x="426" y="0" type="line"/>
      <point x="365" y="0" type="line"/>
    </contour>
  </outline>
</glyph>
<glyph name="bracketright" format="1">
  <advance width="306"/>
  <unicode hex="005D"/>
  <outline>
    <contour>
      <point x="225" y="655" type="line" name="hr00"/>
      <point x="225" y="-163" type="line"/>
      <point x="212" y="-179" type="line"/>
      <point x="12" y="-179" type="line" smooth="yes"/>
      <point x="8" y="-179"/>
      <point x="6" y="-176"/>
      <point x="6" y="-171" type="curve" smooth="yes" name="hr01"/>
      <point x="6" y="-117" type="line"/>
      <point x="157" y="-117" type="line" name="hr02"/>
      <point x="157" y="607" type="line"/>
      <point x="6" y="607" type="line"/>
      <point x="6" y="661" type="line" smooth="yes"/>
      <point x="6" y="666"/>
      <point x="8" y="669"/>
      <point x="12" y="669" type="curve" smooth="yes"/>
      <point x="218" y="669" type="line"/>
    </contour>
  </outline>
</glyph>
<glyph name="asciicircum" format="1">
  <advance width="352"/>
  <unicode hex="005E"/>
  <outline>
    <contour>
      <point x="52" y="582" type="line" name="hr00"/>
      <point x="169" y="724" type="line"/>
      <point x="184" y="724" type="line"/>
      <point x="300" y="584" type="line"/>
      <point x="297" y="577" type="line"/>
      <point x="242" y="577" type="line"/>
      <point x="176" y="646" type="line"/>
      <point x="110" y="577" type="line"/>
      <point x="56" y="577" type="line"/>
    </contour>
  </outline>
</glyph>
<glyph name="underscore" format="1">
  <advance width="573"/>
  <unicode hex="005F"/>
  <outline>
    <contour>
      <point x="10" y="-63" type="line" name="hr00"/>
      <point x="10" y="-13" type="line"/>
      <point x="22" y="0" type="line"/>
      <point x="557" y="0" type="line" smooth="yes"/>
      <point x="561" y="0"/>
      <point x="563" y="-2"/>
      <point x="563" y="-7" type="curve" smooth="yes"/>
      <point x="563" y="-63" type="line"/>
    </contour>
  </outline>
</glyph>
<glyph name="grave" format="1">
  <advance width="284"/>
  <unicode hex="0060"/>
  <outline>
    <contour>
      <point x="195" y="553" type="line" name="hr00"/>
      <point x="55" y="673" type="line"/>
      <point x="99" y="726" type="line"/>
      <point x="125" y="726" type="line"/>
      <point x="229" y="586" type="line"/>
    </contour>
  </outline>
</glyph>
<glyph name="b" format="1">
  <advance width="484"/>
  <unicode hex="0062"/>
  <outline>
    <contour>
      <point x="138" y="697" type="line" name="hr00"/>
      <point x="138" y="442" type="line"/>
      <point x="167" y="466"/>
      <point x="207" y="479"/>
      <point x="247" y="479" type="curve" smooth="yes"/>
      <point x="380" y="479"/>
      <point x="442" y="368"/>
      <point x="442" y="242" type="curve" smooth="yes"/>
      <point x="442" y="116"/>
      <point x="377" y="-4"/>
      <point x="235" y="-4" type="curve" smooth="yes"/>
      <point x="196" y="-4"/>
      <point x="159" y="4"/>
      <point x="127" y="22" type="curve"/>
      <point x="114" y="13"/>
      <point x="97" y="0"/>
      <point x="91" y="0" type="curve" smooth="yes"/>
      <point x="75" y="0" type="line"/>
      <point x="75" y="661" type="line"/>
      <point x="14" y="657" type="line"/>
      <point x="6" y="709" type="line" name="hr01"/>
      <point x="111" y="727" type="line"/>
    </contour>
    <contour>
      <point x="233" y="53" type="curve" smooth="yes"/>
      <point x="341" y="53"/>
      <point x="376" y="148"/>
      <point x="376" y="237" type="curve" smooth="yes" name="hr02"/>
      <point x="376" y="323"/>
      <point x="343" y="422"/>
      <point x="241" y="422" type="curve" smooth="yes"/>
      <point x="204" y="422"/>
      <point x="156" y="402"/>
      <point x="138" y="371" type="curve"/>
      <point x="138" y="85" type="line"/>
      <point x="164" y="64"/>
      <point x="199" y="53"/>
    </contour>
  </outline>
</glyph>
<glyph name="c" format="1">
  <advance width="405"/>
  <unicode hex="0063"/>
  <outline>
    <contour>
      <point x="339" y="373" type="line" name="hr00"/>
      <point x="280" y="420" type="line"/>
      <point x="270" y="422"/>
      <point x="253" y="422"/>
      <point x="244" y="422" type="curve" smooth="yes"/>
      <point x="136" y="422"/>
      <point x="109" y="322"/>
      <point x="109" y="232" type="curve" smooth="yes"/>
      <point x="109" y="143"/>
      <point x="142" y="53"/>
      <point x="258" y="53" type="curve" smooth="yes"/>
      <point x="297" y="53"/>
      <point x="328" y="61"/>
      <point x="360" y="80" type="curve"/>
      <point x="377" y="31" type="line"/>
      <point x="342" y="5"/>
      <point x="295" y="-4"/>
      <point x="248" y="-4" type="curve" smooth="yes"/>
      <point x="105" y="-4"/>
      <point x="43" y="110"/>
      <point x="43" y="233" type="curve" smooth="yes"/>
      <point x="43" y="361"/>
      <point x="103" y="479"/>
      <point x="249" y="479" type="curve" smooth="yes"/>
      <point x="308" y="479"/>
      <point x="358" y="460"/>
      <point x="383" y="442" type="curve"/>
    </contour>
  </outline>
</glyph>
<glyph name="d" format="1">
  <advance width="495"/>
  <unicode hex="0064"/>
  <outline>
    <contour>
      <point x="285" y="657" type="line" name="hr00"/>
      <point x="277" y="709" type="line"/>
      <point x="382" y="727" type="line"/>
      <point x="409" y="697" type="line"/>
      <point x="409" y="79" type="line" smooth="yes"/>
      <point x="409" y="64"/>
      <point x="414" y="50"/>
      <point x="432" y="50" type="curve" smooth="yes"/>
      <point x="439" y="50"/>
      <point x="447" y="53"/>
      <point x="453" y="55" type="curve"/>
      <point x="464" y="15" type="line"/>
      <point x="449" y="1"/>
      <point x="420" y="-4"/>
      <point x="408" y="-4" type="curve" smooth="yes"/>
      <point x="374" y="-4"/>
      <point x="359" y="16"/>
      <point x="352" y="37" type="curve"/>
      <point x="322" y="9"/>
      <point x="282" y="-4"/>
      <point x="240" y="-4" type="curve" smooth="yes"/>
      <point x="105" y="-4"/>
      <point x="42" y="118"/>
      <point x="42" y="235" type="curve" smooth="yes"/>
      <point x="42" y="369"/>
      <point x="110" y="479"/>
      <point x="250" y="479" type="curve" smooth="yes"/>
      <point x="291" y="479"/>
      <point x="322" y="470"/>
      <point x="346" y="459" type="curve"/>
      <point x="346" y="661" type="line"/>
    </contour>
    <contour>
      <point x="254" y="422" type="curve" smooth="yes"/>
      <point x="146" y="422"/>
      <point x="108" y="329"/>
      <point x="108" y="239" type="curve" smooth="yes"/>
      <point x="108" y="154"/>
      <point x="144" y="53"/>
      <point x="246" y="53" type="curve" smooth="yes"/>
      <point x="284" y="53"/>
      <point x="325" y="71"/>
      <point x="346" y="104" type="curve"/>
      <point x="346" y="387" type="line"/>
      <point x="323" y="412"/>
      <point x="288" y="422"/>
    </contour>
  </outline>
</glyph>
<glyph name="f" format="1">
  <advance width="311"/>
  <unicode hex="0066"/>
  <outline>
    <contour>
      <point x="38" y="422" type="line" name="hr00"/>
      <point x="24" y="468" type="line"/>
      <point x="31" y="479" type="line"/>
      <point x="101" y="479" type="line"/>
      <point x="101" y="596" type="line" smooth="yes"/>
      <point x="101" y="673"/>
      <point x="137" y="727"/>
      <point x="223" y="727" type="curve" smooth="yes"/>
      <point x="263" y="727"/>
      <point x="302" y="710"/>
      <point x="335" y="690" type="curve"/>
      <point x="286" y="622" type="line"/>
      <point x="230" y="670" type="line"/>
      <point x="224" y="670"/>
      <point x="218" y="671"/>
      <point x="212" y="671" type="curve" smooth="yes"/>
      <point x="170" y="671"/>
      <point x="164" y="639"/>
      <point x="164" y="608" type="curve" smooth="yes"/>
      <point x="164" y="479" type="line"/>
      <point x="274" y="479" type="line" smooth="yes"/>
      <point x="277" y="479"/>
      <point x="279" y="476"/>
      <point x="279" y="473" type="curve" smooth="yes"/>
      <point x="279" y="422" type="line"/>
      <point x="164" y="422" type="line"/>
      <point x="164" y="61" type="line"/>
      <point x="274" y="45" type="line"/>
      <point x="274" y="0" type="line"/>
      <point x="50" y="0" type="line"/>
      <point x="42" y="44" type="line"/>
      <point x="101" y="58" type="line"/>
      <point x="101" y="422" type="line"/>
    </contour>
  </outline>
</glyph>
<glyph name="g" format="1">
  <advance width="476"/>
  <unicode hex="0067"/>
  <outline>
    <contour>
      <point x="226" y="479" type="curve" smooth="yes" name="hr00"/>
      <point x="274" y="479"/>
      <point x="315" y="464"/>
      <point x="346" y="438" type="curve"/>
      <point x="437" y="483" type="line"/>
      <point x="456" y="480" type="line"/>
      <point x="466" y="412" type="line"/>
      <point x="379" y="401" type="line" name="hr01"/>
      <point x="396" y="374"/>
      <point x="406" y="341"/>
      <point x="406" y="304" type="curve" smooth="yes"/>
      <point x="406" y="200"/>
      <point x="331" y="128"/>
      <point x="226" y="128" type="curve" smooth="yes"/>
      <point x="208" y="128"/>
      <point x="190" y="130"/>
      <point x="174" y="134" type="curve"/>
      <point x="153" y="103" type="line"/>
      <point x="156" y="82" type="line"/>
      <point x="156" y="82"/>
      <point x="229" y="62"/>
      <point x="261" y="54" type="curve" smooth="yes" name="hr02"/>
      <point x="345" y="32"/>
      <point x="421" y="3"/>
      <point x="421" y="-94" type="curve" smooth="yes"/>
      <point x="421" y="-209"/>
      <point x="319" y="-265"/>
      <point x="217" y="-265" type="curve" smooth="yes"/>
      <point x="116" y="-265"/>
      <point x="22" y="-209"/>
      <point x="22" y="-105" type="curve" smooth="yes"/>
      <point x="22" y="-35"/>
      <point x="70" y="10"/>
      <point x="114" y="31" type="curve" name="hr03"/>
      <point x="94" y="44"/>
      <point x="81" y="61"/>
      <point x="81" y="87" type="curve" smooth="yes"/>
      <point x="81" y="115"/>
      <point x="99" y="139"/>
      <point x="118" y="159" type="curve"/>
      <point x="74" y="190"/>
      <point x="47" y="240"/>
      <point x="47" y="303" type="curve" smooth="yes"/>
      <point x="47" y="407"/>
      <point x="121" y="479"/>
    </contour>
    <contour>
      <point x="85" y="-103" type="curve" smooth="yes"/>
      <point x="85" y="-172"/>
      <point x="165" y="-202"/>
      <point x="220" y="-202" type="curve" smooth="yes"/>
      <point x="291" y="-202"/>
      <point x="364" y="-165"/>
      <point x="364" y="-102" type="curve" smooth="yes"/>
      <point x="364" y="-25"/>
      <point x="260" y="-15"/>
      <point x="178" y="6" type="curve" name="hr04"/>
      <point x="129" y="-11"/>
      <point x="85" y="-49"/>
    </contour>
    <contour>
      <point x="226" y="422" type="curve" smooth="yes"/>
      <point x="154" y="422"/>
      <point x="113" y="372"/>
      <point x="113" y="304" type="curve" smooth="yes"/>
      <point x="113" y="236"/>
      <point x="154" y="185"/>
      <point x="226" y="185" type="curve" smooth="yes"/>
      <point x="298" y="185"/>
      <point x="340" y="236"/>
      <point x="340" y="304" type="curve" smooth="yes"/>
      <point x="340" y="372"/>
      <point x="298" y="422"/>
    </contour>
  </outline>
</glyph>
<glyph name="h" format="1">
  <advance width="498"/>
  <unicode hex="0068"/>
  <outline>
    <contour>
      <point x="151" y="697" type="line" name="hr00"/>
      <point x="151" y="441" type="line"/>
      <point x="186" y="465"/>
      <point x="228" y="479"/>
      <point x="271" y="479" type="curve" smooth="yes"/>
      <point x="363" y="479"/>
      <point x="414" y="429"/>
      <point x="414" y="334" type="curve" smooth="yes"/>
      <point x="414" y="58" type="line"/>
      <point x="475" y="44" type="line"/>
      <point x="475" y="0" type="line"/>
      <point x="295" y="0" type="line"/>
      <point x="291" y="44" type="line"/>
      <point x="351" y="58" type="line"/>
      <point x="351" y="327" type="line" smooth="yes"/>
      <point x="351" y="391"/>
      <point x="322" y="422"/>
      <point x="266" y="422" type="curve" smooth="yes"/>
      <point x="225" y="422"/>
      <point x="181" y="406"/>
      <point x="151" y="379" type="curve"/>
      <point x="151" y="58" type="line"/>
      <point x="207" y="45" type="line"/>
      <point x="207" y="0" type="line"/>
      <point x="35" y="0" type="line"/>
      <point x="30" y="44" type="line"/>
      <point x="88" y="58" type="line"/>
      <point x="88" y="661" type="line"/>
      <point x="33" y="661" type="line"/>
      <point x="24" y="710" type="line"/>
      <point x="122" y="727" type="line"/>
    </contour>
  </outline>
</glyph>
<glyph name="i" format="1">
  <advance width="249"/>
  <unicode hex="0069"/>
  <outline>
    <contour>
      <point x="160" y="451" type="line" name="hr00"/>
      <point x="160" y="59" type="line"/>
      <point x="221" y="44" type="line"/>
      <point x="221" y="0" type="line"/>
      <point x="46" y="0" type="line"/>
      <point x="37" y="43" type="line"/>
      <point x="97" y="58" type="line"/>
      <point x="97" y="416" type="line"/>
      <point x="43" y="412" type="line"/>
      <point x="34" y="463" type="line"/>
      <point x="133" y="481" type="line"/>
    </contour>
    <contour>
      <point x="59" y="671" type="curve" smooth="yes"/>
      <point x="59" y="642"/>
      <point x="82" y="619"/>
      <point x="111" y="619" type="curve" smooth="yes"/>
      <point x="140" y="619"/>
      <point x="164" y="642"/>
      <point x="164" y="671" type="curve" smooth="yes"/>
      <point x="164" y="700"/>
      <point x="140" y="724"/>
      <point x="111" y="724" type="curve" smooth="yes"/>
      <point x="82" y="724"/>
      <point x="59" y="700"/>
    </contour>
  </outline>
</glyph>
<glyph name="j" format="1">
  <advance width="228"/>
  <unicode hex="006A"/>
  <outline>
    <contour>
      <point x="53" y="671" type="curve" smooth="yes" name="hr00"/>
      <point x="53" y="642"/>
      <point x="76" y="619"/>
      <point x="105" y="619" type="curve" smooth="yes"/>
      <point x="134" y="619"/>
      <point x="158" y="642"/>
      <point x="158" y="671" type="curve" smooth="yes"/>
      <point x="158" y="700"/>
      <point x="134" y="724"/>
      <point x="105" y="724" type="curve" smooth="yes"/>
      <point x="76" y="724"/>
      <point x="53" y="700"/>
    </contour>
    <contour>
      <point x="23" y="411" type="line"/>
      <point x="15" y="462" type="line"/>
      <point x="128" y="481" type="line"/>
      <point x="155" y="451" type="line"/>
      <point x="155" y="-166" type="line" smooth="yes"/>
      <point x="155" y="-218"/>
      <point x="136" y="-273"/>
      <point x="59" y="-273" type="curve" smooth="yes"/>
      <point x="16" y="-273"/>
      <point x="-15" y="-248"/>
      <point x="-26" y="-238" type="curve"/>
      <point x="7" y="-190" type="line"/>
      <point x="18" y="-201"/>
      <point x="37" y="-217"/>
      <point x="60" y="-217" type="curve" smooth="yes"/>
      <point x="90" y="-217"/>
      <point x="92" y="-189"/>
      <point x="92" y="-156" type="curve" smooth="yes"/>
      <point x="92" y="416" type="line"/>
    </contour>
  </outline>
</glyph>
<glyph name="k" format="1">
  <advance width="458"/>
  <unicode hex="006B"/>
  <outline>
    <contour>
      <point x="151" y="697" type="line" name="hr00"/>
      <point x="151" y="271" type="line"/>
      <point x="327" y="434" type="line"/>
      <point x="286" y="434" type="line"/>
      <point x="278" y="481" type="line"/>
      <point x="416" y="481" type="line"/>
      <point x="430" y="454" type="line"/>
      <point x="262" y="297" type="line"/>
      <point x="385" y="55" type="line"/>
      <point x="437" y="44" type="line"/>
      <point x="437" y="0" type="line"/>
      <point x="338" y="0" type="line"/>
      <point x="210" y="250" type="line"/>
      <point x="151" y="194" type="line"/>
      <point x="151" y="58" type="line"/>
      <point x="207" y="45" type="line"/>
      <point x="207" y="0" type="line"/>
      <point x="35" y="0" type="line"/>
      <point x="30" y="44" type="line"/>
      <point x="88" y="58" type="line"/>
      <point x="88" y="661" type="line"/>
      <point x="33" y="661" type="line"/>
      <point x="24" y="710" type="line"/>
      <point x="124" y="727" type="line"/>
    </contour>
  </outline>
</glyph>
<glyph name="l" format="1">
  <advance width="241"/>
  <unicode hex="006C"/>
  <outline>
    <contour>
      <point x="152" y="697" type="line" name="hr00"/>
      <point x="152" y="57" type="line"/>
      <point x="213" y="44" type="line"/>
      <point x="213" y="0" type="line"/>
      <point x="30" y="0" type="line"/>
      <point x="25" y="44" type="line"/>
      <point x="89" y="58" type="line"/>
      <point x="89" y="661" type="line"/>
      <point x="34" y="661" type="line"/>
      <point x="25" y="710" type="line"/>
      <point x="123" y="727" type="line"/>
    </contour>
  </outline>
</glyph>
<glyph name="m" format="1">
  <advance width="767"/>
  <unicode hex="006D"/>
  <outline>
    <contour>
      <point x="683" y="58" type="line" name="hr00"/>
      <point x="744" y="44" type="line"/>
      <point x="744" y="0" type="line"/>
      <point x="564" y="0" type="line"/>
      <point x="560" y="44" type="line"/>
      <point x="620" y="58" type="line" name="hr01"/>
      <point x="620" y="327" type="line" smooth="yes"/>
      <point x="620" y="391"/>
      <point x="591" y="422"/>
      <point x="535" y="422" type="curve" smooth="yes"/>
      <point x="505" y="422"/>
      <point x="460" y="417"/>
      <point x="418" y="372" type="curve"/>
      <point x="420" y="360"/>
      <point x="421" y="348"/>
      <point x="421" y="334" type="curve" smooth="yes"/>
      <point x="421" y="58" type="line"/>
      <point x="482" y="44" type="line"/>
      <point x="482" y="0" type="line"/>
      <point x="302" y="0" type="line"/>
      <point x="298" y="44" type="line"/>
      <point x="358" y="58" type="line"/>
      <point x="358" y="327" type="line" smooth="yes" name="hr02"/>
      <point x="358" y="391"/>
      <point x="329" y="422"/>
      <point x="273" y="422" type="curve" smooth="yes"/>
      <point x="232" y="422"/>
      <point x="188" y="407"/>
      <point x="158" y="380" type="curve"/>
      <point x="158" y="59" type="line"/>
      <point x="219" y="44" type="line"/>
      <point x="219" y="0" type="line"/>
      <point x="46" y="0" type="line"/>
      <point x="40" y="43" type="line"/>
      <point x="95" y="58" type="line"/>
      <point x="95" y="420" type="line"/>
      <point x="41" y="416" type="line"/>
      <point x="32" y="463" type="line"/>
      <point x="133" y="481" type="line"/>
      <point x="155" y="440" type="line"/>
      <point x="192" y="465"/>
      <point x="242" y="479"/>
      <point x="278" y="479" type="curve" smooth="yes"/>
      <point x="329" y="479"/>
      <point x="370" y="463"/>
      <point x="395" y="429" type="curve"/>
      <point x="456" y="478"/>
      <point x="513" y="479"/>
      <point x="535" y="479" type="curve" smooth="yes"/>
      <point x="631" y="479"/>
      <point x="683" y="429"/>
      <point x="683" y="334" type="curve" smooth="yes"/>
    </contour>
  </outline>
</glyph>
<glyph name="n" format="1">
  <advance width="505"/>
  <unicode hex="006E"/>
  <outline>
    <contour>
      <point x="421" y="58" type="line" name="hr00"/>
      <point x="482" y="44" type="line"/>
      <point x="482" y="0" type="line"/>
      <point x="302" y="0" type="line" name="hr01"/>
      <point x="298" y="44" type="line"/>
      <point x="358" y="58" type="line"/>
      <point x="358" y="327" type="line" smooth="yes"/>
      <point x="358" y="391"/>
      <point x="329" y="422"/>
      <point x="273" y="422" type="curve" smooth="yes"/>
      <point x="232" y="422"/>
      <point x="188" y="407"/>
      <point x="158" y="380" type="curve"/>
      <point x="158" y="59" type="line"/>
      <point x="219" y="44" type="line"/>
      <point x="219" y="0" type="line"/>
      <point x="46" y="0" type="line"/>
      <point x="40" y="43" type="line"/>
      <point x="95" y="58" type="line" name="hr02"/>
      <point x="95" y="420" type="line"/>
      <point x="41" y="416" type="line"/>
      <point x="32" y="463" type="line"/>
      <point x="133" y="481" type="line"/>
      <point x="155" y="440" type="line"/>
      <point x="191" y="465"/>
      <point x="234" y="479"/>
      <point x="278" y="479" type="curve" smooth="yes"/>
      <point x="370" y="479"/>
      <point x="421" y="429"/>
      <point x="421" y="334" type="curve" smooth="yes"/>
    </contour>
  </outline>
</glyph>
<glyph name="o" format="1">
  <advance width="489"/>
  <unicode hex="006F"/>
  <outline>
    <contour>
      <point x="42" y="240" type="curve" smooth="yes" name="hr00"/>
      <point x="42" y="369"/>
      <point x="111" y="481"/>
      <point x="244" y="481" type="curve" smooth="yes"/>
      <point x="386" y="481"/>
      <point x="447" y="364"/>
      <point x="447" y="240" type="curve" smooth="yes"/>
      <point x="447" y="116"/>
      <point x="386" y="-4"/>
      <point x="244" y="-4" type="curve" smooth="yes"/>
      <point x="105" y="-4"/>
      <point x="42" y="117"/>
    </contour>
    <contour>
      <point x="108" y="228" type="curve" smooth="yes"/>
      <point x="108" y="144"/>
      <point x="148" y="54"/>
      <point x="244" y="54" type="curve" smooth="yes"/>
      <point x="346" y="54"/>
      <point x="381" y="149"/>
      <point x="381" y="235" type="curve" smooth="yes"/>
      <point x="381" y="319"/>
      <point x="345" y="423"/>
      <point x="244" y="423" type="curve" smooth="yes"/>
      <point x="141" y="423"/>
      <point x="108" y="304"/>
    </contour>
  </outline>
</glyph>
<glyph name="p" format="1">
  <advance width="500"/>
  <unicode hex="0070"/>
  <outline>
    <contour>
      <point x="30" y="412" type="line" name="hr00"/>
      <point x="22" y="463" type="line"/>
      <point x="127" y="481" type="line"/>
      <point x="154" y="445" type="line"/>
      <point x="183" y="466"/>
      <point x="223" y="479"/>
      <point x="263" y="479" type="curve" smooth="yes"/>
      <point x="396" y="479"/>
      <point x="458" y="368"/>
      <point x="458" y="242" type="curve" smooth="yes"/>
      <point x="458" y="116"/>
      <point x="393" y="-4"/>
      <point x="251" y="-4" type="curve" smooth="yes"/>
      <point x="216" y="-4"/>
      <point x="183" y="2"/>
      <point x="154" y="16" type="curve"/>
      <point x="154" y="-208" type="line"/>
      <point x="275" y="-229" type="line"/>
      <point x="275" y="-273" type="line"/>
      <point x="41" y="-273" type="line"/>
      <point x="32" y="-229" type="line"/>
      <point x="91" y="-215" type="line"/>
      <point x="91" y="416" type="line"/>
    </contour>
    <contour>
      <point x="249" y="53" type="curve" smooth="yes"/>
      <point x="357" y="53"/>
      <point x="392" y="148"/>
      <point x="392" y="237" type="curve" smooth="yes"/>
      <point x="392" y="323"/>
      <point x="359" y="422"/>
      <point x="257" y="422" type="curve" smooth="yes"/>
      <point x="220" y="422"/>
      <point x="172" y="402"/>
      <point x="154" y="371" type="curve"/>
      <point x="154" y="85" type="line"/>
      <point x="180" y="64"/>
      <point x="215" y="53"/>
    </contour>
  </outline>
</glyph>
<glyph name="q" format="1">
  <advance width="483"/>
  <unicode hex="0071"/>
  <outline>
    <contour>
      <point x="409" y="470" type="line" name="hr00"/>
      <point x="409" y="-215" type="line"/>
      <point x="468" y="-229" type="line"/>
      <point x="468" y="-273" type="line"/>
      <point x="232" y="-273" type="line"/>
      <point x="225" y="-229" type="line"/>
      <point x="346" y="-202" type="line"/>
      <point x="346" y="32" type="line"/>
      <point x="326" y="15"/>
      <point x="290" y="-4"/>
      <point x="237" y="-4" type="curve" smooth="yes"/>
      <point x="129" y="-4"/>
      <point x="42" y="83"/>
      <point x="42" y="234" type="curve" smooth="yes"/>
      <point x="42" y="430"/>
      <point x="171" y="481"/>
      <point x="246" y="481" type="curve" smooth="yes"/>
      <point x="292" y="481"/>
      <point x="324" y="468"/>
      <point x="351" y="451" type="curve"/>
      <point x="374" y="480" type="line"/>
    </contour>
    <contour>
      <point x="252" y="423" type="curve" smooth="yes"/>
      <point x="190" y="423"/>
      <point x="108" y="387"/>
      <point x="108" y="239" type="curve" smooth="yes"/>
      <point x="108" y="93"/>
      <point x="185" y="54"/>
      <point x="243" y="54" type="curve" smooth="yes"/>
      <point x="292" y="54"/>
      <point x="331" y="80"/>
      <point x="346" y="104" type="curve"/>
      <point x="346" y="387" type="line"/>
      <point x="333" y="403"/>
      <point x="297" y="423"/>
    </contour>
  </outline>
</glyph>
<glyph name="r" format="1">
  <advance width="386"/>
  <unicode hex="0072"/>
  <outline>
    <contour>
      <point x="159" y="440" type="line" name="hr00"/>
      <point x="188" y="467"/>
      <point x="227" y="481"/>
      <point x="260" y="481" type="curve" smooth="yes"/>
      <point x="319" y="481"/>
      <point x="356" y="444"/>
      <point x="377" y="415" type="curve"/>
      <point x="301" y="378" type="line"/>
      <point x="267" y="424" type="line"/>
      <point x="230" y="424"/>
      <point x="159" y="394"/>
      <point x="159" y="312" type="curve" smooth="yes"/>
      <point x="159" y="64" type="line"/>
      <point x="299" y="44" type="line"/>
      <point x="299" y="0" type="line"/>
      <point x="46" y="0" type="line"/>
      <point x="37" y="44" type="line"/>
      <point x="96" y="58" type="line"/>
      <point x="96" y="415" type="line"/>
      <point x="42" y="415" type="line"/>
      <point x="34" y="463" type="line"/>
      <point x="132" y="480" type="line"/>
    </contour>
  </outline>
</glyph>
<glyph name="s" format="1">
  <advance width="397"/>
  <unicode hex="0073"/>
  <outline>
    <contour>
      <point x="199" y="481" type="curve" smooth="yes" name="hr00"/>
      <point x="288" y="481"/>
      <point x="343" y="426"/>
      <point x="361" y="384" type="curve"/>
      <point x="283" y="355" type="line"/>
      <point x="260" y="406" type="line"/>
      <point x="252" y="413"/>
      <point x="235" y="423"/>
      <point x="199" y="423" type="curve" smooth="yes"/>
      <point x="169" y="423"/>
      <point x="118" y="406"/>
      <point x="118" y="356" type="curve" smooth="yes"/>
      <point x="118" y="312"/>
      <point x="146" y="297"/>
      <point x="231" y="269" type="curve" smooth="yes"/>
      <point x="315" y="241"/>
      <point x="351" y="197"/>
      <point x="351" y="130" type="curve" smooth="yes"/>
      <point x="351" y="41"/>
      <point x="270" y="-4"/>
      <point x="194" y="-4" type="curve" smooth="yes"/>
      <point x="103" y="-4"/>
      <point x="53" y="52"/>
      <point x="32" y="92" type="curve"/>
      <point x="110" y="122" type="line"/>
      <point x="133" y="70" type="line"/>
      <point x="140" y="66"/>
      <point x="160" y="54"/>
      <point x="200" y="54" type="curve" smooth="yes"/>
      <point x="234" y="54"/>
      <point x="285" y="76"/>
      <point x="285" y="124" type="curve" smooth="yes"/>
      <point x="285" y="172"/>
      <point x="259" y="192"/>
      <point x="176" y="220" type="curve" smooth="yes"/>
      <point x="105" y="243"/>
      <point x="52" y="282"/>
      <point x="52" y="350" type="curve" smooth="yes"/>
      <point x="52" y="433"/>
      <point x="122" y="481"/>
    </contour>
  </outline>
</glyph>
<glyph name="t" format="1">
  <advance width="303"/>
  <unicode hex="0074"/>
  <outline>
    <contour>
      <point x="21" y="424" type="line" name="hr00"/>
      <point x="7" y="468" type="line"/>
      <point x="14" y="479" type="line"/>
      <point x="102" y="479" type="line"/>
      <point x="102" y="560"/>
      <point x="103" y="627"/>
      <point x="103" y="647" type="curve"/>
      <point x="159" y="661" type="line"/>
      <point x="165" y="650" type="line"/>
      <point x="164" y="618"/>
      <point x="164" y="588"/>
      <point x="164" y="560" type="curve"/>
      <point x="164" y="479" type="line"/>
      <point x="270" y="479" type="line" smooth="yes"/>
      <point x="273" y="479"/>
      <point x="275" y="477"/>
      <point x="275" y="473" type="curve" smooth="yes"/>
      <point x="275" y="424" type="line"/>
      <point x="163" y="424" type="line"/>
      <point x="163" y="101" type="line" smooth="yes"/>
      <point x="163" y="65"/>
      <point x="179" y="54"/>
      <point x="208" y="54" type="curve" smooth="yes"/>
      <point x="236" y="54"/>
      <point x="263" y="73"/>
      <point x="272" y="80" type="curve"/>
      <point x="289" y="29" type="line"/>
      <point x="273" y="17"/>
      <point x="246" y="-4"/>
      <point x="191" y="-4" type="curve" smooth="yes"/>
      <point x="128" y="-4"/>
      <point x="99" y="43"/>
      <point x="99" y="106" type="curve" smooth="yes"/>
      <point x="99" y="116"/>
      <point x="100" y="278"/>
      <point x="101" y="424" type="curve"/>
    </contour>
  </outline>
</glyph>
<glyph name="u" format="1">
  <advance width="490"/>
  <unicode hex="0075"/>
  <outline>
    <contour>
      <point x="290" y="415" type="line" name="hr00"/>
      <point x="283" y="463" type="line"/>
      <point x="383" y="482" type="line"/>
      <point x="407" y="453" type="line"/>
      <point x="407" y="73" type="line" smooth="yes"/>
      <point x="407" y="56"/>
      <point x="418" y="51"/>
      <point x="430" y="51" type="curve" smooth="yes"/>
      <point x="438" y="51"/>
      <point x="445" y="54"/>
      <point x="448" y="54" type="curve"/>
      <point x="456" y="19" type="line"/>
      <point x="448" y="10"/>
      <point x="427" y="-4"/>
      <point x="399" y="-4" type="curve" smooth="yes"/>
      <point x="371" y="-4"/>
      <point x="355" y="10"/>
      <point x="348" y="37" type="curve"/>
      <point x="317" y="12"/>
      <point x="274" y="-4"/>
      <point x="231" y="-4" type="curve" smooth="yes"/>
      <point x="155" y="-4"/>
      <point x="82" y="34"/>
      <point x="82" y="156" type="curve" smooth="yes"/>
      <point x="82" y="415" type="line"/>
      <point x="28" y="415" type="line"/>
      <point x="19" y="463" type="line"/>
      <point x="120" y="481" type="line"/>
      <point x="145" y="453" type="line"/>
      <point x="145" y="159" type="line" smooth="yes"/>
      <point x="145" y="56"/>
      <point x="212" y="54"/>
      <point x="245" y="54" type="curve" smooth="yes"/>
      <point x="282" y="54"/>
      <point x="328" y="76"/>
      <point x="344" y="101" type="curve"/>
      <point x="344" y="415" type="line"/>
    </contour>
  </outline>
</glyph>
<glyph name="v" format="1">
  <advance width="439"/>
  <unicode hex="0076"/>
  <outline>
    <contour>
      <point x="192" y="0" type="line" name="hr00"/>
      <point x="48" y="426" type="line"/>
      <point x="10" y="426" type="line"/>
      <point x="2" y="474" type="line"/>
      <point x="102" y="481" type="line" name="hr01"/>
      <point x="232" y="92" type="line"/>
      <point x="359" y="426" type="line"/>
      <point x="314" y="426" type="line" name="hr02"/>
      <point x="309" y="474" type="line"/>
      <point x="409" y="481" type="line" name="hr03"/>
      <point x="428" y="444" type="line"/>
      <point x="256" y="0" type="line"/>
    </contour>
  </outline>
</glyph>
<glyph name="w" format="1">
  <advance width="665"/>
  <unicode hex="0077"/>
  <outline>
    <contour>
      <point x="366" y="445" type="line" name="hr00"/>
      <point x="485" y="76" type="line"/>
      <point x="566" y="426" type="line"/>
      <point x="521" y="426" type="line"/>
      <point x="512" y="475" type="line" name="hr01"/>
      <point x="620" y="480" type="line"/>
      <point x="634" y="454" type="line"/>
      <point x="523" y="0" type="line"/>
      <point x="437" y="0" type="line"/>
      <point x="337" y="328" type="line"/>
      <point x="238" y="0" type="line"/>
      <point x="142" y="0" type="line"/>
      <point x="57" y="426" type="line" name="hr02"/>
      <point x="15" y="426" type="line"/>
      <point x="7" y="475" type="line" name="hr03"/>
      <point x="117" y="480" type="line"/>
      <point x="195" y="71" type="line"/>
      <point x="313" y="445" type="line"/>
    </contour>
  </outline>
</glyph>
<glyph name="x" format="1">
  <advance width="456"/>
  <unicode hex="0078"/>
  <outline>
    <contour>
      <point x="40" y="0" type="line" name="hr00"/>
      <point x="30" y="52" type="line"/>
      <point x="72" y="52" type="line"/>
      <point x="186" y="243" type="line"/>
      <point x="72" y="421" type="line"/>
      <point x="30" y="421" type="line"/>
      <point x="30" y="479" type="line"/>
      <point x="113" y="479" type="line"/>
      <point x="236" y="289" type="line"/>
      <point x="350" y="479" type="line"/>
      <point x="420" y="479" type="line"/>
      <point x="420" y="426" type="line"/>
      <point x="387" y="426" type="line"/>
      <point x="271" y="235" type="line"/>
      <point x="386" y="58" type="line"/>
      <point x="428" y="58" type="line"/>
      <point x="428" y="0" type="line"/>
      <point x="343" y="0" type="line"/>
      <point x="221" y="188" type="line"/>
      <point x="109" y="0" type="line"/>
    </contour>
  </outline>
</glyph>
<glyph name="z" format="1">
  <advance width="428"/>
  <unicode hex="007A"/>
  <outline>
    <contour>
      <point x="379" y="420" type="line" name="hr00"/>
      <point x="126" y="58" type="line"/>
      <point x="316" y="58" type="line"/>
      <point x="332" y="152" type="line"/>
      <point x="379" y="152" type="line"/>
      <point x="379" y="0" type="line"/>
      <point x="47" y="0" type="line"/>
      <point x="47" y="58" type="line"/>
      <point x="293" y="420" type="line"/>
      <point x="110" y="420" type="line"/>
      <point x="94" y="337" type="line"/>
      <point x="47" y="337" type="line"/>
      <point x="47" y="479" type="line"/>
      <point x="379" y="479" type="line"/>
    </contour>
  </outline>
</glyph>
<glyph name="braceleft" format="1">
  <advance width="309"/>
  <unicode hex="007B"/>
  <outline>
    <contour>
      <point x="14" y="316" type="line" name="hr00"/>
      <point x="72" y="316"/>
      <point x="126" y="353"/>
      <point x="126" y="417" type="curve" smooth="yes" name="hr01"/>
      <point x="126" y="436"/>
      <point x="125" y="514"/>
      <point x="125" y="540" type="curve" smooth="yes"/>
      <point x="125" y="626"/>
      <point x="150" y="699"/>
      <point x="248" y="699" type="curve" smooth="yes"/>
      <point x="269" y="699"/>
      <point x="286" y="697"/>
      <point x="309" y="694" type="curve"/>
      <point x="288" y="617" type="line"/>
      <point x="231" y="634" type="line"/>
      <point x="222" y="632" type="line"/>
      <point x="197" y="621"/>
      <point x="191" y="576"/>
      <point x="191" y="527" type="curve" smooth="yes"/>
      <point x="191" y="494"/>
      <point x="193" y="458"/>
      <point x="193" y="426" type="curve" smooth="yes"/>
      <point x="193" y="324"/>
      <point x="152" y="285"/>
      <point x="86" y="277" type="curve" smooth="yes"/>
      <point x="78" y="276" type="line"/>
      <point x="78" y="272" type="line"/>
      <point x="86" y="271" type="line" smooth="yes"/>
      <point x="153" y="263"/>
      <point x="193" y="223"/>
      <point x="193" y="118" type="curve" smooth="yes"/>
      <point x="193" y="86"/>
      <point x="191" y="53"/>
      <point x="191" y="21" type="curve" smooth="yes"/>
      <point x="191" y="-34"/>
      <point x="197" y="-82"/>
      <point x="222" y="-93" type="curve"/>
      <point x="231" y="-96" type="line"/>
      <point x="288" y="-79" type="line"/>
      <point x="309" y="-155" type="line"/>
      <point x="286" y="-159"/>
      <point x="269" y="-161"/>
      <point x="248" y="-161" type="curve" smooth="yes"/>
      <point x="150" y="-161"/>
      <point x="125" y="-87"/>
      <point x="125" y="-1" type="curve" smooth="yes"/>
      <point x="125" y="24"/>
      <point x="126" y="112"/>
      <point x="126" y="131" type="curve" smooth="yes"/>
      <point x="126" y="199"/>
      <point x="82" y="232"/>
      <point x="14" y="232" type="curve" name="hr02"/>
    </contour>
  </outline>
</glyph>
<glyph name="bar" format="1">
  <advance width="221"/>
  <unicode hex="007C"/>
  <outline>
    <contour>
      <point x="139" y="666" type="line" name="hr00"/>
      <point x="139" y="-166" type="line"/>
      <point x="82" y="-166" type="line"/>
      <point x="82" y="666" type="line"/>
    </contour>
  </outline>
</glyph>
<glyph name="braceright" format="1">
  <advance width="310"/>
  <unicode hex="007D"/>
  <outline>
    <contour>
      <point x="296" y="232" type="line" name="hr00"/>
      <point x="227" y="232"/>
      <point x="183" y="199"/>
      <point x="183" y="131" type="curve" smooth="yes" name="hr01"/>
      <point x="183" y="112"/>
      <point x="184" y="24"/>
      <point x="184" y="-1" type="curve" smooth="yes"/>
      <point x="184" y="-87"/>
      <point x="158" y="-161"/>
      <point x="61" y="-161" type="curve" smooth="yes"/>
      <point x="41" y="-161"/>
      <point x="23" y="-159"/>
      <point x="0" y="-155" type="curve"/>
      <point x="21" y="-79" type="line"/>
      <point x="78" y="-96" type="line"/>
      <point x="88" y="-93" type="line"/>
      <point x="113" y="-82"/>
      <point x="118" y="-34"/>
      <point x="118" y="21" type="curve" smooth="yes"/>
      <point x="118" y="53"/>
      <point x="116" y="86"/>
      <point x="116" y="118" type="curve" smooth="yes"/>
      <point x="116" y="223"/>
      <point x="156" y="263"/>
      <point x="223" y="271" type="curve" smooth="yes"/>
      <point x="231" y="272" type="line"/>
      <point x="231" y="276" type="line"/>
      <point x="223" y="277" type="line" smooth="yes"/>
      <point x="156" y="285"/>
      <point x="116" y="324"/>
      <point x="116" y="426" type="curve" smooth="yes"/>
      <point x="116" y="458"/>
      <point x="118" y="494"/>
      <point x="118" y="527" type="curve" smooth="yes"/>
      <point x="118" y="576"/>
      <point x="113" y="621"/>
      <point x="88" y="632" type="curve"/>
      <point x="78" y="634" type="line"/>
      <point x="21" y="617" type="line"/>
      <point x="0" y="694" type="line"/>
      <point x="23" y="697"/>
      <point x="41" y="699"/>
      <point x="61" y="699" type="curve" smooth="yes"/>
      <point x="158" y="699"/>
      <point x="184" y="626"/>
      <point x="184" y="540" type="curve" smooth="yes"/>
      <point x="184" y="514"/>
      <point x="183" y="436"/>
      <point x="183" y="417" type="curve" smooth="yes"/>
      <point x="183" y="353"/>
      <point x="238" y="316"/>
      <point x="296" y="316" type="curve" name="hr02"/>
    </contour>
  </outline>
</glyph>
<glyph name="asciitilde" format="1">
  <advance width="387"/>
  <unicode hex="007E"/>
  <outline>
    <contour>
      <point x="266" y="621" type="curve" name="hr00"/>
      <point x="322" y="663" type="line" name="hr01"/>
      <point x="359" y="601" type="line"/>
      <point x="334" y="580"/>
      <point x="302" y="563"/>
      <point x="265" y="563" type="curve" smooth="yes"/>
      <point x="215" y="563"/>
      <point x="181" y="600"/>
      <point x="132" y="600" type="curve" smooth="yes"/>
      <point x="104" y="600"/>
      <point x="83" y="578"/>
      <point x="74" y="554" type="curve"/>
      <point x="31" y="580" type="line" name="hr02"/>
      <point x="33" y="587" type="line" name="hr03"/>
      <point x="54" y="638"/>
      <point x="94" y="663"/>
      <point x="134" y="663" type="curve" smooth="yes" name="hr04"/>
      <point x="192" y="663"/>
      <point x="232" y="621"/>
    </contour>
  </outline>
</glyph>
<glyph name="exclamdown" format="1">
  <advance width="239"/>
  <unicode hex="00A1"/>
  <outline>
    <contour>
      <point x="88" y="260" type="line" name="hr00"/>
      <point x="70" y="-191" type="line"/>
      <point x="152" y="-203" type="line"/>
      <point x="173" y="-165" type="line"/>
      <point x="146" y="260" type="line"/>
    </contour>
    <contour>
      <point x="65" y="439" type="qcurve" name="hr01"/>
      <point x="65" y="418"/>
      <point x="95" y="387"/>
      <point x="117" y="387" type="qcurve"/>
      <point x="138" y="387"/>
      <point x="169" y="418"/>
      <point x="169" y="439" type="qcurve"/>
      <point x="169" y="461"/>
      <point x="138" y="491"/>
      <point x="117" y="491" type="qcurve"/>
      <point x="95" y="491"/>
      <point x="65" y="461"/>
    </contour>
  </outline>
</glyph>
<glyph name="cent" format="1">
  <advance width="408"/>
  <unicode hex="00A2"/>
  <outline>
    <contour>
      <point x="333" y="373" type="line" name="hr00"/>
      <point x="274" y="420" type="line"/>
      <point x="273" y="420"/>
      <point x="271" y="421"/>
      <point x="270" y="421" type="curve"/>
      <point x="270" y="53" type="line"/>
      <point x="301" y="55"/>
      <point x="327" y="64"/>
      <point x="354" y="80" type="curve"/>
      <point x="371" y="31" type="line"/>
      <point x="343" y="10"/>
      <point x="307" y="0"/>
      <point x="270" y="-3" type="curve"/>
      <point x="270" y="-158" type="line"/>
      <point x="212" y="-158" type="line"/>
      <point x="212" y="-2" type="line"/>
      <point x="89" y="13"/>
      <point x="32" y="119"/>
      <point x="32" y="233" type="curve" smooth="yes"/>
      <point x="32" y="351"/>
      <point x="88" y="461"/>
      <point x="212" y="477" type="curve"/>
      <point x="212" y="609" type="line"/>
      <point x="270" y="609" type="line"/>
      <point x="270" y="478" type="line"/>
      <point x="317" y="473"/>
      <point x="356" y="457"/>
      <point x="377" y="442" type="curve"/>
    </contour>
    <contour>
      <point x="98" y="232" type="curve" smooth="yes"/>
      <point x="98" y="154"/>
      <point x="127" y="75"/>
      <point x="212" y="57" type="curve"/>
      <point x="212" y="420" type="line"/>
      <point x="125" y="405"/>
      <point x="98" y="314"/>
    </contour>
  </outline>
</glyph>
<glyph name="sterling" format="1">
  <advance width="487"/>
  <unicode hex="00A3"/>
  <outline>
    <contour>
      <point x="363" y="329" type="line" name="hr00"/>
      <point x="363" y="384" type="line" smooth="yes"/>
      <point x="363" y="390"/>
      <point x="361" y="392"/>
      <point x="357" y="392" type="curve" smooth="yes"/>
      <point x="219" y="392" type="line"/>
      <point x="219" y="532" type="line" smooth="yes"/>
      <point x="219" y="618"/>
      <point x="271" y="628"/>
      <point x="296" y="628" type="curve" smooth="yes"/>
      <point x="303" y="628"/>
      <point x="312" y="627"/>
      <point x="318" y="626" type="curve"/>
      <point x="377" y="576" type="line"/>
      <point x="425" y="642" type="line"/>
      <point x="406" y="657"/>
      <point x="360" y="691"/>
      <point x="305" y="691" type="curve" smooth="yes"/>
      <point x="232" y="691"/>
      <point x="151" y="654"/>
      <point x="151" y="527" type="curve" smooth="yes"/>
      <point x="151" y="392" type="line"/>
      <point x="88" y="392" type="line"/>
      <point x="81" y="383" type="line"/>
      <point x="81" y="329" type="line"/>
      <point x="151" y="329" type="line"/>
      <point x="151" y="230"/>
      <point x="146" y="140"/>
      <point x="86" y="89" type="curve" smooth="yes"/>
      <point x="62" y="68"/>
      <point x="42" y="51"/>
      <point x="29" y="21" type="curve"/>
      <point x="27" y="14" type="line"/>
      <point x="81" y="-4" type="line"/>
      <point x="88" y="18"/>
      <point x="108" y="41"/>
      <point x="154" y="41" type="curve" smooth="yes"/>
      <point x="206" y="41"/>
      <point x="274" y="-4"/>
      <point x="358" y="-4" type="curve" smooth="yes"/>
      <point x="394" y="-4"/>
      <point x="426" y="13"/>
      <point x="454" y="34" type="curve"/>
      <point x="418" y="96" type="line"/>
      <point x="362" y="54" type="line"/>
      <point x="319" y="55"/>
      <point x="256" y="96"/>
      <point x="174" y="103" type="curve"/>
      <point x="214" y="157"/>
      <point x="216" y="239"/>
      <point x="219" y="329" type="curve"/>
    </contour>
  </outline>
</glyph>
<glyph name="yen" format="1">
  <advance width="551"/>
  <unicode hex="00A5"/>
  <outline>
    <contour>
      <point x="121" y="210" type="line" name="hr00"/>
      <point x="242" y="210" type="line"/>
      <point x="242" y="239" type="line"/>
      <point x="121" y="239" type="line"/>
      <point x="121" y="302" type="line" name="hr01"/>
      <point x="242" y="302" type="line"/>
      <point x="242" y="313" type="line"/>
      <point x="68" y="627" type="line"/>
      <point x="28" y="636" type="line" name="hr02"/>
      <point x="28" y="691" type="line"/>
      <point x="196" y="691" type="line"/>
      <point x="196" y="644" type="line"/>
      <point x="141" y="633" type="line"/>
      <point x="281" y="384" type="line"/>
      <point x="420" y="633" type="line"/>
      <point x="363" y="642" type="line"/>
      <point x="363" y="691" type="line"/>
      <point x="523" y="691" type="line"/>
      <point x="523" y="635" type="line"/>
      <point x="491" y="625" type="line"/>
      <point x="310" y="311" type="line"/>
      <point x="310" y="302" type="line"/>
      <point x="424" y="302" type="line"/>
      <point x="424" y="239" type="line"/>
      <point x="310" y="239" type="line"/>
      <point x="310" y="210" type="line"/>
      <point x="424" y="210" type="line"/>
      <point x="424" y="147" type="line"/>
      <point x="310" y="147" type="line"/>
      <point x="310" y="70" type="line"/>
      <point x="424" y="52" type="line"/>
      <point x="416" y="0" type="line"/>
      <point x="142" y="0" type="line"/>
      <point x="133" y="52" type="line"/>
      <point x="242" y="70" type="line"/>
      <point x="242" y="147" type="line"/>
      <point x="121" y="147" type="line"/>
    </contour>
  </outline>
</glyph>
<glyph name="brokenbar" format="1">
  <advance width="231"/>
  <unicode hex="00A6"/>
  <outline>
    <contour>
      <point x="84" y="290" type="line" name="hr00"/>
      <point x="84" y="670" type="line"/>
      <point x="147" y="670" type="line"/>
      <point x="147" y="290" type="line"/>
    </contour>
    <contour>
      <point x="84" y="-173" type="line"/>
      <point x="84" y="201" type="line"/>
      <point x="147" y="201" type="line"/>
      <point x="147" y="-173" type="line"/>
    </contour>
  </outline>
</glyph>
<glyph name="section" format="1">
  <advance width="495"/>
  <unicode hex="00A7"/>
  <outline>
    <contour>
      <point x="449" y="235" type="curve" smooth="yes" name="hr00"/>
      <point x="449" y="313"/>
      <point x="400" y="363"/>
      <point x="292" y="409" type="curve" smooth="yes"/>
      <point x="216" y="441"/>
      <point x="125" y="470"/>
      <point x="125" y="542" type="curve" smooth="yes"/>
      <point x="125" y="591"/>
      <point x="183" y="628"/>
      <point x="250" y="628" type="curve" smooth="yes"/>
      <point x="284" y="628"/>
      <point x="307" y="623"/>
      <point x="325" y="615" type="curve"/>
      <point x="367" y="505" type="line"/>
      <point x="421" y="505" type="line"/>
      <point x="409" y="659" type="line"/>
      <point x="363" y="677"/>
      <point x="321" y="691"/>
      <point x="250" y="691" type="curve" smooth="yes"/>
      <point x="139" y="691"/>
      <point x="53" y="626"/>
      <point x="53" y="533" type="curve" smooth="yes"/>
      <point x="53" y="484"/>
      <point x="72" y="450"/>
      <point x="107" y="422" type="curve"/>
      <point x="78" y="393"/>
      <point x="57" y="353"/>
      <point x="57" y="306" type="curve" smooth="yes"/>
      <point x="57" y="229"/>
      <point x="115" y="183"/>
      <point x="212" y="136" type="curve" smooth="yes"/>
      <point x="275" y="105"/>
      <point x="366" y="76"/>
      <point x="366" y="4" type="curve" smooth="yes"/>
      <point x="366" y="-71"/>
      <point x="294" y="-98"/>
      <point x="231" y="-98" type="curve" smooth="yes"/>
      <point x="193" y="-98"/>
      <point x="147" y="-89"/>
      <point x="132" y="-82" type="curve"/>
      <point x="112" y="24" type="line"/>
      <point x="54" y="24" type="line"/>
      <point x="64" y="-128" type="line"/>
      <point x="118" y="-149"/>
      <point x="160" y="-161"/>
      <point x="227" y="-161" type="curve" smooth="yes"/>
      <point x="337" y="-161"/>
      <point x="439" y="-105"/>
      <point x="439" y="3" type="curve" smooth="yes"/>
      <point x="439" y="48"/>
      <point x="421" y="82"/>
      <point x="395" y="109" type="curve"/>
      <point x="422" y="138"/>
      <point x="449" y="183"/>
    </contour>
    <contour>
      <point x="238" y="354" type="line" smooth="yes"/>
      <point x="303" y="327"/>
      <point x="375" y="296"/>
      <point x="375" y="227" type="curve" smooth="yes"/>
      <point x="375" y="202"/>
      <point x="364" y="170"/>
      <point x="347" y="147" type="curve"/>
      <point x="325" y="162"/>
      <point x="301" y="174"/>
      <point x="279" y="186" type="curve" smooth="yes"/>
      <point x="176" y="239"/>
      <point x="130" y="266"/>
      <point x="130" y="320" type="curve" smooth="yes"/>
      <point x="130" y="345"/>
      <point x="144" y="370"/>
      <point x="160" y="389" type="curve"/>
      <point x="181" y="378"/>
      <point x="206" y="367"/>
      <point x="233" y="356" type="curve"/>
    </contour>
  </outline>
</glyph>
<glyph name="dieresis" format="1">
  <advance width="355"/>
  <unicode hex="00A8"/>
  <outline>
    <contour>
      <point x="52" y="528" type="curve" smooth="yes" name="hr00"/>
      <point x="52" y="555"/>
      <point x="73" y="577"/>
      <point x="101" y="577" type="curve" smooth="yes"/>
      <point x="128" y="577"/>
      <point x="151" y="555"/>
      <point x="151" y="528" type="curve" smooth="yes"/>
      <point x="151" y="500"/>
      <point x="128" y="478"/>
      <point x="101" y="478" type="curve" smooth="yes"/>
      <point x="73" y="478"/>
      <point x="52" y="500"/>
    </contour>
    <contour>
      <point x="204" y="528" type="curve" smooth="yes"/>
      <point x="204" y="555"/>
      <point x="227" y="577"/>
      <point x="255" y="577" type="curve" smooth="yes"/>
      <point x="282" y="577"/>
      <point x="303" y="555"/>
      <point x="303" y="528" type="curve" smooth="yes"/>
      <point x="303" y="500"/>
      <point x="282" y="478"/>
      <point x="255" y="478" type="curve" smooth="yes"/>
      <point x="227" y="478"/>
      <point x="204" y="500"/>
    </contour>
  </outline>
</glyph>
<glyph name="copyright" format="1">
  <advance width="728"/>
  <unicode hex="00A9"/>
  <outline>
    <contour>
      <point x="230" y="366" type="curve" smooth="yes" name="hr00"/>
      <point x="230" y="282"/>
      <point x="282" y="226"/>
      <point x="370" y="226" type="curve" smooth="yes"/>
      <point x="412" y="226"/>
      <point x="455" y="243"/>
      <point x="463" y="251" type="curve"/>
      <point x="478" y="198" type="line"/>
      <point x="457" y="185"/>
      <point x="420" y="168"/>
      <point x="366" y="168" type="curve" smooth="yes"/>
      <point x="255" y="168"/>
      <point x="171" y="246"/>
      <point x="171" y="365" type="curve" smooth="yes"/>
      <point x="171" y="491"/>
      <point x="256" y="572"/>
      <point x="370" y="572" type="curve" smooth="yes"/>
      <point x="411" y="572"/>
      <point x="435" y="569"/>
      <point x="450" y="565" type="curve"/>
      <point x="460" y="456" type="line"/>
      <point x="420" y="456" type="line"/>
      <point x="407" y="512" type="line"/>
      <point x="400" y="513"/>
      <point x="376" y="514"/>
      <point x="368" y="514" type="curve" smooth="yes"/>
      <point x="292" y="514"/>
      <point x="230" y="466"/>
    </contour>
    <contour>
      <point x="41" y="372" type="curve" smooth="yes"/>
      <point x="41" y="194"/>
      <point x="176" y="49"/>
      <point x="364" y="49" type="curve" smooth="yes"/>
      <point x="552" y="49"/>
      <point x="687" y="194"/>
      <point x="687" y="372" type="curve" smooth="yes"/>
      <point x="687" y="550"/>
      <point x="552" y="695"/>
      <point x="364" y="695" type="curve" smooth="yes"/>
      <point x="176" y="695"/>
      <point x="41" y="550"/>
    </contour>
    <contour>
      <point x="99" y="372" type="curve" smooth="yes" name="hr01"/>
      <point x="99" y="525"/>
      <point x="211" y="637"/>
      <point x="364" y="637" type="curve" smooth="yes"/>
      <point x="517" y="637"/>
      <point x="629" y="525"/>
      <point x="629" y="372" type="curve" smooth="yes"/>
      <point x="629" y="219"/>
      <point x="517" y="107"/>
      <point x="364" y="107" type="curve" smooth="yes"/>
      <point x="211" y="107"/>
      <point x="99" y="219"/>
    </contour>
  </outline>
</glyph>
<glyph name="ordfeminine" format="1">
  <advance width="297"/>
  <unicode hex="00AA"/>
  <outline>
    <contour>
      <point x="230" y="491" type="line" smooth="yes" name="hr00"/>
      <point x="230" y="482"/>
      <point x="233" y="478"/>
      <point x="238" y="478" type="curve" smooth="yes"/>
      <point x="242" y="478"/>
      <point x="247" y="481"/>
      <point x="250" y="481" type="curve"/>
      <point x="260" y="450" type="line"/>
      <point x="252" y="443"/>
      <point x="238" y="434"/>
      <point x="218" y="434" type="curve" smooth="yes"/>
      <point x="200" y="434"/>
      <point x="190" y="441"/>
      <point x="184" y="451" type="curve"/>
      <point x="170" y="440"/>
      <point x="151" y="433"/>
      <point x="126" y="433" type="curve" smooth="yes"/>
      <point x="87" y="433"/>
      <point x="43" y="457"/>
      <point x="43" y="504" type="curve" smooth="yes"/>
      <point x="43" y="574"/>
      <point x="119" y="587"/>
      <point x="177" y="589" type="curve"/>
      <point x="177" y="611" type="line" smooth="yes"/>
      <point x="177" y="622"/>
      <point x="174" y="649"/>
      <point x="136" y="649" type="curve" smooth="yes"/>
      <point x="127" y="649"/>
      <point x="119" y="647"/>
      <point x="112" y="642" type="curve"/>
      <point x="105" y="613" type="line"/>
      <point x="43" y="622" type="line" name="hr01"/>
      <point x="51" y="672"/>
      <point x="98" y="691"/>
      <point x="134" y="691" type="curve" smooth="yes"/>
      <point x="174" y="691"/>
      <point x="230" y="673"/>
      <point x="230" y="610" type="curve" smooth="yes"/>
    </contour>
    <contour>
      <point x="99" y="505" type="curve" smooth="yes"/>
      <point x="99" y="496"/>
      <point x="104" y="475"/>
      <point x="133" y="475" type="curve" smooth="yes" name="hr02"/>
      <point x="157" y="475"/>
      <point x="169" y="488"/>
      <point x="176" y="501" type="curve"/>
      <point x="177" y="506" type="line"/>
      <point x="177" y="547" type="line"/>
      <point x="138" y="546"/>
      <point x="99" y="540"/>
    </contour>
  </outline>
</glyph>
<glyph name="logicalnot" format="1">
  <advance width="600"/>
  <unicode hex="00AC"/>
  <outline>
    <contour>
      <point x="465" y="417" type="line" name="hr00"/>
      <point x="53" y="417" type="line"/>
      <point x="53" y="471" type="line"/>
      <point x="60" y="480" type="line"/>
      <point x="519" y="480" type="line"/>
      <point x="528" y="472" type="line"/>
      <point x="528" y="267" type="line" smooth="yes"/>
      <point x="528" y="262"/>
      <point x="525" y="260"/>
      <point x="520" y="260" type="curve" smooth="yes" name="hr01"/>
      <point x="465" y="260" type="line"/>
    </contour>
  </outline>
</glyph>
<glyph name="uni00AD" format="1">
  <advance width="377"/>
  <unicode hex="00AD"/>
  <outline>
    <contour>
      <point x="328" y="262" type="line" name="hr00"/>
      <point x="48" y="262" type="line"/>
      <point x="48" y="353" type="line"/>
      <point x="328" y="353" type="line"/>
    </contour>
  </outline>
</glyph>
<glyph name="registered" format="1">
  <advance width="728"/>
  <unicode hex="00AE"/>
  <outline>
    <contour>
      <point x="41" y="372" type="curve" smooth="yes" name="hr00"/>
      <point x="41" y="194"/>
      <point x="176" y="49"/>
      <point x="364" y="49" type="curve" smooth="yes"/>
      <point x="552" y="49"/>
      <point x="687" y="194"/>
      <point x="687" y="372" type="curve" smooth="yes"/>
      <point x="687" y="550"/>
      <point x="552" y="695"/>
      <point x="364" y="695" type="curve" smooth="yes"/>
      <point x="176" y="695"/>
      <point x="41" y="550"/>
    </contour>
    <contour>
      <point x="99" y="372" type="curve" smooth="yes"/>
      <point x="99" y="525"/>
      <point x="211" y="637"/>
      <point x="364" y="637" type="curve" smooth="yes"/>
      <point x="517" y="637"/>
      <point x="629" y="525"/>
      <point x="629" y="372" type="curve" smooth="yes"/>
      <point x="629" y="219"/>
      <point x="517" y="107"/>
      <point x="364" y="107" type="curve" smooth="yes"/>
      <point x="211" y="107"/>
      <point x="99" y="219"/>
    </contour>
    <contour>
      <point x="234" y="224" type="line"/>
      <point x="260" y="231" type="line" name="hr01"/>
      <point x="260" y="523" type="line"/>
      <point x="234" y="526" type="line"/>
      <point x="234" y="577" type="line"/>
      <point x="325" y="577" type="line" smooth="yes"/>
      <point x="446" y="577"/>
      <point x="502" y="528"/>
      <point x="502" y="448" type="curve" smooth="yes"/>
      <point x="502" y="394"/>
      <point x="469" y="355"/>
      <point x="417" y="336" type="curve"/>
      <point x="489" y="229" type="line"/>
      <point x="523" y="222" type="line"/>
      <point x="523" y="178" type="line"/>
      <point x="448" y="178" type="line"/>
      <point x="360" y="323" type="line"/>
      <point x="350" y="322"/>
      <point x="340" y="322"/>
      <point x="330" y="322" type="curve" smooth="yes"/>
      <point x="318" y="322" type="line"/>
      <point x="318" y="232" type="line"/>
      <point x="369" y="222" type="line"/>
      <point x="369" y="178" type="line"/>
      <point x="238" y="178" type="line"/>
    </contour>
    <contour>
      <point x="334" y="380" type="line" smooth="yes"/>
      <point x="404" y="380"/>
      <point x="439" y="403"/>
      <point x="439" y="448" type="curve" smooth="yes"/>
      <point x="439" y="501"/>
      <point x="394" y="520"/>
      <point x="341" y="520" type="curve" smooth="yes"/>
      <point x="318" y="520" type="line"/>
      <point x="318" y="380" type="line"/>
    </contour>
  </outline>
</glyph>
<glyph name="macron" format="1">
  <advance width="365"/>
  <unicode hex="00AF"/>
  <outline>
    <contour>
      <point x="57" y="630" type="line" name="hr00"/>
      <point x="57" y="684" type="line"/>
      <point x="64" y="693" type="line"/>
      <point x="301" y="693" type="line" smooth="yes"/>
      <point x="306" y="693"/>
      <point x="308" y="690"/>
      <point x="308" y="685" type="curve" smooth="yes"/>
      <point x="308" y="630" type="line"/>
    </contour>
  </outline>
</glyph>
<glyph name="degree" format="1">
  <advance width="264"/>
  <unicode hex="00B0"/>
  <outline>
    <contour>
      <point x="38" y="630" type="curve" smooth="yes" name="hr00"/>
      <point x="38" y="689"/>
      <point x="68" y="734"/>
      <point x="132" y="734" type="curve" smooth="yes"/>
      <point x="195" y="734"/>
      <point x="226" y="689"/>
      <point x="226" y="630" type="curve" smooth="yes"/>
      <point x="226" y="570"/>
      <point x="195" y="525"/>
      <point x="132" y="525" type="curve" smooth="yes"/>
      <point x="68" y="525"/>
      <point x="38" y="570"/>
    </contour>
    <contour>
      <point x="91" y="630" type="curve" smooth="yes"/>
      <point x="91" y="602"/>
      <point x="104" y="572"/>
      <point x="132" y="572" type="curve" smooth="yes"/>
      <point x="160" y="572"/>
      <point x="174" y="602"/>
      <point x="174" y="630" type="curve" smooth="yes"/>
      <point x="174" y="655"/>
      <point x="160" y="687"/>
      <point x="132" y="687" type="curve" smooth="yes"/>
      <point x="104" y="687"/>
      <point x="91" y="655"/>
    </contour>
  </outline>
</glyph>
<glyph name="twosuperior" format="1">
  <advance width="265"/>
  <unicode hex="00B2"/>
  <outline>
    <contour>
      <point x="53" y="434" type="line" name="hr00"/>
      <point x="50" y="462" type="line"/>
      <point x="70" y="479"/>
      <point x="158" y="555"/>
      <point x="158" y="610" type="curve" smooth="yes"/>
      <point x="158" y="633"/>
      <point x="147" y="644"/>
      <point x="125" y="644" type="curve" smooth="yes"/>
      <point x="114" y="644"/>
      <point x="107" y="642"/>
      <point x="100" y="639" type="curve"/>
      <point x="99" y="639"/>
      <point x="99" y="638"/>
      <point x="89" y="608" type="curve"/>
      <point x="42" y="622" type="line"/>
      <point x="55" y="673"/>
      <point x="96" y="691"/>
      <point x="135" y="691" type="curve" smooth="yes"/>
      <point x="175" y="691"/>
      <point x="211" y="664"/>
      <point x="211" y="615" type="curve" smooth="yes"/>
      <point x="211" y="558"/>
      <point x="166" y="513"/>
      <point x="139" y="486" type="curve"/>
      <point x="129" y="476" type="line"/>
      <point x="175" y="476" type="line"/>
      <point x="189" y="508" type="line"/>
      <point x="220" y="508" type="line"/>
      <point x="209" y="434" type="line"/>
    </contour>
  </outline>
</glyph>
<glyph name="threesuperior" format="1">
  <advance width="264"/>
  <unicode hex="00B3"/>
  <outline>
    <contour>
      <point x="68" y="507" type="line" name="hr00"/>
      <point x="83" y="494"/>
      <point x="99" y="481"/>
      <point x="129" y="481" type="curve" smooth="yes"/>
      <point x="161" y="481"/>
      <point x="172" y="499"/>
      <point x="172" y="512" type="curve" smooth="yes"/>
      <point x="172" y="538"/>
      <point x="135" y="542"/>
      <point x="104" y="542" type="curve"/>
      <point x="104" y="586" type="line" name="hr01"/>
      <point x="141" y="586"/>
      <point x="159" y="597"/>
      <point x="159" y="618" type="curve" smooth="yes"/>
      <point x="159" y="630"/>
      <point x="152" y="644"/>
      <point x="128" y="644" type="curve" smooth="yes"/>
      <point x="117" y="644"/>
      <point x="109" y="642"/>
      <point x="104" y="638" type="curve"/>
      <point x="92" y="607" type="line"/>
      <point x="43" y="622" type="line"/>
      <point x="55" y="662"/>
      <point x="86" y="691"/>
      <point x="134" y="691" type="curve" smooth="yes"/>
      <point x="170" y="691"/>
      <point x="210" y="665"/>
      <point x="210" y="625" type="curve" smooth="yes"/>
      <point x="210" y="600"/>
      <point x="198" y="573"/>
      <point x="166" y="568" type="curve"/>
      <point x="202" y="561"/>
      <point x="225" y="543"/>
      <point x="225" y="508" type="curve" smooth="yes" name="hr02"/>
      <point x="225" y="459"/>
      <point x="182" y="434"/>
      <point x="127" y="434" type="curve" smooth="yes"/>
      <point x="86" y="434"/>
      <point x="58" y="451"/>
      <point x="39" y="468" type="curve"/>
    </contour>
  </outline>
</glyph>
<glyph name="acute" format="1">
  <advance width="279"/>
  <unicode hex="00B4"/>
  <outline>
    <contour>
      <point x="52" y="585" type="line" name="hr00"/>
      <point x="156" y="724" type="line"/>
      <point x="183" y="724" type="line"/>
      <point x="227" y="672" type="line"/>
      <point x="87" y="552" type="line"/>
    </contour>
  </outline>
</glyph>
<glyph name="mu" format="1">
  <advance width="513"/>
  <unicode hex="00B5"/>
  <unicode hex="03BC"/>
  <outline>
    <contour>
      <point x="302" y="415" type="line" name="hr00"/>
      <point x="295" y="463" type="line"/>
      <point x="395" y="482" type="line"/>
      <point x="419" y="453" type="line"/>
      <point x="419" y="73" type="line" smooth="yes"/>
      <point x="419" y="56"/>
      <point x="431" y="51"/>
      <point x="442" y="51" type="curve" smooth="yes"/>
      <point x="450" y="51"/>
      <point x="457" y="54"/>
      <point x="460" y="54" type="curve"/>
      <point x="468" y="19" type="line"/>
      <point x="460" y="10"/>
      <point x="440" y="-4"/>
      <point x="412" y="-4" type="curve" smooth="yes"/>
      <point x="384" y="-4"/>
      <point x="367" y="10"/>
      <point x="360" y="36" type="curve"/>
      <point x="333" y="12"/>
      <point x="296" y="-4"/>
      <point x="247" y="-4" type="curve" smooth="yes"/>
      <point x="215" y="-4"/>
      <point x="183" y="6"/>
      <point x="157" y="25" type="curve"/>
      <point x="156" y="16"/>
      <point x="156" y="6"/>
      <point x="156" y="-4" type="curve" smooth="yes"/>
      <point x="156" y="-24"/>
      <point x="157" y="-44"/>
      <point x="157" y="-58" type="curve" smooth="yes"/>
      <point x="157" y="-274" type="line"/>
      <point x="94" y="-274" type="line"/>
      <point x="94" y="415" type="line"/>
      <point x="40" y="415" type="line"/>
      <point x="31" y="463" type="line"/>
      <point x="130" y="481" type="line"/>
      <point x="157" y="449" type="line"/>
      <point x="157" y="146" type="line" smooth="yes"/>
      <point x="157" y="57"/>
      <point x="239" y="54"/>
      <point x="259" y="54" type="curve" smooth="yes"/>
      <point x="294" y="54"/>
      <point x="337" y="71"/>
      <point x="356" y="100" type="curve"/>
      <point x="356" y="415" type="line"/>
    </contour>
  </outline>
</glyph>
<glyph name="paragraph" format="1">
  <advance width="523"/>
  <unicode hex="00B6"/>
  <outline>
    <contour>
      <point x="31" y="500" type="curve" smooth="yes" name="hr00"/>
      <point x="31" y="585"/>
      <point x="87" y="691"/>
      <point x="250" y="691" type="curve" smooth="yes"/>
      <point x="462" y="691" type="line"/>
      <point x="462" y="632" type="line"/>
      <point x="420" y="632" type="line"/>
      <point x="420" y="0" type="line"/>
      <point x="363" y="0" type="line"/>
      <point x="363" y="632" type="line"/>
      <point x="331" y="632" type="line"/>
      <point x="331" y="125" type="line" smooth="yes" name="hr01"/>
      <point x="331" y="101"/>
      <point x="330" y="84"/>
      <point x="324" y="77" type="curve" smooth="yes"/>
      <point x="304" y="54"/>
      <point x="268" y="17"/>
      <point x="241" y="-8" type="curve"/>
      <point x="188" y="66" type="line"/>
      <point x="263" y="109" type="line"/>
      <point x="263" y="299" type="line"/>
      <point x="118" y="302"/>
      <point x="31" y="385"/>
    </contour>
  </outline>
</glyph>
<glyph name="periodcentered" format="1">
  <advance width="230"/>
  <unicode hex="00B7"/>
  <outline>
    <contour>
      <point x="63" y="399" type="line" name="hr00"/>
      <point x="158" y="399" type="line"/>
      <point x="167" y="390" type="line"/>
      <point x="167" y="255" type="line"/>
      <point x="63" y="255" type="line"/>
    </contour>
  </outline>
</glyph>
<glyph name="cedilla" format="1">
  <advance width="398"/>
  <unicode hex="00B8"/>
  <outline>
    <contour>
      <point x="155" y="-106" type="line" name="hr00"/>
      <point x="137" y="-87" type="line"/>
      <point x="175" y="15" type="line"/>
      <point x="243" y="15" type="line"/>
      <point x="221" y="-49" type="line"/>
      <point x="271" y="-54"/>
      <point x="326" y="-88"/>
      <point x="326" y="-158" type="curve" smooth="yes"/>
      <point x="326" y="-225"/>
      <point x="280" y="-273"/>
      <point x="187" y="-273" type="curve" smooth="yes"/>
      <point x="138" y="-273"/>
      <point x="105" y="-258"/>
      <point x="72" y="-246" type="curve"/>
      <point x="115" y="-164" type="line"/>
      <point x="189" y="-210" type="line"/>
      <point x="225" y="-210"/>
      <point x="252" y="-191"/>
      <point x="252" y="-160" type="curve" smooth="yes"/>
      <point x="252" y="-135"/>
      <point x="229" y="-106"/>
      <point x="164" y="-106" type="curve" smooth="yes"/>
    </contour>
  </outline>
</glyph>
<glyph name="onesuperior" format="1">
  <advance width="220"/>
  <unicode hex="00B9"/>
  <outline>
    <contour>
      <point x="51" y="468" type="line" name="hr00"/>
      <point x="89" y="476" type="line"/>
      <point x="89" y="635" type="line"/>
      <point x="50" y="629" type="line"/>
      <point x="41" y="664" type="line"/>
      <point x="134" y="693" type="line"/>
      <point x="143" y="688" type="line"/>
      <point x="143" y="479" type="line"/>
      <point x="178" y="470" type="line"/>
      <point x="178" y="434" type="line"/>
      <point x="54" y="434" type="line"/>
    </contour>
  </outline>
</glyph>
<glyph name="ordmasculine" format="1">
  <advance width="296"/>
  <unicode hex="00BA"/>
  <outline>
    <contour>
      <point x="39" y="563" type="curve" smooth="yes" name="hr00"/>
      <point x="39" y="651"/>
      <point x="88" y="692"/>
      <point x="147" y="692" type="curve" smooth="yes"/>
      <point x="208" y="692"/>
      <point x="257" y="651"/>
      <point x="257" y="563" type="curve" smooth="yes"/>
      <point x="257" y="475"/>
      <point x="208" y="433"/>
      <point x="147" y="433" type="curve" smooth="yes"/>
      <point x="88" y="433"/>
      <point x="39" y="475"/>
    </contour>
    <contour>
      <point x="95" y="561" type="curve" smooth="yes"/>
      <point x="95" y="514"/>
      <point x="114" y="484"/>
      <point x="147" y="484" type="curve" smooth="yes"/>
      <point x="183" y="484"/>
      <point x="201" y="514"/>
      <point x="201" y="561" type="curve" smooth="yes"/>
      <point x="201" y="606"/>
      <point x="183" y="640"/>
      <point x="147" y="640" type="curve" smooth="yes"/>
      <point x="114" y="640"/>
      <point x="95" y="606"/>
    </contour>
  </outline>
</glyph>
<glyph name="onequarter" format="1">
  <advance width="598"/>
  <unicode hex="00BC"/>
  <outline>
    <contour>
      <point x="380" y="37" type="line" name="hr00"/>
      <point x="464" y="48" type="line"/>
      <point x="464" y="117" type="line"/>
      <point x="317" y="117" type="line"/>
      <point x="317" y="181" type="line"/>
      <point x="464" y="376" type="line"/>
      <point x="517" y="376" type="line"/>
      <point x="517" y="164" type="line"/>
      <point x="566" y="164" type="line"/>
      <point x="566" y="117" type="line"/>
      <point x="517" y="117" type="line"/>
      <point x="517" y="47" type="line"/>
      <point x="553" y="41" type="line"/>
      <point x="553" y="0" type="line"/>
      <point x="382" y="0" type="line"/>
    </contour>
    <contour>
      <point x="127" y="-21" type="line" name="hr01"/>
      <point x="79" y="-21" type="line"/>
      <point x="76" y="-8" type="line"/>
      <point x="425" y="691" type="line"/>
      <point x="477" y="691" type="line"/>
      <point x="476" y="677" type="line"/>
    </contour>
    <contour>
      <point x="51" y="350" type="line"/>
      <point x="94" y="357" type="line"/>
      <point x="94" y="635" type="line"/>
      <point x="44" y="629" type="line"/>
      <point x="36" y="664" type="line"/>
      <point x="139" y="693" type="line"/>
      <point x="148" y="688" type="line"/>
      <point x="148" y="360" type="line"/>
      <point x="183" y="352" type="line" name="hr02"/>
      <point x="183" y="315" type="line" name="hr03"/>
      <point x="54" y="315" type="line"/>
    </contour>
    <contour>
      <point x="464" y="164" type="line" name="hr04"/>
      <point x="464" y="300" type="line" name="hr05"/>
      <point x="361" y="164" type="line"/>
    </contour>
  </outline>
</glyph>
<glyph name="onehalf" format="1">
  <advance width="625"/>
  <unicode hex="00BD"/>
  <outline>
    <contour>
      <point x="344" y="0" type="line" name="hr00"/>
      <point x="339" y="31" type="line"/>
      <point x="367" y="63"/>
      <point x="529" y="188"/>
      <point x="529" y="269" type="curve" smooth="yes"/>
      <point x="529" y="330"/>
      <point x="479" y="337"/>
      <point x="461" y="337" type="curve" smooth="yes"/>
      <point x="442" y="337"/>
      <point x="425" y="331"/>
      <point x="416" y="327" type="curve"/>
      <point x="387" y="267" type="line"/>
      <point x="333" y="301" type="line"/>
      <point x="357" y="342"/>
      <point x="404" y="379"/>
      <point x="463" y="379" type="curve" smooth="yes"/>
      <point x="530" y="379"/>
      <point x="581" y="344"/>
      <point x="581" y="269" type="curve" smooth="yes"/>
      <point x="581" y="175"/>
      <point x="460" y="80"/>
      <point x="422" y="42" type="curve"/>
      <point x="533" y="42" type="line"/>
      <point x="552" y="93" type="line" name="hr01"/>
      <point x="590" y="93" type="line"/>
      <point x="578" y="0" type="line"/>
    </contour>
    <contour>
      <point x="50" y="350" type="line"/>
      <point x="93" y="357" type="line"/>
      <point x="93" y="635" type="line"/>
      <point x="43" y="629" type="line"/>
      <point x="35" y="664" type="line"/>
      <point x="138" y="693" type="line"/>
      <point x="147" y="688" type="line"/>
      <point x="147" y="360" type="line"/>
      <point x="182" y="352" type="line"/>
      <point x="182" y="315" type="line"/>
      <point x="53" y="315" type="line"/>
    </contour>
    <contour>
      <point x="125" y="-21" type="line"/>
      <point x="77" y="-21" type="line"/>
      <point x="74" y="-8" type="line"/>
      <point x="423" y="691" type="line"/>
      <point x="475" y="691" type="line"/>
      <point x="474" y="677" type="line"/>
    </contour>
  </outline>
</glyph>
<glyph name="threequarters" format="1">
  <advance width="654"/>
  <unicode hex="00BE"/>
  <outline>
    <contour>
      <point x="436" y="37" type="line" name="hr00"/>
      <point x="520" y="48" type="line"/>
      <point x="520" y="117" type="line"/>
      <point x="373" y="117" type="line"/>
      <point x="373" y="181" type="line"/>
      <point x="520" y="376" type="line"/>
      <point x="573" y="376" type="line"/>
      <point x="573" y="164" type="line"/>
      <point x="622" y="164" type="line"/>
      <point x="622" y="117" type="line"/>
      <point x="573" y="117" type="line"/>
      <point x="573" y="47" type="line"/>
      <point x="609" y="41" type="line"/>
      <point x="609" y="0" type="line"/>
      <point x="438" y="0" type="line"/>
    </contour>
    <contour>
      <point x="182" y="-21" type="line"/>
      <point x="134" y="-21" type="line"/>
      <point x="130" y="-8" type="line"/>
      <point x="480" y="691" type="line"/>
      <point x="532" y="691" type="line"/>
      <point x="530" y="677" type="line" name="hr01"/>
    </contour>
    <contour>
      <point x="62" y="379" type="line"/>
      <point x="82" y="360"/>
      <point x="109" y="346"/>
      <point x="144" y="346" type="curve" smooth="yes"/>
      <point x="179" y="346"/>
      <point x="225" y="366"/>
      <point x="225" y="413" type="curve" smooth="yes"/>
      <point x="225" y="460"/>
      <point x="189" y="484"/>
      <point x="105" y="484" type="curve"/>
      <point x="105" y="526" type="line"/>
      <point x="164" y="526"/>
      <point x="222" y="527"/>
      <point x="222" y="591" type="curve" smooth="yes"/>
      <point x="222" y="628"/>
      <point x="178" y="647"/>
      <point x="154" y="647" type="curve" smooth="yes"/>
      <point x="127" y="647"/>
      <point x="115" y="639"/>
      <point x="106" y="635" type="curve"/>
      <point x="79" y="589" type="line"/>
      <point x="35" y="617" type="line"/>
      <point x="51" y="648"/>
      <point x="88" y="689"/>
      <point x="159" y="689" type="curve" smooth="yes"/>
      <point x="215" y="689"/>
      <point x="269" y="656"/>
      <point x="269" y="590" type="curve" smooth="yes"/>
      <point x="269" y="550"/>
      <point x="245" y="510"/>
      <point x="198" y="503" type="curve"/>
      <point x="251" y="495"/>
      <point x="275" y="453"/>
      <point x="275" y="416" type="curve" smooth="yes" name="hr02"/>
      <point x="275" y="344"/>
      <point x="207" y="304"/>
      <point x="143" y="304" type="curve" smooth="yes" name="hr03"/>
      <point x="99" y="304"/>
      <point x="62" y="316"/>
      <point x="34" y="336" type="curve"/>
    </contour>
    <contour>
      <point x="520" y="164" type="line" name="hr04"/>
      <point x="520" y="300" type="line" name="hr05"/>
      <point x="417" y="164" type="line"/>
    </contour>
  </outline>
</glyph>
<glyph name="questiondown" format="1">
  <advance width="383"/>
  <unicode hex="00BF"/>
  <outline>
    <contour>
      <point x="286" y="243" type="line" name="hr00"/>
      <point x="288" y="236"/>
      <point x="289" y="226"/>
      <point x="289" y="214" type="curve" smooth="yes"/>
      <point x="289" y="67"/>
      <point x="100" y="82"/>
      <point x="100" y="-63" type="curve" smooth="yes"/>
      <point x="100" y="-101"/>
      <point x="122" y="-147"/>
      <point x="198" y="-147" type="curve" smooth="yes"/>
      <point x="219" y="-147"/>
      <point x="248" y="-143"/>
      <point x="265" y="-139" type="curve"/>
      <point x="293" y="-42" type="line"/>
      <point x="343" y="-42" type="line" name="hr01"/>
      <point x="324" y="-189" type="line"/>
      <point x="293" y="-200"/>
      <point x="233" y="-208"/>
      <point x="195" y="-208" type="curve" smooth="yes"/>
      <point x="78" y="-208"/>
      <point x="26" y="-148"/>
      <point x="26" y="-67" type="curve" smooth="yes"/>
      <point x="26" y="31"/>
      <point x="96" y="79"/>
      <point x="177" y="134" type="curve" smooth="yes"/>
      <point x="222" y="165"/>
      <point x="230" y="204"/>
      <point x="230" y="229" type="curve" smooth="yes"/>
      <point x="230" y="234"/>
      <point x="229" y="238"/>
      <point x="229" y="241" type="curve"/>
    </contour>
    <contour>
      <point x="303" y="430" type="curve" smooth="yes"/>
      <point x="303" y="402"/>
      <point x="280" y="379"/>
      <point x="251" y="379" type="curve" smooth="yes"/>
      <point x="223" y="379"/>
      <point x="199" y="402"/>
      <point x="199" y="430" type="curve" smooth="yes"/>
      <point x="199" y="461"/>
      <point x="223" y="483"/>
      <point x="251" y="483" type="curve" smooth="yes"/>
      <point x="280" y="483"/>
      <point x="303" y="461"/>
    </contour>
  </outline>
</glyph>
<glyph name="Acircumflex" format="1">
  <advance width="570"/>
  <unicode hex="00C2"/>
  <outline>
    <contour>
      <point x="273" y="884" type="line" name="hr00"/>
      <point x="289" y="884" type="line"/>
      <point x="429" y="727" type="line"/>
      <point x="356" y="727" type="line"/>
      <point x="280" y="790" type="line"/>
      <point x="205" y="727" type="line"/>
      <point x="131" y="727" type="line"/>
    </contour>
    <contour>
      <point x="364" y="0" type="line"/>
      <point x="364" y="44" type="line"/>
      <point x="445" y="65" type="line"/>
      <point x="392" y="241" type="line"/>
      <point x="169" y="241" type="line"/>
      <point x="117" y="62" type="line"/>
      <point x="205" y="45" type="line"/>
      <point x="205" y="0" type="line"/>
      <point x="11" y="0" type="line"/>
      <point x="-2" y="47" type="line"/>
      <point x="52" y="65" type="line"/>
      <point x="243" y="691" type="line"/>
      <point x="327" y="691" type="line"/>
      <point x="519" y="65" type="line"/>
      <point x="566" y="47" type="line"/>
      <point x="555" y="0" type="line"/>
    </contour>
    <contour>
      <point x="279" y="616" type="line"/>
      <point x="188" y="304" type="line"/>
      <point x="373" y="304" type="line"/>
    </contour>
  </outline>
</glyph>
<glyph name="Atilde" format="1">
  <advance width="570"/>
  <unicode hex="00C3"/>
  <outline>
    <contour>
      <point x="429" y="836" type="line" name="hr00"/>
      <point x="466" y="770" type="line"/>
      <point x="446" y="752"/>
      <point x="409" y="727"/>
      <point x="382" y="727" type="curve" smooth="yes"/>
      <point x="322" y="727"/>
      <point x="302" y="778"/>
      <point x="243" y="778" type="curve" smooth="yes"/>
      <point x="200" y="778"/>
      <point x="183" y="753"/>
      <point x="168" y="729" type="curve"/>
      <point x="131" y="760" type="line"/>
      <point x="131" y="776" type="line"/>
      <point x="140" y="791"/>
      <point x="168" y="842"/>
      <point x="245" y="842" type="curve" smooth="yes"/>
      <point x="294" y="842"/>
      <point x="325" y="815"/>
      <point x="367" y="786" type="curve"/>
    </contour>
    <contour>
      <point x="364" y="0" type="line"/>
      <point x="364" y="44" type="line"/>
      <point x="445" y="65" type="line"/>
      <point x="392" y="241" type="line"/>
      <point x="169" y="241" type="line"/>
      <point x="117" y="62" type="line"/>
      <point x="205" y="45" type="line"/>
      <point x="205" y="0" type="line"/>
      <point x="11" y="0" type="line"/>
      <point x="-2" y="47" type="line"/>
      <point x="52" y="65" type="line"/>
      <point x="243" y="691" type="line"/>
      <point x="327" y="691" type="line"/>
      <point x="519" y="65" type="line"/>
      <point x="566" y="47" type="line"/>
      <point x="555" y="0" type="line"/>
    </contour>
    <contour>
      <point x="279" y="616" type="line" name="hr01"/>
      <point x="188" y="304" type="line"/>
      <point x="373" y="304" type="line"/>
    </contour>
  </outline>
</glyph>
<glyph name="Adieresis" format="1">
  <advance width="570"/>
  <unicode hex="00C4"/>
  <outline>
    <contour>
      <point x="364" y="0" type="line" name="hr00"/>
      <point x="364" y="44" type="line"/>
      <point x="445" y="65" type="line"/>
      <point x="392" y="241" type="line"/>
      <point x="169" y="241" type="line"/>
      <point x="117" y="62" type="line"/>
      <point x="205" y="45" type="line"/>
      <point x="205" y="0" type="line"/>
      <point x="11" y="0" type="line"/>
      <point x="-2" y="47" type="line"/>
      <point x="52" y="65" type="line"/>
      <point x="243" y="691" type="line"/>
      <point x="327" y="691" type="line"/>
      <point x="519" y="65" type="line"/>
      <point x="566" y="47" type="line"/>
      <point x="555" y="0" type="line"/>
    </contour>
    <contour>
      <point x="279" y="616" type="line"/>
      <point x="188" y="304" type="line"/>
      <point x="373" y="304" type="line"/>
    </contour>
    <contour>
      <point x="127" y="772" type="curve" smooth="yes"/>
      <point x="127" y="804"/>
      <point x="152" y="829"/>
      <point x="184" y="829" type="curve" smooth="yes"/>
      <point x="215" y="829"/>
      <point x="242" y="804"/>
      <point x="242" y="772" type="curve" smooth="yes"/>
      <point x="242" y="740"/>
      <point x="215" y="714"/>
      <point x="184" y="714" type="curve" smooth="yes"/>
      <point x="152" y="714"/>
      <point x="127" y="740"/>
    </contour>
    <contour>
      <point x="303" y="772" type="curve" smooth="yes"/>
      <point x="303" y="804"/>
      <point x="330" y="829"/>
      <point x="363" y="829" type="curve" smooth="yes"/>
      <point x="394" y="829"/>
      <point x="418" y="804"/>
      <point x="418" y="772" type="curve" smooth="yes"/>
      <point x="418" y="740"/>
      <point x="394" y="714"/>
      <point x="363" y="714" type="curve" smooth="yes"/>
      <point x="330" y="714"/>
      <point x="303" y="740"/>
    </contour>
  </outline>
</glyph>
<glyph name="Aring" format="1">
  <advance width="567"/>
  <unicode hex="00C5"/>
  <outline>
    <contour>
      <point x="363" y="0" type="line" name="hr00"/>
      <point x="363" y="44" type="line"/>
      <point x="444" y="65" type="line"/>
      <point x="391" y="241" type="line"/>
      <point x="168" y="241" type="line"/>
      <point x="116" y="62" type="line"/>
      <point x="204" y="45" type="line"/>
      <point x="204" y="0" type="line"/>
      <point x="10" y="0" type="line"/>
      <point x="-3" y="47" type="line"/>
      <point x="51" y="65" type="line"/>
      <point x="235" y="670" type="line"/>
      <point x="208" y="686"/>
      <point x="191" y="716"/>
      <point x="191" y="751" type="curve" smooth="yes"/>
      <point x="191" y="803"/>
      <point x="233" y="845"/>
      <point x="286" y="845" type="curve" smooth="yes"/>
      <point x="338" y="845"/>
      <point x="380" y="803"/>
      <point x="380" y="751" type="curve" smooth="yes"/>
      <point x="380" y="715"/>
      <point x="361" y="685"/>
      <point x="333" y="668" type="curve"/>
      <point x="518" y="65" type="line"/>
      <point x="565" y="47" type="line"/>
      <point x="554" y="0" type="line"/>
    </contour>
    <contour>
      <point x="278" y="616" type="line"/>
      <point x="187" y="304" type="line"/>
      <point x="372" y="304" type="line"/>
    </contour>
    <contour>
      <point x="248" y="751" type="curve" smooth="yes"/>
      <point x="248" y="728"/>
      <point x="263" y="713"/>
      <point x="286" y="713" type="curve" smooth="yes"/>
      <point x="309" y="713"/>
      <point x="323" y="728"/>
      <point x="323" y="751" type="curve" smooth="yes"/>
      <point x="323" y="774"/>
      <point x="309" y="789"/>
      <point x="286" y="789" type="curve" smooth="yes"/>
      <point x="263" y="789"/>
      <point x="248" y="774"/>
    </contour>
  </outline>
</glyph>
<glyph name="AE" format="1">
  <advance width="720"/>
  <unicode hex="00C6"/>
  <outline>
    <contour>
      <point x="1" y="0" type="line" name="hr00"/>
      <point x="-12" y="47" type="line"/>
      <point x="41" y="65" type="line"/>
      <point x="278" y="691" type="line"/>
      <point x="650" y="691" type="line"/>
      <point x="670" y="520" type="line"/>
      <point x="622" y="520" type="line"/>
      <point x="588" y="623" type="line"/>
      <point x="399" y="623" type="line"/>
      <point x="399" y="364" type="line"/>
      <point x="541" y="364" type="line"/>
      <point x="541" y="301" type="line"/>
      <point x="399" y="301" type="line"/>
      <point x="399" y="68" type="line"/>
      <point x="598" y="68" type="line"/>
      <point x="633" y="171" type="line"/>
      <point x="680" y="171" type="line"/>
      <point x="661" y="0" type="line"/>
      <point x="291" y="0" type="line"/>
      <point x="283" y="56" type="line"/>
      <point x="331" y="68" type="line"/>
      <point x="331" y="298" type="line"/>
      <point x="196" y="298" type="line"/>
      <point x="107" y="62" type="line"/>
      <point x="193" y="45" type="line"/>
      <point x="193" y="0" type="line"/>
    </contour>
    <contour>
      <point x="331" y="627" type="line"/>
      <point x="320" y="628" type="line"/>
      <point x="219" y="361" type="line"/>
      <point x="331" y="361" type="line"/>
    </contour>
  </outline>
</glyph>
<glyph name="Ccedilla" format="1">
  <advance width="559"/>
  <unicode hex="00C7"/>
  <outline>
    <contour>
      <point x="293" y="-90" type="line" name="hr00"/>
      <point x="278" y="-74" type="line"/>
      <point x="306" y="2" type="line"/>
      <point x="144" y="32"/>
      <point x="42" y="168"/>
      <point x="42" y="346" type="curve" smooth="yes"/>
      <point x="42" y="534"/>
      <point x="178" y="691"/>
      <point x="377" y="691" type="curve" smooth="yes"/>
      <point x="419" y="691"/>
      <point x="456" y="686"/>
      <point x="494" y="678" type="curve"/>
      <point x="512" y="520" type="line"/>
      <point x="455" y="520" type="line"/>
      <point x="431" y="618" type="line"/>
      <point x="421" y="619"/>
      <point x="412" y="623"/>
      <point x="379" y="623" type="curve" smooth="yes"/>
      <point x="212" y="623"/>
      <point x="113" y="491"/>
      <point x="113" y="348" type="curve" smooth="yes" name="hr01"/>
      <point x="113" y="191"/>
      <point x="210" y="64"/>
      <point x="374" y="64" type="curve" smooth="yes" name="hr02"/>
      <point x="419" y="64"/>
      <point x="469" y="78"/>
      <point x="502" y="99" type="curve"/>
      <point x="527" y="38" type="line"/>
      <point x="493" y="14"/>
      <point x="430" y="-4"/>
      <point x="375" y="-4" type="curve" smooth="yes"/>
      <point x="371" y="-4"/>
      <point x="367" y="-3"/>
      <point x="363" y="-3" type="curve"/>
      <point x="351" y="-41" type="line"/>
      <point x="395" y="-45"/>
      <point x="443" y="-75"/>
      <point x="443" y="-136" type="curve" smooth="yes"/>
      <point x="443" y="-194"/>
      <point x="403" y="-236"/>
      <point x="321" y="-236" type="curve" smooth="yes"/>
      <point x="284" y="-236"/>
      <point x="258" y="-226"/>
      <point x="233" y="-216" type="curve"/>
      <point x="232" y="-216"/>
      <point x="231" y="-215"/>
      <point x="230" y="-215" type="curve"/>
      <point x="221" y="-212" type="line"/>
      <point x="258" y="-141" type="line"/>
      <point x="323" y="-181" type="line"/>
      <point x="355" y="-181"/>
      <point x="378" y="-164"/>
      <point x="378" y="-137" type="curve" smooth="yes"/>
      <point x="378" y="-116"/>
      <point x="358" y="-90"/>
      <point x="301" y="-90" type="curve" smooth="yes" name="hr03"/>
    </contour>
  </outline>
</glyph>
<glyph name="Ecircumflex" format="1">
  <advance width="523"/>
  <unicode hex="00CA"/>
  <outline>
    <contour>
      <point x="251" y="884" type="line" name="hr00"/>
      <point x="267" y="884" type="line"/>
      <point x="408" y="727" type="line"/>
      <point x="334" y="727" type="line"/>
      <point x="258" y="790" type="line"/>
      <point x="183" y="727" type="line"/>
      <point x="109" y="727" type="line"/>
    </contour>
    <contour>
      <point x="55" y="632" type="line"/>
      <point x="55" y="691" type="line"/>
      <point x="453" y="691" type="line"/>
      <point x="473" y="520" type="line" name="hr01"/>
      <point x="425" y="520" type="line"/>
      <point x="391" y="623" type="line" name="hr02"/>
      <point x="181" y="623" type="line"/>
      <point x="181" y="377" type="line"/>
      <point x="343" y="377" type="line"/>
      <point x="343" y="314" type="line"/>
      <point x="181" y="314" type="line" name="hr03"/>
      <point x="181" y="68" type="line"/>
      <point x="401" y="68" type="line"/>
      <point x="436" y="171" type="line" name="hr04"/>
      <point x="483" y="171" type="line"/>
      <point x="464" y="0" type="line"/>
      <point x="62" y="0" type="line"/>
      <point x="55" y="56" type="line"/>
      <point x="112" y="68" type="line"/>
      <point x="112" y="627" type="line"/>
    </contour>
  </outline>
</glyph>
<glyph name="Edieresis" format="1">
  <advance width="523"/>
  <unicode hex="00CB"/>
  <outline>
    <contour>
      <point x="55" y="632" type="line" name="hr00"/>
      <point x="55" y="691" type="line"/>
      <point x="453" y="691" type="line"/>
      <point x="473" y="520" type="line"/>
      <point x="425" y="520" type="line"/>
      <point x="391" y="623" type="line"/>
      <point x="181" y="623" type="line"/>
      <point x="181" y="377" type="line"/>
      <point x="343" y="377" type="line"/>
      <point x="343" y="314" type="line"/>
      <point x="181" y="314" type="line"/>
      <point x="181" y="68" type="line"/>
      <point x="401" y="68" type="line"/>
      <point x="436" y="171" type="line"/>
      <point x="483" y="171" type="line"/>
      <point x="464" y="0" type="line"/>
      <point x="62" y="0" type="line"/>
      <point x="55" y="56" type="line"/>
      <point x="112" y="68" type="line" name="hr01"/>
      <point x="112" y="627" type="line"/>
    </contour>
    <contour>
      <point x="119" y="793" type="curve" smooth="yes" name="hr02"/>
      <point x="119" y="825"/>
      <point x="144" y="850"/>
      <point x="176" y="850" type="curve" smooth="yes"/>
      <point x="207" y="850"/>
      <point x="234" y="825"/>
      <point x="234" y="793" type="curve" smooth="yes" name="hr03"/>
      <point x="234" y="761"/>
      <point x="207" y="735"/>
      <point x="176" y="735" type="curve" smooth="yes"/>
      <point x="144" y="735"/>
      <point x="119" y="761"/>
    </contour>
    <contour>
      <point x="295" y="793" type="curve" smooth="yes"/>
      <point x="295" y="825"/>
      <point x="322" y="850"/>
      <point x="355" y="850" type="curve" smooth="yes"/>
      <point x="386" y="850"/>
      <point x="410" y="825"/>
      <point x="410" y="793" type="curve" smooth="yes"/>
      <point x="410" y="761"/>
      <point x="386" y="735"/>
      <point x="355" y="735" type="curve" smooth="yes"/>
      <point x="322" y="735"/>
      <point x="295" y="761"/>
    </contour>
  </outline>
</glyph>
<glyph name="Iacute" format="1">
  <advance width="293"/>
  <unicode hex="00CD"/>
  <outline>
    <contour>
      <point x="37" y="764" type="line" name="hr00"/>
      <point x="194" y="897" type="line"/>
      <point x="225" y="890" type="line"/>
      <point x="261" y="818" type="line"/>
      <point x="68" y="717" type="line" name="hr01"/>
    </contour>
    <contour>
      <point x="112" y="64" type="line"/>
      <point x="112" y="627" type="line"/>
      <point x="55" y="631" type="line"/>
      <point x="55" y="691" type="line" name="hr02"/>
      <point x="231" y="691" type="line"/>
      <point x="235" y="635" type="line" name="hr03"/>
      <point x="181" y="627" type="line"/>
      <point x="181" y="64" type="line"/>
      <point x="238" y="60" type="line"/>
      <point x="238" y="0" type="line"/>
      <point x="62" y="0" type="line"/>
      <point x="58" y="56" type="line"/>
    </contour>
  </outline>
</glyph>
<glyph name="Icircumflex" format="1">
  <advance width="293"/>
  <unicode hex="00CE"/>
  <outline>
    <contour>
      <point x="141" y="884" type="line" name="hr00"/>
      <point x="157" y="884" type="line"/>
      <point x="297" y="727" type="line"/>
      <point x="224" y="727" type="line"/>
      <point x="148" y="790" type="line" name="hr01"/>
      <point x="73" y="727" type="line"/>
      <point x="-1" y="727" type="line"/>
    </contour>
    <contour>
      <point x="112" y="64" type="line"/>
      <point x="112" y="627" type="line" name="hr02"/>
      <point x="55" y="631" type="line"/>
      <point x="55" y="691" type="line" name="hr03"/>
      <point x="231" y="691" type="line"/>
      <point x="235" y="635" type="line"/>
      <point x="181" y="627" type="line"/>
      <point x="181" y="64" type="line"/>
      <point x="238" y="60" type="line"/>
      <point x="238" y="0" type="line"/>
      <point x="62" y="0" type="line"/>
      <point x="58" y="56" type="line"/>
    </contour>
  </outline>
</glyph>
<glyph name="Idieresis" format="1">
  <advance width="293"/>
  <unicode hex="00CF"/>
  <outline>
    <contour>
      <point x="20" y="793" type="curve" smooth="yes" name="hr00"/>
      <point x="20" y="824"/>
      <point x="44" y="850"/>
      <point x="76" y="850" type="curve" smooth="yes"/>
      <point x="108" y="850"/>
      <point x="134" y="824"/>
      <point x="134" y="793" type="curve" smooth="yes"/>
      <point x="134" y="761"/>
      <point x="108" y="735"/>
      <point x="76" y="735" type="curve" smooth="yes"/>
      <point x="44" y="735"/>
      <point x="20" y="761"/>
    </contour>
    <contour>
      <point x="165" y="793" type="curve" smooth="yes"/>
      <point x="165" y="824"/>
      <point x="191" y="850"/>
      <point x="223" y="850" type="curve" smooth="yes"/>
      <point x="255" y="850"/>
      <point x="279" y="824"/>
      <point x="279" y="793" type="curve" smooth="yes"/>
      <point x="279" y="761"/>
      <point x="255" y="735"/>
      <point x="223" y="735" type="curve" smooth="yes" name="hr02"/>
      <point x="191" y="735"/>
      <point x="165" y="761"/>
    </contour>
    <contour>
      <point x="112" y="64" type="line" name="hr03"/>
      <point x="112" y="627" type="line"/>
      <point x="55" y="631" type="line" name="hr04"/>
      <point x="55" y="691" type="line"/>
      <point x="231" y="691" type="line"/>
      <point x="235" y="635" type="line"/>
      <point x="181" y="627" type="line"/>
      <point x="181" y="64" type="line"/>
      <point x="238" y="60" type="line"/>
      <point x="238" y="0" type="line"/>
      <point x="62" y="0" type="line"/>
      <point x="58" y="56" type="line"/>
    </contour>
  </outline>
</glyph>
<glyph name="Eth" format="1">
  <advance width="606"/>
  <unicode hex="00D0"/>
  <outline>
    <contour>
      <point x="56" y="56" type="line" name="hr00"/>
      <point x="113" y="69" type="line"/>
      <point x="113" y="314" type="line"/>
      <point x="23" y="314" type="line"/>
      <point x="23" y="369" type="line"/>
      <point x="30" y="377" type="line"/>
      <point x="113" y="377" type="line"/>
      <point x="113" y="627" type="line"/>
      <point x="56" y="632" type="line"/>
      <point x="56" y="691" type="line"/>
      <point x="199" y="691" type="line" smooth="yes"/>
      <point x="405" y="691"/>
      <point x="562" y="582"/>
      <point x="562" y="349" type="curve" smooth="yes"/>
      <point x="562" y="112"/>
      <point x="425" y="0"/>
      <point x="212" y="0" type="curve" smooth="yes"/>
      <point x="63" y="0" type="line"/>
    </contour>
    <contour>
      <point x="491" y="348" type="curve" smooth="yes"/>
      <point x="491" y="511"/>
      <point x="388" y="623"/>
      <point x="209" y="623" type="curve" smooth="yes"/>
      <point x="182" y="623" type="line"/>
      <point x="182" y="377" type="line"/>
      <point x="350" y="377" type="line" smooth="yes"/>
      <point x="355" y="377"/>
      <point x="357" y="374"/>
      <point x="357" y="370" type="curve" smooth="yes"/>
      <point x="357" y="314" type="line"/>
      <point x="182" y="314" type="line"/>
      <point x="182" y="68" type="line"/>
      <point x="226" y="68" type="line" smooth="yes"/>
      <point x="436" y="68"/>
      <point x="491" y="211"/>
    </contour>
  </outline>
</glyph>
<glyph name="Ntilde" format="1">
  <advance width="659"/>
  <unicode hex="00D1"/>
  <outline>
    <contour>
      <point x="467" y="836" type="line" name="hr00"/>
      <point x="504" y="770" type="line"/>
      <point x="484" y="752"/>
      <point x="447" y="727"/>
      <point x="420" y="727" type="curve" smooth="yes"/>
      <point x="360" y="727"/>
      <point x="340" y="778"/>
      <point x="281" y="778" type="curve" smooth="yes"/>
      <point x="238" y="778"/>
      <point x="221" y="753"/>
      <point x="206" y="729" type="curve"/>
      <point x="169" y="760" type="line"/>
      <point x="169" y="776" type="line"/>
      <point x="178" y="791"/>
      <point x="206" y="842"/>
      <point x="283" y="842" type="curve" smooth="yes"/>
      <point x="332" y="842"/>
      <point x="363" y="815"/>
      <point x="405" y="786" type="curve"/>
    </contour>
    <contour>
      <point x="174" y="629" type="line"/>
      <point x="174" y="66" type="line"/>
      <point x="241" y="56" type="line"/>
      <point x="241" y="0" type="line"/>
      <point x="62" y="0" type="line"/>
      <point x="54" y="56" type="line"/>
      <point x="112" y="68" type="line"/>
      <point x="112" y="627" type="line"/>
      <point x="54" y="632" type="line"/>
      <point x="54" y="691" type="line"/>
      <point x="221" y="691" type="line"/>
      <point x="491" y="75" type="line"/>
      <point x="491" y="625" type="line"/>
      <point x="427" y="635" type="line"/>
      <point x="427" y="691" type="line"/>
      <point x="605" y="691" type="line"/>
      <point x="615" y="635" type="line"/>
      <point x="554" y="623" type="line" name="hr01"/>
      <point x="554" y="0" type="line"/>
      <point x="449" y="0" type="line"/>
    </contour>
  </outline>
</glyph>
<glyph name="Oacute" format="1">
  <advance width="645"/>
  <unicode hex="00D3"/>
  <outline>
    <contour>
      <point x="208" y="764" type="line" name="hr00"/>
      <point x="366" y="897" type="line"/>
      <point x="396" y="890" type="line"/>
      <point x="433" y="818" type="line"/>
      <point x="240" y="717" type="line"/>
    </contour>
    <contour>
      <point x="323" y="-4" type="curve" smooth="yes"/>
      <point x="133" y="-4"/>
      <point x="50" y="175"/>
      <point x="50" y="343" type="curve" smooth="yes"/>
      <point x="50" y="511"/>
      <point x="133" y="691"/>
      <point x="323" y="691" type="curve" smooth="yes"/>
      <point x="513" y="691"/>
      <point x="595" y="511"/>
      <point x="595" y="343" type="curve" smooth="yes"/>
      <point x="595" y="175"/>
      <point x="513" y="-4"/>
    </contour>
    <contour>
      <point x="121" y="341" type="curve" smooth="yes"/>
      <point x="121" y="205"/>
      <point x="177" y="64"/>
      <point x="323" y="64" type="curve" smooth="yes"/>
      <point x="469" y="64"/>
      <point x="524" y="205"/>
      <point x="524" y="341" type="curve" smooth="yes"/>
      <point x="524" y="477"/>
      <point x="469" y="623"/>
      <point x="323" y="623" type="curve" smooth="yes"/>
      <point x="177" y="623"/>
      <point x="121" y="477"/>
    </contour>
  </outline>
</glyph>
<glyph name="Otilde" format="1">
  <advance width="645"/>
  <unicode hex="00D5"/>
  <outline>
    <contour>
      <point x="462" y="836" type="line" name="hr00"/>
      <point x="499" y="770" type="line"/>
      <point x="479" y="752"/>
      <point x="442" y="727"/>
      <point x="415" y="727" type="curve" smooth="yes"/>
      <point x="355" y="727"/>
      <point x="335" y="778"/>
      <point x="276" y="778" type="curve" smooth="yes"/>
      <point x="233" y="778"/>
      <point x="216" y="753"/>
      <point x="201" y="729" type="curve"/>
      <point x="164" y="760" type="line"/>
      <point x="164" y="776" type="line"/>
      <point x="173" y="791"/>
      <point x="201" y="842"/>
      <point x="278" y="842" type="curve" smooth="yes"/>
      <point x="327" y="842"/>
      <point x="358" y="815"/>
      <point x="400" y="786" type="curve"/>
    </contour>
    <contour>
      <point x="323" y="-4" type="curve" smooth="yes"/>
      <point x="133" y="-4"/>
      <point x="50" y="175"/>
      <point x="50" y="343" type="curve" smooth="yes"/>
      <point x="50" y="511"/>
      <point x="133" y="691"/>
      <point x="323" y="691" type="curve" smooth="yes"/>
      <point x="513" y="691"/>
      <point x="595" y="511"/>
      <point x="595" y="343" type="curve" smooth="yes"/>
      <point x="595" y="175"/>
      <point x="513" y="-4"/>
    </contour>
    <contour>
      <point x="121" y="341" type="curve" smooth="yes"/>
      <point x="121" y="205"/>
      <point x="177" y="64"/>
      <point x="323" y="64" type="curve" smooth="yes"/>
      <point x="469" y="64"/>
      <point x="524" y="205"/>
      <point x="524" y="341" type="curve" smooth="yes" name="hr01"/>
      <point x="524" y="477"/>
      <point x="469" y="623"/>
      <point x="323" y="623" type="curve" smooth="yes"/>
      <point x="177" y="623"/>
      <point x="121" y="477"/>
    </contour>
  </outline>
</glyph>
<glyph name="Odieresis" format="1">
  <advance width="645"/>
  <unicode hex="00D6"/>
  <outline>
    <contour>
      <point x="323" y="-4" type="curve" smooth="yes" name="hr00"/>
      <point x="133" y="-4"/>
      <point x="50" y="175"/>
      <point x="50" y="343" type="curve" smooth="yes"/>
      <point x="50" y="511"/>
      <point x="133" y="691"/>
      <point x="323" y="691" type="curve" smooth="yes"/>
      <point x="513" y="691"/>
      <point x="595" y="511"/>
      <point x="595" y="343" type="curve" smooth="yes"/>
      <point x="595" y="175"/>
      <point x="513" y="-4"/>
    </contour>
    <contour>
      <point x="121" y="341" type="curve" smooth="yes"/>
      <point x="121" y="205"/>
      <point x="177" y="64"/>
      <point x="323" y="64" type="curve" smooth="yes"/>
      <point x="469" y="64"/>
      <point x="524" y="205"/>
      <point x="524" y="341" type="curve" smooth="yes"/>
      <point x="524" y="477"/>
      <point x="469" y="623"/>
      <point x="323" y="623" type="curve" smooth="yes"/>
      <point x="177" y="623"/>
      <point x="121" y="477"/>
    </contour>
    <contour>
      <point x="187" y="793" type="curve" smooth="yes"/>
      <point x="187" y="825"/>
      <point x="212" y="850"/>
      <point x="244" y="850" type="curve" smooth="yes"/>
      <point x="275" y="850"/>
      <point x="302" y="825"/>
      <point x="302" y="793" type="curve" smooth="yes"/>
      <point x="302" y="761"/>
      <point x="275" y="735"/>
      <point x="244" y="735" type="curve" smooth="yes"/>
      <point x="212" y="735"/>
      <point x="187" y="761"/>
    </contour>
    <contour>
      <point x="363" y="793" type="curve" smooth="yes"/>
      <point x="363" y="825"/>
      <point x="390" y="850"/>
      <point x="423" y="850" type="curve" smooth="yes"/>
      <point x="454" y="850"/>
      <point x="478" y="825"/>
      <point x="478" y="793" type="curve" smooth="yes"/>
      <point x="478" y="761"/>
      <point x="454" y="735"/>
      <point x="423" y="735" type="curve" smooth="yes"/>
      <point x="390" y="735"/>
      <point x="363" y="761"/>
    </contour>
  </outline>
</glyph>
<glyph name="multiply" format="1">
  <advance width="513"/>
  <unicode hex="00D7"/>
  <outline>
    <contour>
      <point x="54" y="186" type="line" name="hr00"/>
      <point x="212" y="340" type="line"/>
      <point x="59" y="498" type="line"/>
      <point x="103" y="542" type="line"/>
      <point x="257" y="383" type="line"/>
      <point x="415" y="537" type="line"/>
      <point x="459" y="492" type="line"/>
      <point x="301" y="338" type="line"/>
      <point x="454" y="181" type="line"/>
      <point x="410" y="136" type="line"/>
      <point x="256" y="295" type="line"/>
      <point x="98" y="142" type="line"/>
    </contour>
  </outline>
</glyph>
<glyph name="Oslash" format="1">
  <advance width="645"/>
  <unicode hex="00D8"/>
  <outline>
    <contour>
      <point x="323" y="-4" type="curve" smooth="yes" name="hr00"/>
      <point x="272" y="-4"/>
      <point x="229" y="8"/>
      <point x="193" y="30" type="curve"/>
      <point x="158" y="-42" type="line"/>
      <point x="94" y="-42" type="line"/>
      <point x="91" y="-29" type="line"/>
      <point x="141" y="73" type="line"/>
      <point x="79" y="141"/>
      <point x="50" y="244"/>
      <point x="50" y="343" type="curve" smooth="yes"/>
      <point x="50" y="511"/>
      <point x="133" y="691"/>
      <point x="323" y="691" type="curve" smooth="yes"/>
      <point x="365" y="691"/>
      <point x="401" y="682"/>
      <point x="433" y="666" type="curve"/>
      <point x="472" y="745" type="line"/>
      <point x="539" y="745" type="line"/>
      <point x="538" y="731" type="line"/>
      <point x="488" y="629" type="line"/>
      <point x="561" y="562"/>
      <point x="595" y="450"/>
      <point x="595" y="343" type="curve" smooth="yes"/>
      <point x="595" y="175"/>
      <point x="513" y="-4"/>
    </contour>
    <contour>
      <point x="323" y="64" type="curve" smooth="yes"/>
      <point x="469" y="64"/>
      <point x="524" y="205"/>
      <point x="524" y="341" type="curve" smooth="yes"/>
      <point x="524" y="423"/>
      <point x="504" y="509"/>
      <point x="456" y="564" type="curve"/>
      <point x="224" y="92" type="line"/>
      <point x="251" y="74"/>
      <point x="283" y="64"/>
    </contour>
    <contour>
      <point x="121" y="341" type="curve" smooth="yes"/>
      <point x="121" y="268"/>
      <point x="137" y="194"/>
      <point x="174" y="140" type="curve"/>
      <point x="403" y="605" type="line"/>
      <point x="380" y="616"/>
      <point x="353" y="623"/>
      <point x="323" y="623" type="curve" smooth="yes"/>
      <point x="177" y="623"/>
      <point x="121" y="477"/>
    </contour>
  </outline>
</glyph>
<glyph name="Uacute" format="1">
  <advance width="628"/>
  <unicode hex="00DA"/>
  <outline>
    <contour>
      <point x="219" y="764" type="line" name="hr00"/>
      <point x="377" y="897" type="line"/>
      <point x="407" y="890" type="line"/>
      <point x="444" y="818" type="line"/>
      <point x="251" y="717" type="line"/>
    </contour>
    <contour>
      <point x="417" y="631" type="line"/>
      <point x="417" y="691" type="line"/>
      <point x="587" y="691" type="line"/>
      <point x="591" y="635" type="line"/>
      <point x="536" y="627" type="line"/>
      <point x="536" y="202" type="line" smooth="yes"/>
      <point x="536" y="71"/>
      <point x="437" y="-4"/>
      <point x="313" y="-4" type="curve" smooth="yes"/>
      <point x="187" y="-4"/>
      <point x="96" y="77"/>
      <point x="96" y="202" type="curve" smooth="yes"/>
      <point x="96" y="627" type="line"/>
      <point x="38" y="631" type="line"/>
      <point x="38" y="691" type="line"/>
      <point x="215" y="691" type="line"/>
      <point x="219" y="635" type="line"/>
      <point x="164" y="627" type="line"/>
      <point x="164" y="213" type="line" smooth="yes"/>
      <point x="164" y="118"/>
      <point x="222" y="63"/>
      <point x="319" y="63" type="curve" smooth="yes"/>
      <point x="402" y="63"/>
      <point x="474" y="104"/>
      <point x="474" y="213" type="curve" smooth="yes"/>
      <point x="474" y="627" type="line"/>
    </contour>
  </outline>
</glyph>
<glyph name="Udieresis" format="1">
  <advance width="628"/>
  <unicode hex="00DC"/>
  <outline>
    <contour>
      <point x="417" y="631" type="line" name="hr00"/>
      <point x="417" y="691" type="line"/>
      <point x="587" y="691" type="line"/>
      <point x="591" y="635" type="line"/>
      <point x="536" y="627" type="line"/>
      <point x="536" y="202" type="line" smooth="yes"/>
      <point x="536" y="71"/>
      <point x="437" y="-4"/>
      <point x="313" y="-4" type="curve" smooth="yes"/>
      <point x="187" y="-4"/>
      <point x="96" y="77"/>
      <point x="96" y="202" type="curve" smooth="yes"/>
      <point x="96" y="627" type="line"/>
      <point x="38" y="631" type="line"/>
      <point x="38" y="691" type="line"/>
      <point x="215" y="691" type="line"/>
      <point x="219" y="635" type="line"/>
      <point x="164" y="627" type="line"/>
      <point x="164" y="213" type="line" smooth="yes"/>
      <point x="164" y="118"/>
      <point x="222" y="63"/>
      <point x="319" y="63" type="curve" smooth="yes"/>
      <point x="402" y="63"/>
      <point x="474" y="104"/>
      <point x="474" y="213" type="curve" smooth="yes"/>
      <point x="474" y="627" type="line"/>
    </contour>
    <contour>
      <point x="164" y="793" type="curve" smooth="yes"/>
      <point x="164" y="825"/>
      <point x="189" y="850"/>
      <point x="221" y="850" type="curve" smooth="yes" name="hr01"/>
      <point x="252" y="850"/>
      <point x="279" y="825"/>
      <point x="279" y="793" type="curve" smooth="yes"/>
      <point x="279" y="761"/>
      <point x="252" y="735"/>
      <point x="221" y="735" type="curve" smooth="yes"/>
      <point x="189" y="735"/>
      <point x="164" y="761"/>
    </contour>
    <contour>
      <point x="340" y="793" type="curve" smooth="yes"/>
      <point x="340" y="825"/>
      <point x="367" y="850"/>
      <point x="400" y="850" type="curve" smooth="yes"/>
      <point x="431" y="850"/>
      <point x="455" y="825"/>
      <point x="455" y="793" type="curve" smooth="yes"/>
      <point x="455" y="761"/>
      <point x="431" y="735"/>
      <point x="400" y="735" type="curve" smooth="yes"/>
      <point x="367" y="735"/>
      <point x="340" y="761"/>
    </contour>
  </outline>
</glyph>
<glyph name="Thorn" format="1">
  <advance width="500"/>
  <unicode hex="00DE"/>
  <outline>
    <contour>
      <point x="112" y="64" type="line" name="hr00"/>
      <point x="112" y="627" type="line"/>
      <point x="55" y="631" type="line"/>
      <point x="55" y="691" type="line"/>
      <point x="232" y="691" type="line"/>
      <point x="236" y="635" type="line"/>
      <point x="181" y="627" type="line"/>
      <point x="181" y="561" type="line"/>
      <point x="224" y="561" type="line" smooth="yes"/>
      <point x="357" y="561"/>
      <point x="475" y="516"/>
      <point x="475" y="371" type="curve" smooth="yes"/>
      <point x="475" y="226"/>
      <point x="355" y="175"/>
      <point x="221" y="175" type="curve" smooth="yes" name="hr01"/>
      <point x="181" y="175" type="line"/>
      <point x="181" y="64" type="line"/>
      <point x="291" y="51" type="line"/>
      <point x="291" y="0" type="line"/>
      <point x="63" y="0" type="line"/>
      <point x="58" y="56" type="line"/>
    </contour>
    <contour>
      <point x="217" y="244" type="line" smooth="yes" name="hr02"/>
      <point x="320" y="244"/>
      <point x="402" y="270"/>
      <point x="402" y="370" type="curve" smooth="yes"/>
      <point x="402" y="470"/>
      <point x="322" y="492"/>
      <point x="218" y="492" type="curve" smooth="yes"/>
      <point x="181" y="492" type="line"/>
      <point x="181" y="244" type="line"/>
    </contour>
  </outline>
</glyph>
<glyph name="germandbls" format="1">
  <advance width="511"/>
  <unicode hex="00DF"/>
  <outline>
    <contour>
      <point x="214" y="87" type="line" name="hr00"/>
      <point x="214" y="87"/>
      <point x="289" y="57"/>
      <point x="302" y="53" type="curve"/>
      <point x="375" y="53"/>
      <point x="417" y="104"/>
      <point x="417" y="166" type="curve" smooth="yes"/>
      <point x="417" y="226"/>
      <point x="383" y="257"/>
      <point x="315" y="292" type="curve" smooth="yes"/>
      <point x="255" y="323"/>
      <point x="223" y="351"/>
      <point x="223" y="397" type="curve" smooth="yes"/>
      <point x="223" y="475"/>
      <point x="314" y="495"/>
      <point x="314" y="586" type="curve" smooth="yes"/>
      <point x="314" y="629"/>
      <point x="285" y="670"/>
      <point x="232" y="670" type="curve" smooth="yes"/>
      <point x="162" y="670"/>
      <point x="150" y="613"/>
      <point x="150" y="559" type="curve" smooth="yes"/>
      <point x="150" y="0" type="line"/>
      <point x="35" y="0" type="line"/>
      <point x="35" y="44" type="line" name="hr01"/>
      <point x="87" y="55" type="line"/>
      <point x="87" y="558" type="line" smooth="yes"/>
      <point x="87" y="674"/>
      <point x="149" y="727"/>
      <point x="232" y="727" type="curve" smooth="yes"/>
      <point x="318" y="727"/>
      <point x="380" y="675"/>
      <point x="380" y="585" type="curve" smooth="yes"/>
      <point x="380" y="485"/>
      <point x="281" y="435"/>
      <point x="281" y="405" type="curve" smooth="yes"/>
      <point x="281" y="383"/>
      <point x="288" y="367"/>
      <point x="340" y="344" type="curve" smooth="yes"/>
      <point x="448" y="296"/>
      <point x="483" y="254"/>
      <point x="483" y="166" type="curve" smooth="yes"/>
      <point x="483" y="55"/>
      <point x="377" y="-4"/>
      <point x="302" y="-4" type="curve" smooth="yes" name="hr02"/>
      <point x="261" y="-4"/>
      <point x="219" y="10"/>
      <point x="190" y="20" type="curve"/>
    </contour>
  </outline>
</glyph>
<glyph name="aacute" format="1">
  <advance width="448"/>
  <unicode hex="00E1"/>
  <outline>
    <contour>
      <point x="366" y="79" type="line" smooth="yes" name="hr00"/>
      <point x="366" y="64"/>
      <point x="371" y="50"/>
      <point x="389" y="50" type="curve" smooth="yes"/>
      <point x="396" y="50"/>
      <point x="404" y="53"/>
      <point x="410" y="55" type="curve"/>
      <point x="421" y="17" type="line"/>
      <point x="407" y="2"/>
      <point x="386" y="-4"/>
      <point x="366" y="-4" type="curve" smooth="yes"/>
      <point x="330" y="-4"/>
      <point x="314" y="15"/>
      <point x="308" y="40" type="curve"/>
      <point x="278" y="12"/>
      <point x="238" y="-4"/>
      <point x="190" y="-4" type="curve" smooth="yes"/>
      <point x="110" y="-4"/>
      <point x="41" y="45"/>
      <point x="41" y="128" type="curve" smooth="yes"/>
      <point x="41" y="263"/>
      <point x="206" y="286"/>
      <point x="303" y="288" type="curve"/>
      <point x="303" y="352" type="line" smooth="yes"/>
      <point x="303" y="395"/>
      <point x="268" y="422"/>
      <point x="215" y="422" type="curve" smooth="yes"/>
      <point x="195" y="422"/>
      <point x="163" y="420"/>
      <point x="146" y="409" type="curve"/>
      <point x="130" y="356" type="line"/>
      <point x="48" y="371" type="line"/>
      <point x="71" y="445"/>
      <point x="141" y="479"/>
      <point x="209" y="479" type="curve" smooth="yes"/>
      <point x="319" y="479"/>
      <point x="366" y="423"/>
      <point x="366" y="337" type="curve" smooth="yes"/>
    </contour>
    <contour>
      <point x="107" y="131" type="curve" smooth="yes"/>
      <point x="107" y="85"/>
      <point x="141" y="53"/>
      <point x="197" y="53" type="curve" smooth="yes"/>
      <point x="238" y="53"/>
      <point x="280" y="73"/>
      <point x="303" y="108" type="curve"/>
      <point x="303" y="232" type="line"/>
      <point x="235" y="231"/>
      <point x="107" y="219"/>
    </contour>
    <contour>
      <point x="149" y="586" type="line"/>
      <point x="253" y="725" type="line"/>
      <point x="280" y="725" type="line"/>
      <point x="324" y="673" type="line"/>
      <point x="184" y="553" type="line"/>
    </contour>
  </outline>
</glyph>
<glyph name="atilde" format="1">
  <advance width="448"/>
  <unicode hex="00E3"/>
  <outline>
    <contour>
      <point x="328" y="663" type="line" name="hr00"/>
      <point x="365" y="601" type="line"/>
      <point x="339" y="579"/>
      <point x="318" y="563"/>
      <point x="282" y="563" type="curve" smooth="yes"/>
      <point x="233" y="563"/>
      <point x="211" y="600"/>
      <point x="173" y="600" type="curve"/>
      <point x="143" y="598"/>
      <point x="125" y="580"/>
      <point x="115" y="554" type="curve"/>
      <point x="72" y="580" type="line"/>
      <point x="73" y="597" type="line"/>
      <point x="91" y="629"/>
      <point x="118" y="663"/>
      <point x="166" y="663" type="curve" smooth="yes"/>
      <point x="205" y="663"/>
      <point x="242" y="633"/>
      <point x="275" y="622" type="curve"/>
    </contour>
    <contour>
      <point x="366" y="79" type="line" smooth="yes"/>
      <point x="366" y="64"/>
      <point x="371" y="50"/>
      <point x="389" y="50" type="curve" smooth="yes"/>
      <point x="396" y="50"/>
      <point x="404" y="53"/>
      <point x="410" y="55" type="curve"/>
      <point x="421" y="17" type="line"/>
      <point x="407" y="2"/>
      <point x="386" y="-4"/>
      <point x="366" y="-4" type="curve" smooth="yes"/>
      <point x="330" y="-4"/>
      <point x="314" y="15"/>
      <point x="308" y="40" type="curve"/>
      <point x="278" y="12"/>
      <point x="238" y="-4"/>
      <point x="190" y="-4" type="curve" smooth="yes"/>
      <point x="110" y="-4"/>
      <point x="41" y="45"/>
      <point x="41" y="128" type="curve" smooth="yes"/>
      <point x="41" y="263"/>
      <point x="206" y="286"/>
      <point x="303" y="288" type="curve"/>
      <point x="303" y="352" type="line" smooth="yes"/>
      <point x="303" y="395"/>
      <point x="268" y="422"/>
      <point x="215" y="422" type="curve" smooth="yes"/>
      <point x="195" y="422"/>
      <point x="163" y="420"/>
      <point x="146" y="409" type="curve"/>
      <point x="130" y="356" type="line"/>
      <point x="48" y="371" type="line"/>
      <point x="71" y="445"/>
      <point x="141" y="479"/>
      <point x="209" y="479" type="curve" smooth="yes"/>
      <point x="319" y="479"/>
      <point x="366" y="423"/>
      <point x="366" y="337" type="curve" smooth="yes"/>
    </contour>
    <contour>
      <point x="107" y="131" type="curve" smooth="yes"/>
      <point x="107" y="85"/>
      <point x="141" y="53"/>
      <point x="197" y="53" type="curve" smooth="yes"/>
      <point x="238" y="53"/>
      <point x="280" y="73"/>
      <point x="303" y="108" type="curve" name="hr01"/>
      <point x="303" y="232" type="line"/>
      <point x="235" y="231"/>
      <point x="107" y="219"/>
    </contour>
  </outline>
</glyph>
<glyph name="aring" format="1">
  <advance width="448"/>
  <unicode hex="00E5"/>
  <outline>
    <contour>
      <point x="124" y="601" type="curve" smooth="yes" name="hr00"/>
      <point x="124" y="549"/>
      <point x="163" y="510"/>
      <point x="214" y="510" type="curve" smooth="yes"/>
      <point x="265" y="510"/>
      <point x="304" y="549"/>
      <point x="304" y="601" type="curve" smooth="yes"/>
      <point x="304" y="652"/>
      <point x="265" y="691"/>
      <point x="214" y="691" type="curve" smooth="yes"/>
      <point x="163" y="691"/>
      <point x="124" y="652"/>
    </contour>
    <contour>
      <point x="176" y="601" type="curve" smooth="yes"/>
      <point x="176" y="624"/>
      <point x="191" y="638"/>
      <point x="214" y="638" type="curve" smooth="yes"/>
      <point x="237" y="638"/>
      <point x="252" y="624"/>
      <point x="252" y="601" type="curve" smooth="yes"/>
      <point x="252" y="577"/>
      <point x="237" y="563"/>
      <point x="214" y="563" type="curve" smooth="yes"/>
      <point x="191" y="563"/>
      <point x="176" y="577"/>
    </contour>
    <contour>
      <point x="366" y="79" type="line" smooth="yes"/>
      <point x="366" y="64"/>
      <point x="371" y="50"/>
      <point x="389" y="50" type="curve" smooth="yes"/>
      <point x="396" y="50"/>
      <point x="404" y="53"/>
      <point x="410" y="55" type="curve"/>
      <point x="421" y="17" type="line"/>
      <point x="407" y="2"/>
      <point x="386" y="-4"/>
      <point x="366" y="-4" type="curve" smooth="yes"/>
      <point x="330" y="-4"/>
      <point x="314" y="15"/>
      <point x="308" y="40" type="curve"/>
      <point x="278" y="12"/>
      <point x="238" y="-4"/>
      <point x="190" y="-4" type="curve" smooth="yes"/>
      <point x="110" y="-4"/>
      <point x="41" y="45"/>
      <point x="41" y="128" type="curve" smooth="yes"/>
      <point x="41" y="263"/>
      <point x="206" y="286"/>
      <point x="303" y="288" type="curve"/>
      <point x="303" y="352" type="line" smooth="yes"/>
      <point x="303" y="395"/>
      <point x="268" y="422"/>
      <point x="215" y="422" type="curve" smooth="yes"/>
      <point x="195" y="422"/>
      <point x="163" y="420"/>
      <point x="146" y="409" type="curve"/>
      <point x="130" y="356" type="line"/>
      <point x="48" y="371" type="line"/>
      <point x="71" y="445"/>
      <point x="141" y="479"/>
      <point x="209" y="479" type="curve" smooth="yes" name="hr01"/>
      <point x="319" y="479"/>
      <point x="366" y="423"/>
      <point x="366" y="337" type="curve" smooth="yes"/>
    </contour>
    <contour>
      <point x="107" y="131" type="curve" smooth="yes"/>
      <point x="107" y="85"/>
      <point x="141" y="53"/>
      <point x="197" y="53" type="curve" smooth="yes"/>
      <point x="238" y="53"/>
      <point x="280" y="73"/>
      <point x="303" y="108" type="curve"/>
      <point x="303" y="232" type="line"/>
      <point x="235" y="231"/>
      <point x="107" y="219"/>
    </contour>
  </outline>
</glyph>
<glyph name="ae" format="1">
  <advance width="698"/>
  <unicode hex="00E6"/>
  <outline>
    <contour>
      <point x="303" y="352" type="line" smooth="yes" name="hr00"/>
      <point x="303" y="373"/>
      <point x="276" y="422"/>
      <point x="206" y="422" type="curve" smooth="yes"/>
      <point x="183" y="422"/>
      <point x="157" y="418"/>
      <point x="146" y="409" type="curve"/>
      <point x="130" y="356" type="line"/>
      <point x="48" y="371" type="line"/>
      <point x="59" y="443"/>
      <point x="140" y="479"/>
      <point x="207" y="479" type="curve" smooth="yes"/>
      <point x="265" y="479"/>
      <point x="327" y="460"/>
      <point x="353" y="399" type="curve"/>
      <point x="392" y="451"/>
      <point x="450" y="481"/>
      <point x="511" y="481" type="curve" smooth="yes"/>
      <point x="603" y="481"/>
      <point x="664" y="436"/>
      <point x="664" y="352" type="curve" smooth="yes"/>
      <point x="664" y="218"/>
      <point x="518" y="209"/>
      <point x="406" y="209" type="curve" smooth="yes"/>
      <point x="369" y="209" type="line"/>
      <point x="378" y="86"/>
      <point x="461" y="56"/>
      <point x="520" y="56" type="curve" smooth="yes"/>
      <point x="563" y="56"/>
      <point x="597" y="72"/>
      <point x="617" y="91" type="curve"/>
      <point x="635" y="36" type="line"/>
      <point x="604" y="12"/>
      <point x="571" y="-2"/>
      <point x="504" y="-2" type="curve" smooth="yes"/>
      <point x="446" y="-2"/>
      <point x="385" y="24"/>
      <point x="346" y="79" type="curve"/>
      <point x="343" y="73"/>
      <point x="339" y="68"/>
      <point x="336" y="63" type="curve"/>
      <point x="316" y="40"/>
      <point x="274" y="-4"/>
      <point x="196" y="-4" type="curve" smooth="yes" name="hr01"/>
      <point x="94" y="-4"/>
      <point x="41" y="60"/>
      <point x="41" y="123" type="curve" smooth="yes"/>
      <point x="41" y="250"/>
      <point x="165" y="267"/>
      <point x="279" y="267" type="curve" smooth="yes"/>
      <point x="303" y="267" type="line"/>
    </contour>
    <contour>
      <point x="427" y="266" type="curve" smooth="yes"/>
      <point x="501" y="266"/>
      <point x="598" y="277"/>
      <point x="598" y="346" type="curve" smooth="yes"/>
      <point x="598" y="397"/>
      <point x="555" y="423"/>
      <point x="508" y="423" type="curve" smooth="yes"/>
      <point x="445" y="423"/>
      <point x="382" y="374"/>
      <point x="371" y="267" type="curve"/>
      <point x="385" y="267"/>
      <point x="405" y="266"/>
    </contour>
    <contour>
      <point x="107" y="133" type="curve" smooth="yes"/>
      <point x="107" y="85"/>
      <point x="147" y="54"/>
      <point x="196" y="54" type="curve" smooth="yes"/>
      <point x="250" y="54"/>
      <point x="289" y="83"/>
      <point x="303" y="107" type="curve"/>
      <point x="303" y="211" type="line"/>
      <point x="270" y="211" type="line" smooth="yes"/>
      <point x="192" y="211"/>
      <point x="107" y="205"/>
    </contour>
  </outline>
</glyph>
<glyph name="ccedilla" format="1">
  <advance width="406"/>
  <unicode hex="00E7"/>
  <outline>
    <contour>
      <point x="218" y="-73" type="line" name="hr00"/>
      <point x="205" y="-60" type="line"/>
      <point x="225" y="-3" type="line"/>
      <point x="98" y="8"/>
      <point x="43" y="116"/>
      <point x="43" y="233" type="curve" smooth="yes"/>
      <point x="43" y="361"/>
      <point x="103" y="479"/>
      <point x="249" y="479" type="curve" smooth="yes"/>
      <point x="308" y="479"/>
      <point x="358" y="460"/>
      <point x="383" y="442" type="curve"/>
      <point x="339" y="373" type="line"/>
      <point x="280" y="420" type="line"/>
      <point x="270" y="422"/>
      <point x="253" y="422"/>
      <point x="244" y="422" type="curve" smooth="yes"/>
      <point x="136" y="422"/>
      <point x="109" y="322"/>
      <point x="109" y="232" type="curve" smooth="yes"/>
      <point x="109" y="143"/>
      <point x="142" y="53"/>
      <point x="258" y="53" type="curve" smooth="yes"/>
      <point x="297" y="53"/>
      <point x="328" y="61"/>
      <point x="360" y="80" type="curve"/>
      <point x="377" y="31" type="line"/>
      <point x="349" y="10"/>
      <point x="313" y="0"/>
      <point x="276" y="-3" type="curve"/>
      <point x="266" y="-32" type="line"/>
      <point x="303" y="-35"/>
      <point x="343" y="-60"/>
      <point x="343" y="-112" type="curve" smooth="yes"/>
      <point x="343" y="-160"/>
      <point x="309" y="-196"/>
      <point x="241" y="-196" type="curve" smooth="yes"/>
      <point x="205" y="-196"/>
      <point x="181" y="-185"/>
      <point x="157" y="-176" type="curve"/>
      <point x="188" y="-116" type="line"/>
      <point x="243" y="-150" type="line"/>
      <point x="269" y="-150"/>
      <point x="289" y="-136"/>
      <point x="289" y="-113" type="curve" smooth="yes"/>
      <point x="289" y="-95"/>
      <point x="272" y="-73"/>
      <point x="224" y="-73" type="curve" smooth="yes"/>
    </contour>
  </outline>
</glyph>
<glyph name="eacute" format="1">
  <advance width="443"/>
  <unicode hex="00E9"/>
  <outline>
    <contour>
      <point x="264" y="52" type="curve" smooth="yes" name="hr00"/>
      <point x="306" y="52"/>
      <point x="350" y="65"/>
      <point x="381" y="88" type="curve"/>
      <point x="398" y="34" type="line"/>
      <point x="360" y="6"/>
      <point x="308" y="-4"/>
      <point x="259" y="-4" type="curve" smooth="yes"/>
      <point x="113" y="-4"/>
      <point x="42" y="101"/>
      <point x="42" y="232" type="curve" smooth="yes"/>
      <point x="42" y="369"/>
      <point x="120" y="479"/>
      <point x="252" y="479" type="curve" smooth="yes"/>
      <point x="333" y="479"/>
      <point x="401" y="431"/>
      <point x="401" y="348" type="curve" smooth="yes"/>
      <point x="401" y="204"/>
      <point x="236" y="186"/>
      <point x="111" y="185" type="curve"/>
      <point x="124" y="108"/>
      <point x="171" y="52"/>
    </contour>
    <contour>
      <point x="125" y="244" type="line" smooth="yes"/>
      <point x="200" y="244"/>
      <point x="335" y="248"/>
      <point x="335" y="348" type="curve" smooth="yes"/>
      <point x="335" y="401"/>
      <point x="290" y="422"/>
      <point x="251" y="422" type="curve" smooth="yes"/>
      <point x="159" y="422"/>
      <point x="112" y="339"/>
      <point x="108" y="244" type="curve"/>
    </contour>
    <contour>
      <point x="177" y="586" type="line"/>
      <point x="281" y="725" type="line"/>
      <point x="308" y="725" type="line"/>
      <point x="352" y="673" type="line"/>
      <point x="212" y="553" type="line"/>
    </contour>
  </outline>
</glyph>
